<?xml version="1.0" encoding="utf-8"?>
<!-- Generator: Adobe Illustrator 22.1.0, SVG Export Plug-In . SVG Version: 6.00 Build 0)  -->
<svg id="Layer_1" xmlns="http://www.w3.org/2000/svg" xmlns:xlink="http://www.w3.org/1999/xlink" x="0px" y="0px"
	 viewBox="0 0 500 500" style="enable-background:new 0 0 500 500;" xml:space="preserve">
<g>
	<polygon style="fill:#3C3C3B;" points="259.78,472.76 485.32,342.54 238.72,190.04 4.75,324.24 25.98,337.78 	"/>
	<polygon style="fill:#575756;" points="258.9,463.83 487.81,332.26 238.56,191.74 12.87,322.12 	"/>
	<g>
		<g style="enable-background:new    ;">
			<path style="fill:#3C3C3B;" d="M198.7,212.38c0.27-0.12,0.53-0.24,0.81-0.36c1.03-0.45,2.08-0.88,3.15-1.29
				c0.18-0.07,0.36-0.13,0.54-0.2c0.91-0.34,1.83-0.66,2.77-0.97c0.38-0.13,0.77-0.25,1.15-0.37c0.51-0.16,1.03-0.32,1.54-0.47
				c0.44-0.13,0.87-0.25,1.31-0.38c0.52-0.15,1.05-0.28,1.58-0.42c0.44-0.11,0.88-0.23,1.33-0.33c0.54-0.13,1.08-0.25,1.62-0.37
				c0.45-0.1,0.89-0.2,1.34-0.29c0.55-0.11,1.1-0.22,1.66-0.33c0.42-0.08,0.85-0.16,1.27-0.24c1.19-0.21,2.38-0.4,3.59-0.57
				c0.16-0.02,0.32-0.04,0.47-0.06c1.06-0.14,2.13-0.27,3.2-0.38c0.4-0.04,0.81-0.08,1.21-0.12c0.68-0.06,1.36-0.12,2.04-0.17
				c0.43-0.03,0.86-0.06,1.29-0.09c0.71-0.04,1.42-0.08,2.13-0.11c0.4-0.02,0.8-0.04,1.2-0.05c0.62-0.02,1.24-0.03,1.86-0.04
				c0.43-0.01,0.86-0.02,1.29-0.02c0.67,0,1.33,0.01,2,0.02c0.38,0.01,0.77,0.01,1.15,0.02c0.62,0.02,1.24,0.05,1.85,0.07
				c0.41,0.02,0.82,0.03,1.23,0.05c0.68,0.04,1.36,0.09,2.04,0.14c0.34,0.03,0.69,0.04,1.03,0.07c0.92,0.08,1.85,0.17,2.76,0.27
				c0.1,0.01,0.19,0.02,0.29,0.03c1.01,0.11,2.02,0.24,3.03,0.38c0.22,0.03,0.43,0.07,0.65,0.1c0.81,0.12,1.61,0.24,2.41,0.38
				c0.37,0.06,0.73,0.14,1.1,0.21c0.64,0.12,1.29,0.24,1.93,0.37c0.35,0.07,0.7,0.15,1.05,0.23c0.7,0.15,1.4,0.31,2.1,0.47
				c0.4,0.1,0.79,0.2,1.19,0.3c0.64,0.16,1.28,0.33,1.91,0.51c0.37,0.1,0.73,0.21,1.09,0.31c1.01,0.3,2.02,0.61,3.01,0.93
				c0.17,0.06,0.34,0.11,0.51,0.16c1.13,0.38,2.24,0.79,3.34,1.22c0.45,0.17,0.89,0.35,1.33,0.54c0.35,0.14,0.7,0.28,1.04,0.43
				c0.5,0.21,0.99,0.44,1.48,0.66c0.32,0.14,0.64,0.28,0.95,0.43c0.54,0.25,1.06,0.52,1.59,0.79c0.26,0.13,0.52,0.25,0.77,0.39
				c0.77,0.4,1.53,0.82,2.28,1.25l0.14-177.52c-0.75-0.43-1.51-0.85-2.28-1.25c-0.25-0.13-0.51-0.26-0.77-0.38
				c-0.53-0.27-1.05-0.53-1.59-0.79c-0.31-0.15-0.63-0.29-0.95-0.43c-0.49-0.22-0.98-0.45-1.48-0.66c-0.34-0.15-0.69-0.29-1.04-0.43
				c-0.33-0.14-0.66-0.28-1-0.41c-0.11-0.04-0.22-0.08-0.33-0.12c-1.1-0.43-2.21-0.84-3.34-1.22c-0.16-0.06-0.33-0.11-0.5-0.16
				c-0.99-0.33-2-0.64-3.01-0.94c-0.17-0.05-0.33-0.11-0.49-0.15c-0.2-0.06-0.4-0.1-0.6-0.16c-0.63-0.18-1.27-0.34-1.91-0.51
				c-0.4-0.1-0.79-0.2-1.19-0.3c-0.7-0.17-1.4-0.32-2.1-0.47c-0.27-0.06-0.54-0.13-0.81-0.18c-0.08-0.02-0.16-0.03-0.24-0.04
				c-0.64-0.13-1.28-0.25-1.93-0.37c-0.37-0.07-0.73-0.14-1.1-0.2c-0.8-0.14-1.6-0.26-2.41-0.38c-0.21-0.03-0.41-0.07-0.62-0.1
				c-0.01,0-0.03,0-0.04,0c-1.01-0.14-2.02-0.27-3.03-0.38c-0.1-0.01-0.2-0.02-0.3-0.03c-0.91-0.1-1.83-0.19-2.75-0.27
				c-0.02,0-0.03,0-0.05,0c-0.33-0.03-0.65-0.04-0.98-0.07c-0.68-0.05-1.36-0.1-2.04-0.14c-0.41-0.02-0.82-0.03-1.23-0.05
				c-0.62-0.03-1.24-0.06-1.85-0.07c-0.05,0-0.1,0-0.15-0.01c-0.33-0.01-0.67,0-1-0.01c-0.67-0.01-1.34-0.02-2.01-0.02
				c-0.43,0-0.86,0.01-1.28,0.02c-0.62,0.01-1.24,0.02-1.87,0.04c-0.12,0-0.23,0-0.35,0.01c-0.29,0.01-0.57,0.03-0.86,0.04
				c-0.71,0.03-1.42,0.06-2.13,0.11c-0.43,0.03-0.86,0.06-1.29,0.09c-0.68,0.05-1.36,0.11-2.04,0.17c-0.24,0.02-0.48,0.04-0.72,0.06
				c-0.16,0.02-0.33,0.04-0.49,0.06c-1.07,0.11-2.13,0.24-3.19,0.38c-0.16,0.02-0.32,0.04-0.48,0.06c-1.2,0.17-2.4,0.36-3.59,0.57
				c-0.11,0.02-0.23,0.03-0.35,0.06c-0.31,0.06-0.62,0.12-0.93,0.18c-0.55,0.11-1.11,0.21-1.66,0.33c-0.45,0.09-0.9,0.19-1.34,0.29
				c-0.54,0.12-1.08,0.24-1.62,0.37c-0.45,0.11-0.89,0.22-1.33,0.33c-0.53,0.14-1.05,0.28-1.58,0.42c-0.44,0.12-0.88,0.25-1.31,0.38
				c-0.52,0.15-1.03,0.31-1.54,0.47c-0.23,0.07-0.46,0.14-0.69,0.21c-0.16,0.05-0.31,0.11-0.46,0.16c-0.93,0.31-1.86,0.63-2.77,0.97
				c-0.18,0.07-0.36,0.13-0.54,0.2c-1.07,0.41-2.12,0.84-3.15,1.29c-0.27,0.12-0.54,0.24-0.81,0.36c-0.79,0.35-1.57,0.72-2.34,1.1
				c-0.29,0.14-0.58,0.28-0.86,0.43c-0.99,0.51-1.96,1.03-2.91,1.57l-0.14,177.52c0.94-0.55,1.92-1.07,2.91-1.58
				c0.28-0.15,0.57-0.29,0.86-0.43C197.13,213.1,197.91,212.73,198.7,212.38z"/>
			<g>
				<polygon style="fill:#3C3C3B;" points="192.73,37.97 192.6,215.49 12.87,322.12 4.75,324.24 4.89,146.72 				"/>
			</g>
			<g>
				<polygon style="fill:#3C3C3B;" points="340.92,72.02 340.78,249.54 282.18,215.48 282.31,37.97 				"/>
			</g>
		</g>
	</g>
	<g>
		<defs>
			<path id="SVGID_222_" d="M258.9,463.83l228.92-131.57l-202.94-114.1c-28.68-16.36-63.89-16.26-92.47,0.25L12.87,322.12
				L258.9,463.83z"/>
		</defs>
		<clipPath id="SVGID_2_">
			<use xlink:href="#SVGID_222_"  style="overflow:visible;"/>
		</clipPath>
		<g style="opacity:0.38;clip-path:url(#SVGID_2_);">
			<g>
				<line style="stroke:#1D1D1B;stroke-width:0.75;stroke-miterlimit:10;" x1="124.27" y1="423.18" x2="430.12" y2="246.37"/>
				<line style="stroke:#1D1D1B;stroke-width:0.75;stroke-miterlimit:10;" x1="99.07" y1="407.84" x2="404.92" y2="231.04"/>
				<line style="stroke:#1D1D1B;stroke-width:0.75;stroke-miterlimit:10;" x1="73.87" y1="392.51" x2="379.72" y2="215.71"/>
				<line style="stroke:#1D1D1B;stroke-width:0.75;stroke-miterlimit:10;" x1="48.66" y1="377.18" x2="354.51" y2="200.37"/>
				<line style="stroke:#1D1D1B;stroke-width:0.75;stroke-miterlimit:10;" x1="225.08" y1="484.51" x2="530.93" y2="307.71"/>
				<line style="stroke:#1D1D1B;stroke-width:0.75;stroke-miterlimit:10;" x1="199.88" y1="469.18" x2="505.73" y2="292.37"/>
				<line style="stroke:#1D1D1B;stroke-width:0.75;stroke-miterlimit:10;" x1="174.68" y1="453.84" x2="480.53" y2="277.04"/>
				<line style="stroke:#1D1D1B;stroke-width:0.75;stroke-miterlimit:10;" x1="149.47" y1="438.51" x2="455.32" y2="261.71"/>
				<line style="stroke:#1D1D1B;stroke-width:0.75;stroke-miterlimit:10;" x1="23.46" y1="361.84" x2="329.31" y2="185.04"/>
				<line style="stroke:#1D1D1B;stroke-width:0.75;stroke-miterlimit:10;" x1="-1.74" y1="346.51" x2="304.11" y2="169.71"/>
			</g>
			<g>
				<line style="stroke:#1D1D1B;stroke-width:0.75;stroke-miterlimit:10;" x1="298.23" y1="489.66" x2="-7.62" y2="312.85"/>
				<line style="stroke:#1D1D1B;stroke-width:0.75;stroke-miterlimit:10;" x1="323.43" y1="474.32" x2="17.58" y2="297.52"/>
				<line style="stroke:#1D1D1B;stroke-width:0.75;stroke-miterlimit:10;" x1="348.63" y1="458.99" x2="42.78" y2="282.19"/>
				<line style="stroke:#1D1D1B;stroke-width:0.75;stroke-miterlimit:10;" x1="373.84" y1="443.66" x2="67.98" y2="266.85"/>
				<line style="stroke:#1D1D1B;stroke-width:0.75;stroke-miterlimit:10;" x1="399.04" y1="428.32" x2="93.19" y2="251.52"/>
				<line style="stroke:#1D1D1B;stroke-width:0.75;stroke-miterlimit:10;" x1="424.24" y1="412.99" x2="118.39" y2="236.19"/>
				<line style="stroke:#1D1D1B;stroke-width:0.75;stroke-miterlimit:10;" x1="449.44" y1="397.66" x2="143.59" y2="220.85"/>
				<line style="stroke:#1D1D1B;stroke-width:0.75;stroke-miterlimit:10;" x1="474.65" y1="382.32" x2="168.79" y2="205.52"/>
				<line style="stroke:#1D1D1B;stroke-width:0.75;stroke-miterlimit:10;" x1="499.85" y1="366.99" x2="194" y2="190.19"/>
				<line style="stroke:#1D1D1B;stroke-width:0.75;stroke-miterlimit:10;" x1="525.05" y1="351.66" x2="219.2" y2="174.85"/>
			</g>
		</g>
	</g>
	<polygon style="fill:#3C3C3B;" points="4.76,317.25 4.75,324.24 26.52,337.56 28.61,331.19 	"/>
	<polyline style="fill:#3C3C3B;" points="457.54,349.67 462.88,355.44 464.09,354.9 495.25,336.86 487.81,332.26 458.15,349.32 	"/>
	<polygon style="fill:#3C3C3B;" points="309.08,229.38 308.87,53.47 494.44,160.51 495.25,336.86 	"/>
	<path style="fill:#C6C6C6;" d="M487.42,163.14l-146-84.11l0,0L281.97,44.6c-0.72-0.42-1.46-0.82-2.2-1.21
		c-0.24-0.13-0.5-0.25-0.74-0.37c-0.51-0.26-1.02-0.52-1.54-0.76c-0.3-0.14-0.61-0.28-0.92-0.42c-0.47-0.22-0.95-0.43-1.43-0.64
		c-0.33-0.14-0.67-0.28-1.01-0.42c-0.32-0.13-0.64-0.27-0.96-0.4c-0.11-0.04-0.22-0.08-0.32-0.12c-1.06-0.41-2.14-0.81-3.23-1.18
		c-0.16-0.05-0.32-0.1-0.48-0.16c-0.96-0.32-1.93-0.62-2.92-0.91c-0.16-0.05-0.32-0.1-0.48-0.15c-0.19-0.05-0.39-0.1-0.58-0.15
		c-0.61-0.17-1.23-0.33-1.85-0.49c-0.38-0.1-0.76-0.2-1.15-0.29c-0.67-0.16-1.35-0.31-2.03-0.46c-0.26-0.06-0.52-0.12-0.78-0.18
		c-0.08-0.02-0.15-0.03-0.23-0.04c-0.62-0.13-1.24-0.24-1.86-0.35c-0.36-0.07-0.71-0.14-1.06-0.2c-0.77-0.13-1.55-0.25-2.33-0.37
		c-0.2-0.03-0.4-0.07-0.6-0.09c-0.01,0-0.03,0-0.04,0c-0.97-0.14-1.95-0.26-2.93-0.37c-0.1-0.01-0.19-0.02-0.29-0.03
		c-0.89-0.1-1.77-0.18-2.66-0.26c-0.02,0-0.03,0-0.05,0c-0.32-0.03-0.63-0.04-0.95-0.06c-0.66-0.05-1.32-0.1-1.98-0.13
		c-0.4-0.02-0.79-0.03-1.19-0.05c-0.6-0.03-1.2-0.05-1.79-0.07c-0.05,0-0.09,0-0.14-0.01c-0.32-0.01-0.65,0-0.97-0.01
		c-0.65-0.01-1.29-0.02-1.94-0.02c-0.41,0-0.83,0.01-1.24,0.02c-0.6,0.01-1.2,0.02-1.81,0.03c-0.11,0-0.22,0-0.33,0.01
		c-0.28,0.01-0.55,0.03-0.83,0.04c-0.69,0.03-1.38,0.06-2.07,0.1c-0.42,0.03-0.83,0.06-1.25,0.09c-0.66,0.05-1.32,0.1-1.98,0.16
		c-0.23,0.02-0.47,0.04-0.7,0.06c-0.16,0.02-0.31,0.04-0.47,0.06c-1.03,0.11-2.07,0.23-3.09,0.37c-0.15,0.02-0.31,0.04-0.46,0.06
		c-1.17,0.16-2.32,0.35-3.47,0.55c-0.11,0.02-0.22,0.03-0.33,0.05c-0.3,0.05-0.6,0.12-0.9,0.18c-0.54,0.1-1.07,0.2-1.6,0.32
		c-0.43,0.09-0.87,0.19-1.3,0.28c-0.52,0.12-1.05,0.24-1.57,0.36c-0.43,0.1-0.86,0.21-1.29,0.32c-0.51,0.13-1.02,0.27-1.53,0.41
		c-0.43,0.12-0.85,0.24-1.27,0.36c-0.5,0.15-1,0.3-1.49,0.45c-0.22,0.07-0.45,0.13-0.67,0.2c-0.15,0.05-0.3,0.11-0.45,0.16
		c-0.9,0.3-1.8,0.61-2.68,0.94c-0.17,0.06-0.35,0.12-0.53,0.19c-1.04,0.39-2.05,0.81-3.05,1.24c-0.26,0.11-0.52,0.23-0.78,0.35
		c-0.77,0.34-1.52,0.7-2.26,1.07c-0.28,0.14-0.56,0.27-0.83,0.42c-0.96,0.49-1.9,0.99-2.81,1.52L13.53,149.83L13.4,321.6
		l181.76-105.23c0.91-0.53,1.86-1.03,2.81-1.52c0.27-0.14,0.55-0.28,0.83-0.41c0.74-0.37,1.5-0.72,2.26-1.07
		c0.26-0.12,0.52-0.24,0.78-0.35c1-0.43,2.02-0.85,3.05-1.24c0.17-0.07,0.35-0.13,0.53-0.19c0.88-0.33,1.77-0.64,2.68-0.94
		c0.37-0.12,0.74-0.24,1.11-0.36c0.5-0.16,0.99-0.31,1.49-0.46c0.42-0.12,0.84-0.25,1.27-0.36c0.51-0.14,1.01-0.28,1.53-0.41
		c0.43-0.11,0.86-0.22,1.29-0.32c0.52-0.13,1.04-0.24,1.57-0.36c0.43-0.1,0.86-0.19,1.3-0.28c0.53-0.11,1.07-0.21,1.6-0.32
		c0.41-0.08,0.82-0.16,1.23-0.23c1.15-0.2,2.31-0.39,3.47-0.55c0.15-0.02,0.31-0.04,0.46-0.06c1.03-0.14,2.06-0.26,3.09-0.37
		c0.39-0.04,0.78-0.08,1.17-0.11c0.66-0.06,1.32-0.12,1.98-0.16c0.41-0.03,0.83-0.06,1.25-0.09c0.69-0.04,1.38-0.07,2.07-0.1
		c0.39-0.02,0.78-0.04,1.17-0.05c0.6-0.02,1.2-0.03,1.8-0.03c0.42-0.01,0.84-0.02,1.25-0.02c0.64,0,1.29,0.01,1.93,0.02
		c0.37,0.01,0.74,0.01,1.12,0.02c0.6,0.02,1.2,0.04,1.79,0.07c0.4,0.02,0.79,0.03,1.19,0.05c0.66,0.04,1.32,0.09,1.98,0.13
		c0.33,0.02,0.67,0.04,1,0.07c0.89,0.07,1.79,0.16,2.67,0.26c0.09,0.01,0.19,0.02,0.28,0.03c0.98,0.11,1.96,0.23,2.93,0.37
		c0.21,0.03,0.42,0.07,0.63,0.1c0.78,0.12,1.56,0.23,2.34,0.37c0.36,0.06,0.71,0.13,1.06,0.2c0.62,0.11,1.25,0.23,1.86,0.35
		c0.34,0.07,0.67,0.15,1.01,0.22c0.68,0.15,1.36,0.3,2.03,0.46c0.39,0.09,0.77,0.19,1.15,0.29c0.62,0.16,1.24,0.32,1.85,0.49
		c0.35,0.1,0.71,0.2,1.06,0.3c0.98,0.29,1.95,0.59,2.91,0.9c0.16,0.05,0.33,0.1,0.49,0.16c1.09,0.37,2.17,0.77,3.23,1.18
		c0.43,0.17,0.86,0.34,1.29,0.52c0.34,0.14,0.68,0.28,1.01,0.42c0.48,0.21,0.96,0.42,1.43,0.64c0.31,0.14,0.62,0.28,0.92,0.42
		c0.52,0.25,1.03,0.5,1.54,0.76c0.25,0.13,0.5,0.24,0.74,0.37c0.75,0.39,1.48,0.79,2.2,1.21L342,249.63l0-0.36l145.42,82.99V163.14z
		"/>
	<g>
		<g>
			<g>
				<g>
					<g>
						<g>
							<g style="enable-background:new    ;">
								<path style="fill:#C6C6C6;" d="M243.05,299.17c-0.35,3.92-4.04,6.58-7.37,8.01c-3.62,1.56-7.61,2.19-11.54,2.14
									c-4.01-0.05-8.11-0.82-11.73-2.6c-3.16-1.55-6.51-4.37-6.5-8.2c-0.01,2.79,0.19,5.1,2.2,7.28
									c2.59,2.81,6.49,4.32,10.15,5.07c7.15,1.48,16.89,0.76,22.33-4.74c2.19-2.22,2.49-4.55,2.49-7.5
									C243.09,298.81,243.08,298.99,243.05,299.17z"/>
								<g>
									<path style="fill:#C6C6C6;" d="M237.61,290.96c7.28,4.2,7.33,11.02,0.09,15.23c-7.23,4.2-19.01,4.2-26.3,0
										c-7.28-4.2-7.31-11.02-0.08-15.23C218.57,286.75,230.33,286.75,237.61,290.96z"/>
								</g>
							</g>
						</g>
						<g>
							<g style="enable-background:new    ;">
								<g>
									<polygon style="fill:#E3FFFF;" points="227.82,282.46 227.78,298.71 224.94,300.36 224.98,284.11 									"/>
								</g>
								<g>
									<polygon style="fill:#7BAEFF;" points="224.98,284.11 224.94,300.36 222.08,298.71 222.12,282.46 									"/>
								</g>
								<g>
									<polygon style="fill:#4DA5DC;" points="227.82,282.46 224.98,284.11 222.12,282.46 224.96,280.81 									"/>
								</g>
							</g>
						</g>
					</g>
					<path style="fill:#878787;" d="M206.49,229.78c0,0-5.83,1.55-7.38,5.05c-1.55,3.5-1.17,29.91,6.99,40.78
						c8.16,10.88,23.3,12.43,26.8,10.88c3.5-1.55,23.69-11.65,25.25-16.7c1.55-5.05-6.21-8.93-10.49-10.88
						c-4.27-1.94-6.99-4.66-9.32-11.65c-2.33-6.99-3.5-19.03-6.21-20.97C229.41,224.34,222.81,221.23,206.49,229.78z"/>
				</g>
				<path style="fill:#382747;" d="M263.2,313.28c0,0-0.13,1.94,1.94,3.37c2.07,1.42,2.46,2.33,4.14,2.98
					c1.68,0.65,3.24,2.85,2.46,4.4c-0.78,1.55-4.4,1.81-6.73,1.17c-2.33-0.65-2.72-2.72-4.92-3.5c-2.2-0.78-2.98-1.68-3.63-2.33
					c-0.65-0.65-0.39-3.24-0.39-3.24l7.9-2.59"/>
				<path style="fill:#382747;" d="M273.3,305.77c0,0-0.13,1.94,1.94,3.37c2.07,1.42,2.46,2.33,4.14,2.98
					c1.68,0.65,3.24,2.85,2.46,4.4c-0.78,1.55-4.4,1.81-6.73,1.17c-2.33-0.65-2.72-2.72-4.92-3.5c-2.2-0.78-2.98-1.68-3.63-2.33
					c-0.65-0.65-0.39-3.24-0.39-3.24l7.9-2.59"/>
				<path style="fill:#94A3C0;" d="M211.67,259.36c0,0,0.39,1.55,0.39,2.91s-0.97,5.24,0.97,9.9c1.94,4.66,14.95,5.63,19.23,7.57
					c4.27,1.94,6.8,3.69,7.57,4.27c0.78,0.58,1.88,8.8,5.24,13.72c3.37,4.92,9.06,14.76,10.36,18.9c0,0,3.68,0.87,6.99-1.29
					c1.73-1.13,1.55-1.81,1.55-1.81s-6.73-14.76-8.29-20.97c-1.55-6.21-3.37-13.46-6.21-15.28c-2.85-1.81-11.91-8.29-13.98-9.58
					c-2.07-1.29-7.65-5.39-8.75-7.87C225.66,257.35,215.04,253.34,211.67,259.36z"/>
				<path style="fill:#94A3C0;" d="M222.35,252.95c0,0,0.39,1.55,0.39,2.91c0,1.36-0.97,5.24,0.97,9.9
					c1.94,4.66,14.95,5.63,19.23,7.57c4.27,1.94,6.8,3.69,7.57,4.27c0.78,0.58,1.88,8.8,5.24,13.72c3.37,4.92,9.06,14.76,10.36,18.9
					c0,0,3.68,0.87,6.99-1.29c1.73-1.13,1.55-1.81,1.55-1.81s-6.73-14.76-8.29-20.97c-1.55-6.21-3.37-13.46-6.21-15.28
					c-2.85-1.81-11.91-8.29-13.98-9.58s-7.65-5.39-8.75-7.87C236.34,250.94,225.72,246.93,222.35,252.95z"/>
			</g>
			<g>
				<g>
					<g style="enable-background:new    ;">
						<g>
							<polygon style="fill:#B2B2B2;" points="274.79,301.81 274.68,341.3 267.77,345.32 267.89,305.82 							"/>
						</g>
						<g>
							<polygon style="fill:#878787;" points="267.89,305.82 267.77,345.32 260.82,341.3 260.93,301.81 							"/>
						</g>
						<g>
							<polygon style="fill:#4DA5DC;" points="274.79,301.81 267.89,305.82 260.93,301.81 267.84,297.79 							"/>
						</g>
					</g>
				</g>
				<g>
					<path style="fill:#878787;" d="M388.41,274.75c-0.01,0.11-0.02,0.23-0.04,0.34c-0.02,0.09-0.05,0.19-0.07,0.28
						c-0.03,0.11-0.06,0.22-0.09,0.33c-0.03,0.09-0.07,0.18-0.11,0.27c-0.05,0.11-0.1,0.23-0.16,0.34c-0.04,0.08-0.1,0.16-0.15,0.24
						c-0.08,0.13-0.16,0.26-0.26,0.38c-0.09,0.12-0.18,0.24-0.29,0.36c-0.02,0.03-0.05,0.06-0.07,0.08
						c-0.14,0.15-0.3,0.31-0.46,0.45c-0.11,0.09-0.22,0.19-0.34,0.28c-0.1,0.08-0.2,0.16-0.31,0.24c-0.12,0.09-0.26,0.18-0.4,0.26
						c-0.14,0.09-0.27,0.18-0.42,0.27l-88.84,51.63c-0.73,0.42-1.54,0.78-2.4,1.06c-0.67,0.22-1.36,0.39-2.08,0.52
						c-0.46,0.08-0.93,0.15-1.4,0.19c-0.4,0.04-0.81,0.07-1.22,0.08c-0.37,0.01-0.75,0.01-1.12,0.01c-0.36-0.01-0.72-0.03-1.08-0.06
						l-0.02,6.33c0.36,0.03,0.72,0.05,1.08,0.06c0.37,0.01,0.75,0.01,1.12-0.01c0.41-0.01,0.81-0.04,1.22-0.08
						c0.47-0.05,0.94-0.11,1.4-0.19c0.71-0.13,1.41-0.3,2.08-0.52c0.86-0.28,1.67-0.63,2.4-1.06l88.84-51.63
						c0.05-0.03,0.09-0.05,0.13-0.08c0.1-0.06,0.19-0.13,0.28-0.19c0.13-0.09,0.27-0.17,0.4-0.27c0.11-0.08,0.2-0.16,0.31-0.24
						c0.12-0.09,0.23-0.18,0.34-0.28c0.02-0.02,0.05-0.04,0.07-0.06c0.14-0.13,0.27-0.26,0.39-0.4c0.03-0.03,0.05-0.06,0.07-0.09
						c0.07-0.08,0.15-0.16,0.21-0.25c0.03-0.04,0.05-0.07,0.08-0.11c0.09-0.13,0.18-0.25,0.26-0.38c0.03-0.05,0.08-0.11,0.11-0.16
						c0.02-0.03,0.02-0.06,0.04-0.08c0.06-0.11,0.11-0.23,0.16-0.34c0.03-0.07,0.07-0.13,0.09-0.2c0.01-0.02,0.01-0.05,0.02-0.07
						c0.04-0.11,0.07-0.22,0.09-0.33c0.02-0.07,0.05-0.15,0.06-0.22c0-0.02,0-0.04,0.01-0.06c0.02-0.11,0.03-0.23,0.04-0.35
						c0.01-0.07,0.02-0.15,0.03-0.22c0-0.03,0-0.06,0-0.1l0.02-6.33C388.44,274.54,388.42,274.65,388.41,274.75z"/>
					<path style="fill:#878787;" d="M286.05,332.2c-0.37-0.05-0.73-0.11-1.09-0.19c-0.39-0.08-0.77-0.17-1.14-0.28
						c-0.46-0.13-0.9-0.28-1.33-0.45c-0.56-0.22-1.09-0.47-1.58-0.76l-89.42-51.63c-2.16-1.25-3.24-2.89-3.24-4.52l-0.02,6.33
						c0,1.64,1.07,3.27,3.24,4.52l89.42,51.63c0.49,0.29,1.02,0.54,1.58,0.76c0.43,0.17,0.87,0.32,1.33,0.45
						c0.37,0.11,0.76,0.2,1.14,0.28c0.36,0.07,0.72,0.14,1.09,0.19c0.35,0.05,0.71,0.09,1.07,0.12l0.02-6.33
						C286.76,332.29,286.4,332.25,286.05,332.2z"/>
					<g>
						<path style="fill:#DADADA;" d="M385.2,270.16c4.3,2.48,4.32,6.5,0.05,8.98l-88.84,51.63c-4.27,2.48-11.21,2.48-15.5,0
							l-89.42-51.63c-4.3-2.48-4.32-6.5-0.05-8.98l88.84-51.63c4.27-2.48,11.21-2.48,15.5,0L385.2,270.16z"/>
					</g>
				</g>
			</g>
			<g>
				<g>
					<g>
						<path style="fill:#B2B2B2;" d="M311.28,147.02c-0.05-0.03-0.09-0.05-0.14-0.08c-0.06-0.03-0.12-0.06-0.18-0.09
							c-0.06-0.03-0.12-0.06-0.18-0.08c-0.06-0.03-0.12-0.05-0.18-0.07c-0.06-0.02-0.12-0.05-0.18-0.07c-0.01,0-0.02-0.01-0.03-0.01
							c0,0-0.01,0-0.01,0c-0.04-0.01-0.09-0.03-0.13-0.04c-0.06-0.02-0.12-0.04-0.18-0.05c-0.06-0.02-0.12-0.03-0.18-0.04
							c-0.06-0.01-0.13-0.02-0.19-0.03c-0.04-0.01-0.09-0.01-0.13-0.01c-0.01,0-0.01,0-0.02,0c-0.02,0-0.03,0-0.05,0
							c-0.07,0-0.14-0.01-0.21-0.01c-0.08,0-0.15,0-0.23,0.01c-0.09,0.01-0.17,0.02-0.25,0.04c0,0,0,0-0.01,0c0,0-0.01,0-0.01,0
							c-0.1,0.02-0.2,0.05-0.29,0.08c-0.12,0.04-0.24,0.1-0.36,0.16l-2.92,1.7c0.2-0.12,0.42-0.2,0.65-0.25c0,0,0.01,0,0.01,0
							c0.23-0.05,0.48-0.06,0.74-0.04c0.01,0,0.01,0,0.02,0c0.26,0.02,0.53,0.08,0.81,0.18c0,0,0.01,0,0.01,0
							c0.29,0.1,0.58,0.23,0.89,0.41l81.59,47.11l2.92-1.7"/>
						<path style="fill:#878787;" d="M397.26,201.53c0-0.07-0.01-0.14-0.01-0.21c0-0.07-0.01-0.14-0.02-0.21
							c-0.01-0.07-0.01-0.14-0.02-0.22c-0.01-0.07-0.02-0.15-0.03-0.22c0,0,0,0,0-0.01c0,0,0,0,0,0c-0.01-0.07-0.02-0.14-0.04-0.21
							c-0.01-0.08-0.03-0.15-0.05-0.23c-0.02-0.08-0.03-0.15-0.05-0.23c-0.02-0.08-0.04-0.16-0.06-0.23
							c-0.02-0.06-0.03-0.12-0.05-0.18c0,0,0-0.01,0-0.01c0-0.01-0.01-0.02-0.01-0.04c-0.02-0.08-0.05-0.15-0.07-0.23
							c-0.03-0.07-0.05-0.15-0.08-0.22c-0.03-0.07-0.05-0.14-0.08-0.22c-0.03-0.07-0.06-0.14-0.09-0.21
							c-0.02-0.05-0.05-0.11-0.07-0.16c0,0,0-0.01,0-0.01c-0.01-0.01-0.01-0.02-0.02-0.04c-0.03-0.07-0.06-0.14-0.1-0.21
							c-0.04-0.08-0.07-0.15-0.11-0.23c-0.04-0.09-0.09-0.18-0.14-0.26c-0.05-0.09-0.1-0.19-0.16-0.28
							c-0.01-0.02-0.02-0.03-0.03-0.05c-0.01-0.02-0.02-0.04-0.03-0.06c-0.1-0.18-0.21-0.35-0.33-0.52
							c-0.09-0.13-0.18-0.27-0.28-0.4c-0.06-0.09-0.13-0.17-0.2-0.26c-0.06-0.07-0.11-0.14-0.17-0.21c-0.06-0.07-0.11-0.13-0.17-0.2
							c-0.06-0.06-0.11-0.13-0.17-0.19c-0.01-0.01-0.02-0.02-0.03-0.04c0,0-0.01-0.01-0.01-0.01c-0.04-0.05-0.09-0.09-0.13-0.14
							c-0.06-0.06-0.12-0.12-0.19-0.18c-0.06-0.06-0.13-0.12-0.19-0.18c-0.06-0.06-0.13-0.12-0.2-0.17
							c-0.03-0.03-0.07-0.05-0.1-0.08c-0.01-0.01-0.01-0.01-0.02-0.02c-0.02-0.02-0.05-0.04-0.07-0.06
							c-0.06-0.05-0.13-0.1-0.19-0.15c-0.06-0.05-0.13-0.09-0.19-0.14c-0.06-0.04-0.12-0.08-0.19-0.12
							c-0.06-0.04-0.12-0.08-0.19-0.11c-0.01-0.01-0.03-0.02-0.04-0.03l-2.92,1.7c0.3,0.17,0.59,0.38,0.88,0.61
							c0.01,0.01,0.01,0.01,0.02,0.02c0.28,0.23,0.55,0.48,0.81,0.76c0,0,0.01,0.01,0.01,0.01c0.52,0.55,0.99,1.19,1.38,1.87
							c0.01,0.02,0.02,0.03,0.03,0.05c0.19,0.33,0.36,0.68,0.52,1.02c0,0,0,0.01,0.01,0.01c0.16,0.36,0.29,0.72,0.4,1.08
							c0,0,0,0.01,0,0.01c0.11,0.36,0.19,0.73,0.25,1.09c0,0,0,0,0,0c0.06,0.36,0.09,0.72,0.09,1.07l-0.16,55.75
							c0,0.34-0.03,0.66-0.09,0.95c0,0.01,0,0.02-0.01,0.03c-0.06,0.29-0.14,0.54-0.25,0.78c0,0,0,0.01-0.01,0.01
							c-0.09,0.19-0.21,0.36-0.33,0.51c-0.04,0.05-0.08,0.11-0.12,0.15c-0.15,0.16-0.3,0.29-0.48,0.4l2.92-1.7
							c0.18-0.1,0.34-0.24,0.48-0.4c0.04-0.05,0.08-0.1,0.12-0.15c0.05-0.07,0.11-0.12,0.16-0.2c0.06-0.09,0.12-0.19,0.17-0.3
							c0,0,0-0.01,0.01-0.01c0,0,0-0.01,0.01-0.01c0.03-0.07,0.07-0.15,0.09-0.22c0.03-0.07,0.05-0.15,0.08-0.23
							c0.02-0.07,0.04-0.15,0.06-0.23c0.01-0.03,0.01-0.06,0.02-0.1c0-0.01,0-0.02,0.01-0.03c0.01-0.03,0.01-0.06,0.02-0.09
							c0.01-0.07,0.02-0.14,0.03-0.21c0.01-0.07,0.02-0.14,0.02-0.21c0.01-0.07,0.01-0.14,0.01-0.21c0-0.07,0-0.14,0.01-0.21
							c0,0,0-0.01,0-0.01l0.16-55.75C397.26,201.66,397.26,201.6,397.26,201.53z"/>
						<g>
							<path style="fill:#706F6F;" d="M389.95,195.82c2.43,1.41,4.4,4.81,4.39,7.61l-0.16,55.75c-0.01,2.8-1.99,3.92-4.42,2.52
								l-81.59-47.11c-2.43-1.41-4.4-4.81-4.39-7.61l0.16-55.75c0.01-2.8,1.99-3.92,4.42-2.52L389.95,195.82z"/>
						</g>
					</g>
				</g>
			</g>
			<g>
				<g>
					<g>
						<g>
							<g>
								<g style="enable-background:new    ;">
									<path style="fill:#878787;" d="M376.28,369.47c-0.35,3.92-4.04,6.58-7.37,8.01c-3.62,1.56-7.61,2.19-11.54,2.14
										c-4.01-0.05-8.11-0.82-11.73-2.6c-3.16-1.55-6.51-4.37-6.5-8.2c-0.01,2.79,0.19,5.1,2.2,7.28
										c2.59,2.81,6.49,4.32,10.15,5.07c7.15,1.48,16.89,0.76,22.33-4.74c2.19-2.22,2.49-4.55,2.49-7.5
										C376.32,369.11,376.3,369.29,376.28,369.47z"/>
									<g>
										<path style="fill:#C6C6C6;" d="M370.83,361.26c7.28,4.2,7.33,11.02,0.09,15.23c-7.23,4.2-19.01,4.2-26.3,0
											c-7.28-4.2-7.31-11.02-0.08-15.23C351.79,357.05,363.55,357.05,370.83,361.26z"/>
									</g>
								</g>
							</g>
							<g>
								<g style="enable-background:new    ;">
									<g>
										<polygon style="fill:#B2B2B2;" points="361.05,352.76 361,369.01 358.16,370.66 358.2,354.41 										"/>
									</g>
									<g>
										<polygon style="fill:#878787;" points="358.2,354.41 358.16,370.66 355.3,369.01 355.34,352.76 										"/>
									</g>
									<g>
										<polygon style="fill:#4DA5DC;" points="361.05,352.76 358.2,354.41 355.34,352.76 358.19,351.11 										"/>
									</g>
								</g>
							</g>
						</g>
						<path style="fill:#878787;" d="M394.19,297.28c-0.08-2.25-2.32-3.78-4.44-3.04c-9.29,3.26-30.58,10.97-31.95,13.71
							c-1.3,2.61-5.51,17.17-7.59,24.46c-0.6,2.11-3.03,3.07-4.92,1.96l-12.87-7.59c-2.45-1.44-5.47,0.63-5,3.43l2.07,12.4
							c0.16,0.99,0.76,1.85,1.63,2.35l13.77,7.91c7.69,4.42,17.09,4.69,25.03,0.72l10.61-5.31c9.28-4.64,15-14.28,14.62-24.65
							L394.19,297.28z"/>
					</g>
					<path style="fill:#B2B2B2;" d="M357.8,307.95c-1.3,2.61-5.51,17.17-7.59,24.46c-0.6,2.11-3.03,3.07-4.92,1.96l-12.87-7.59
						c-2.45-1.44-5.47,0.63-5,3.43l2.07,12.4c0.05,0.29,0.14,0.56,0.26,0.82c0.16,0.26,0.33,0.52,0.5,0.77
						c0.25,0.29,0.53,0.56,0.87,0.76l13.77,7.91c2.92,1.68,6.08,2.75,9.31,3.23c11.17-8.67,9.76-44.84,5.71-47.87
						c-0.6-0.45-1.13-0.73-1.59-0.88C358.07,307.57,357.89,307.77,357.8,307.95z"/>
				</g>
			</g>
			<g>
				<g>
					<g>
						<g>
							<g>
								<path style="fill:#041311;" d="M271.04,247.86c0.74,0.43,0.63,1.55-0.1,1.98l-18.28,10.62c-0.74,0.43-1.94,0.43-2.68,0
									l-12.36-7.13c-0.74-0.43-0.75-1.62-0.01-2.05l18.28-10.13c0.74-0.43,1.94-0.43,2.68,0L271.04,247.86z"/>
								<path style="fill:#051715;" d="M252.58,260.5c0.03-0.01,0.06-0.02,0.08-0.04l18.28-10.62c0.74-0.43,0.85-1.55,0.1-1.98
									l-5.95-3.2h-12.51V260.5z"/>
								<path style="fill:#051B1A;" d="M271.04,247.86l-0.25-0.14v2.2l0.15-0.09C271.67,249.41,271.78,248.29,271.04,247.86
									L271.04,247.86z"/>
								<path style="fill:#0B1421;" d="M237.62,253.33l12.36,7.13c0.19,0.11,0.41,0.19,0.65,0.25v-10.52h-11.05l-1.97,1.09
									C236.87,251.71,236.87,252.9,237.62,253.33L237.62,253.33z"/>
								<path style="fill:#041311;" d="M238.27,250.91l-0.66,0.37c-0.74,0.43-0.74,1.62,0.01,2.05l0.65,0.38V250.91z"/>
							</g>
							<g>
								<defs>
									<path id="SVGID_224_" d="M255.89,240.65l-18.28,10.62c-0.74,0.43-0.74,1.13,0.01,1.55l12.36,7.13
										c0.74,0.43,1.94,0.43,2.68,0l18.28-10.62c0.74-0.43,0.74-1.13-0.01-1.55l-12.36-7.13c-0.37-0.21-0.86-0.32-1.34-0.32
										C256.74,240.33,256.26,240.44,255.89,240.65L255.89,240.65z"/>
								</defs>
								<use xlink:href="#SVGID_224_"  style="overflow:visible;fill:#575756;"/>
								<clipPath id="SVGID_4_">
									<use xlink:href="#SVGID_224_"  style="overflow:visible;"/>
								</clipPath>
							</g>
							<g>
								<path style="fill:#0B1421;" d="M251.32,260.15c-0.48,0-0.93-0.11-1.27-0.3l-12.36-7.13c-0.32-0.18-0.49-0.42-0.49-0.66
									c0-0.24,0.17-0.47,0.48-0.65l18.28-10.62c0.34-0.2,0.79-0.3,1.27-0.3c0.48,0,0.93,0.11,1.27,0.3l12.36,7.13
									c0.32,0.18,0.49,0.42,0.49,0.66c0,0.24-0.17,0.47-0.48,0.65l-18.28,10.62C252.25,260.04,251.8,260.15,251.32,260.15
									L251.32,260.15z"/>
								<path style="fill:#DBE3EC;" d="M271.35,248.57c0-0.24-0.17-0.48-0.49-0.66l-12.36-7.13c-0.34-0.2-0.79-0.3-1.27-0.3
									c-0.46,0-0.89,0.1-1.23,0.28l-7.85,18l1.89,1.09c0.34,0.2,0.79,0.3,1.27,0.3c0.48,0,0.93-0.11,1.27-0.3l18.28-10.62
									C271.18,249.04,271.35,248.81,271.35,248.57L271.35,248.57z"/>
								<path style="fill:#0B1421;" d="M271.35,248.57c0-0.24-0.17-0.48-0.49-0.66l-12.36-7.13c-0.34-0.2-0.79-0.3-1.27-0.3
									c-0.46,0-0.89,0.1-1.23,0.28l-7.85,18l1.89,1.09c0.34,0.2,0.79,0.3,1.27,0.3c0.48,0,0.93-0.11,1.27-0.3l18.28-10.62
									C271.18,249.04,271.35,248.81,271.35,248.57L271.35,248.57z"/>
							</g>
							<g>
								<path style="fill:#0B1720;" d="M263.31,243.99c0.07,0.04,0.07,0.11,0,0.15l-0.04,0.02c-0.07,0.04-0.18,0.04-0.25,0
									l-0.04-0.02c-0.07-0.04-0.07-0.11,0-0.15l0.04-0.02c0.07-0.04,0.18-0.04,0.25,0L263.31,243.99z"/>
							</g>
						</g>
					</g>
					<g>
						<path style="fill:#9D9D9C;" d="M239.32,251.95c-0.09-0.05-0.09-0.13,0-0.18l17.27-10.03c0.09-0.05,0.23-0.05,0.32,0
							l11.93,6.84c0.09,0.05,0.09,0.13,0,0.18l-17.27,10.03c-0.09,0.05-0.23,0.05-0.31,0L239.32,251.95z"/>
					</g>
				</g>
			</g>
		</g>
	</g>

		<line style="fill:#0D352F;stroke:#000000;stroke-width:1.8679;stroke-miterlimit:10;" x1="242.29" y1="111.58" x2="242.29" y2="34.33"/>
	<circle style="fill:#FFED00;" cx="242.56" cy="122.55" r="8.91"/>
	<path style="fill:#3C3C3B;" d="M232.45,114.32c-5.23,3.35-11.25,8.86-14.91,17.63h25.01h24.47c-3.59-8.61-9.27-14.08-14.24-17.44
		C246.68,110.36,238.67,110.34,232.45,114.32z"/>
	<g>
		<polygon style="fill:#575756;" points="151.86,90.68 151.86,210.08 107.5,235.79 107.5,116.4 		"/>
		<polygon style="opacity:0.84;fill:#575756;" points="148.97,92.35 148.97,208.85 107.5,232.89 107.5,235.79 151.86,210.08
			151.86,90.68 		"/>
		<polygon style="fill:#575756;" points="148.97,208.85 151.86,210.08 107.5,235.79 107.5,232.89 		"/>
	</g>
	<g>
		<polygon style="fill:#575756;" points="102.38,119.4 102.38,238.8 58.02,264.52 58.02,145.12 		"/>
		<polygon style="opacity:0.84;fill:#575756;" points="99.48,121.07 99.48,237.57 58.02,261.61 58.02,264.52 102.38,238.8
			102.38,119.4 		"/>
		<polygon style="fill:#575756;" points="99.48,237.57 102.38,238.8 58.02,264.52 58.02,261.61 		"/>
	</g>
	<g>
		<g>
			<g style="enable-background:new    ;">
				<path style="fill:#C6C6C6;" d="M145.28,245.91l-0.05,26.12c-0.01,2.76-1.82,5.51-5.44,7.61l0.06-26.12
					C143.46,251.42,145.28,248.67,145.28,245.91z"/>
				<path style="fill:#C6C6C6;" d="M145.28,246.08c-0.01,0.36-0.05,0.72-0.12,1.08c-0.07,0.35-0.17,0.7-0.3,1.05
					c-0.13,0.36-0.3,0.71-0.5,1.07c-0.21,0.38-0.46,0.75-0.75,1.11c-0.34,0.43-0.72,0.85-1.16,1.25c-0.67,0.62-1.46,1.21-2.37,1.76
					c-0.07,0.04-0.15,0.09-0.23,0.13l-29.55,17.4c-0.41,0.23-0.83,0.45-1.26,0.66c-0.11,0.05-0.23,0.11-0.34,0.16
					c-0.39,0.18-0.79,0.35-1.2,0.51c-0.05,0.02-0.11,0.04-0.16,0.06c-0.47,0.18-0.95,0.34-1.45,0.49c-0.08,0.02-0.15,0.05-0.23,0.07
					c-0.47,0.14-0.95,0.27-1.44,0.39c-0.08,0.02-0.15,0.03-0.23,0.05c-0.49,0.11-0.99,0.21-1.49,0.3c-0.1,0.02-0.21,0.03-0.32,0.05
					c-0.43,0.07-0.86,0.13-1.3,0.19c-0.13,0.02-0.25,0.03-0.38,0.04c-0.5,0.06-1.01,0.1-1.52,0.13c-0.09,0.01-0.19,0.01-0.28,0.02
					c-0.53,0.03-1.05,0.04-1.58,0.04c-0.05,0-0.1,0-0.15,0c-0.39,0-0.79-0.02-1.18-0.03c-0.32-0.01-0.63-0.03-0.95-0.05
					c-0.29-0.02-0.58-0.04-0.87-0.07c-0.31-0.03-0.62-0.07-0.93-0.1c-0.41-0.05-0.82-0.11-1.23-0.18c-0.03,0-0.06-0.01-0.09-0.01
					c-0.52-0.09-1.03-0.19-1.53-0.31c-0.08-0.02-0.16-0.03-0.24-0.05c-0.48-0.12-0.95-0.25-1.41-0.38
					c-0.13-0.04-0.26-0.08-0.39-0.12c-0.39-0.12-0.76-0.25-1.14-0.39c-0.11-0.04-0.22-0.08-0.33-0.12
					c-0.34-0.13-0.67-0.28-0.99-0.42c-0.16-0.07-0.33-0.14-0.48-0.21c-0.47-0.22-0.93-0.46-1.37-0.71l-0.27-0.16
					c-3.69-2.13-5.53-4.92-5.52-7.72l-0.05,26.12c-0.01,2.79,1.83,5.59,5.52,7.72l0.27,0.16c0.44,0.26,0.9,0.49,1.37,0.72
					c0.16,0.07,0.32,0.14,0.48,0.21c0.28,0.13,0.55,0.25,0.84,0.37c0.05,0.02,0.1,0.03,0.15,0.06c0.11,0.04,0.22,0.08,0.33,0.12
					c0.37,0.14,0.75,0.27,1.14,0.39c0.13,0.04,0.26,0.08,0.39,0.12c0.09,0.03,0.17,0.06,0.26,0.08c0.38,0.11,0.76,0.21,1.15,0.3
					c0.08,0.02,0.16,0.03,0.24,0.05c0.18,0.05,0.37,0.09,0.56,0.13c0.32,0.07,0.65,0.13,0.97,0.18c0.03,0.01,0.06,0.01,0.09,0.02
					c0.26,0.04,0.52,0.09,0.79,0.12c0.15,0.02,0.3,0.03,0.44,0.05c0.31,0.04,0.62,0.07,0.93,0.1c0.15,0.02,0.3,0.04,0.45,0.05
					c0.14,0.01,0.28,0.01,0.42,0.02c0.32,0.02,0.63,0.03,0.95,0.05c0.16,0.01,0.32,0.02,0.47,0.03c0.24,0.01,0.47,0.01,0.71,0.01
					c0.05,0,0.1,0,0.15,0c0.35,0,0.7-0.01,1.06-0.02c0.17,0,0.35-0.02,0.52-0.02c0.09-0.01,0.19-0.01,0.28-0.02
					c0.43-0.02,0.85-0.05,1.28-0.1c0.08-0.01,0.16-0.02,0.24-0.03c0.13-0.01,0.25-0.03,0.38-0.04c0.43-0.05,0.87-0.11,1.3-0.18
					c0.1-0.02,0.21-0.03,0.32-0.05c0.05-0.01,0.1-0.02,0.15-0.03c0.45-0.08,0.9-0.17,1.34-0.28c0.08-0.02,0.15-0.03,0.23-0.05
					c0.49-0.12,0.97-0.24,1.44-0.39c0.08-0.02,0.15-0.04,0.23-0.07c0.1-0.03,0.21-0.06,0.31-0.1c0.39-0.12,0.76-0.26,1.14-0.4
					c0.05-0.02,0.11-0.04,0.16-0.07c0.41-0.16,0.81-0.33,1.2-0.51c0.12-0.05,0.23-0.1,0.34-0.16c0.43-0.21,0.86-0.42,1.26-0.66
					l29.55-17.4c0.08-0.05,0.15-0.09,0.23-0.14c0.91-0.55,1.7-1.13,2.37-1.75c0.44-0.41,0.83-0.82,1.16-1.25
					c0.29-0.37,0.54-0.74,0.75-1.12c0.2-0.35,0.37-0.71,0.5-1.07c0.13-0.35,0.23-0.7,0.3-1.05c0.07-0.36,0.11-0.71,0.12-1.07
					c0-0.06,0-0.11,0-0.16l0.05-26.12C145.28,245.97,145.28,246.02,145.28,246.08z"/>
				<g>
					<path style="fill:#9D9D9C;" d="M139.76,238.19c7.33,4.23,7.37,11.1,0.08,15.33l-29.55,17.4c-7.28,4.23-19.14,4.23-26.47,0
						l-0.27-0.16c-7.33-4.23-7.37-11.1-0.09-15.33l29.55-17.4c7.28-4.23,19.14-4.23,26.47,0L139.76,238.19z"/>
				</g>
			</g>
		</g>
	</g>
	<g>
		<g style="enable-background:new    ;">
			<g>
				<g>
					<polygon style="fill:#ECF0F1;" points="109.83,257.2 120.93,250.84 120.93,253.25 109.83,259.62 					"/>
				</g>
			</g>
			<g>
				<g>
					<polygon style="fill:#ECF0F1;" points="109.83,259.62 120.93,253.25 128.31,257.48 117.21,263.85 					"/>
				</g>
			</g>
			<g>
				<g>
					<polygon style="fill:#575756;" points="117.33,261.29 128.43,254.92 128.43,257.76 117.33,264.13 					"/>
				</g>
			</g>
			<g>
				<g>
					<polygon style="fill:#BDC3C7;" points="109.71,259.55 109.92,259.43 109.92,259.67 					"/>
				</g>
				<g>
					<polygon style="fill:#575756;" points="109.83,257.2 109.83,257.2 117.21,261.44 117.21,263.85 109.83,259.62 109.83,259.61
						109.71,259.55 109.71,259.76 117.33,264.13 117.33,261.29 109.71,256.92 109.71,257.14 					"/>
				</g>
				<g>
					<polygon style="fill:#ECF0F1;" points="110.04,257.33 109.83,257.2 109.83,259.61 110.07,259.76 109.83,259.61 109.83,259.62
						117.21,263.85 117.21,261.44 109.83,257.2 109.83,257.2 					"/>
				</g>
				<g>
					<g>
						<g>
							<path style="fill:#ECF0F1;" d="M119.43,260.74v1.68c0,0.05-0.04,0.12-0.09,0.15c-0.04,0.03-0.08,0.01-0.08-0.05v-1.68
								c0-0.05,0.04-0.12,0.08-0.15C119.39,260.66,119.43,260.68,119.43,260.74z"/>
						</g>
					</g>
					<g>
						<g>
							<path style="fill:#ECF0F1;" d="M118.98,261v1.68c0,0.05-0.04,0.12-0.09,0.15c-0.05,0.03-0.08,0.01-0.08-0.05v-1.68
								c0-0.05,0.04-0.12,0.08-0.15C118.94,260.92,118.98,260.94,118.98,261z"/>
						</g>
					</g>
					<g>
						<g>
							<path style="fill:#ECF0F1;" d="M118.53,261.26v1.68c0,0.05-0.04,0.12-0.09,0.15c-0.05,0.03-0.08,0.01-0.08-0.05v-1.68
								c0-0.06,0.04-0.12,0.08-0.15C118.49,261.18,118.53,261.2,118.53,261.26z"/>
						</g>
					</g>
					<g>
						<g>
							<path style="fill:#ECF0F1;" d="M118.08,261.52v1.68c0,0.05-0.04,0.12-0.08,0.15c-0.05,0.03-0.09,0.01-0.09-0.05v-1.68
								c0-0.05,0.04-0.12,0.09-0.15C118.04,261.44,118.08,261.46,118.08,261.52z"/>
						</g>
					</g>
				</g>
			</g>
			<g>
				<g>
					<polygon style="fill:#878787;" points="109.71,256.92 120.81,250.55 128.43,254.92 117.33,261.29 					"/>
				</g>
			</g>
		</g>
	</g>
	<polygon style="fill:#F6F6F6;" points="58.02,260.53 98.05,237.08 98.05,185.67 99.25,184.29 99.48,237.57 58.02,261.61 	"/>
	<polygon style="fill:#F6F6F6;" points="107.5,231.46 147.85,208.11 147.85,156.03 148.88,155.44 148.97,208.85 107.5,232.89 	"/>
	<g>
		<defs>
			<path id="SVGID_226_" d="M208.4,194.91c0,0,3.3,5.89,9.1,4.2c3.17-0.93,3.58,7.75,3.58,7.75s-2.13,5.23-2.43,5.31
				s-10.25,0.77-10.25,0.77l-6.08-11.23l4.13-6.9L208.4,194.91z"/>
		</defs>
		<clipPath id="SVGID_6_">
			<use xlink:href="#SVGID_226_"  style="overflow:visible;"/>
		</clipPath>
	</g>
	<g>
		<g>
			<g>
				<g style="enable-background:new    ;">
					<path style="fill:#C6C6C6;" d="M227,360.31c-0.32,3.59-3.7,6.03-6.75,7.34c-3.32,1.43-6.97,2.01-10.57,1.96
						c-3.67-0.05-7.43-0.75-10.74-2.38c-2.89-1.42-5.96-4-5.95-7.51c-0.01,2.56,0.17,4.67,2.01,6.66c2.37,2.57,5.94,3.95,9.3,4.65
						c6.55,1.35,15.47,0.7,20.45-4.34c2-2.03,2.28-4.17,2.28-6.87C227.03,359.98,227.02,360.14,227,360.31z"/>
					<g>
						<path style="fill:#C6C6C6;" d="M222.01,352.79c6.67,3.85,6.71,10.09,0.09,13.94c-6.63,3.85-17.41,3.85-24.08,0
							c-6.67-3.85-6.7-10.09-0.07-13.94C204.57,348.94,215.34,348.94,222.01,352.79z"/>
					</g>
				</g>
			</g>
			<g>
				<g style="enable-background:new    ;">
					<g>
						<polygon style="fill:#B2B2B2;" points="213.05,345 213.01,359.88 210.4,361.4 210.45,346.52 						"/>
					</g>
					<g>
						<polygon style="fill:#878787;" points="210.45,346.52 210.4,361.4 207.78,359.88 207.83,345 						"/>
					</g>
					<g>
						<polygon style="fill:#878787;" points="213.05,345 210.45,346.52 207.83,345 210.43,343.49 						"/>
					</g>
				</g>
			</g>
		</g>
		<g>
			<path style="fill:#878787;" d="M182.68,295.83c0.08-2.06,2.12-3.46,4.07-2.78c8.51,2.98,28,10.05,29.26,12.56
				c1.19,2.39,5.05,15.72,6.95,22.4c0.55,1.93,2.77,2.81,4.5,1.8l11.78-6.95c2.24-1.32,5.01,0.58,4.58,3.14l-1.89,11.35
				c-0.15,0.91-0.7,1.7-1.5,2.15l-12.61,7.24c-7.05,4.05-15.65,4.3-22.92,0.66l-9.72-4.86c-8.5-4.25-13.73-13.07-13.39-22.57
				L182.68,295.83z"/>
		</g>
	</g>
	<polygon style="opacity:0.35;fill:#B17F4A;" points="151.96,153.68 151.86,210.08 147.85,208.85 147.85,156.03 	"/>
	<polygon style="opacity:0.35;fill:#B17F4A;" points="102.56,175.97 102.46,236.36 98.45,238.58 98.45,178.32 	"/>
	<g>
		<g>
			<g>
				<g>
					<g>
						<path style="fill:#1D1D1B;" d="M336.58,294.35c0.74,0.43,0.63,1.55-0.1,1.97l-18.23,10.59c-0.74,0.43-1.93,0.43-2.68,0
							l-12.32-7.12c-0.74-0.43-0.75-1.62-0.01-2.04l18.23-10.1c0.74-0.43,1.94-0.43,2.68,0L336.58,294.35z"/>
						<path style="fill:#1D1D1B;" d="M318.16,306.96c0.03-0.01,0.06-0.02,0.08-0.04l18.23-10.59c0.74-0.43,0.85-1.55,0.1-1.97
							l-5.93-3.19h-12.48V306.96z"/>
						<path style="fill:#1D1D1B;" d="M336.58,294.35l-0.25-0.14v2.2l0.15-0.09C337.21,295.9,337.32,294.78,336.58,294.35
							L336.58,294.35z"/>
						<path style="fill:#1D1D1B;" d="M303.24,299.81l12.32,7.12c0.19,0.11,0.41,0.19,0.65,0.24v-10.49H305.2l-1.96,1.09
							C302.5,298.19,302.5,299.38,303.24,299.81L303.24,299.81z"/>
						<path style="fill:#3C3C3B;" d="M303.9,297.4l-0.66,0.37c-0.74,0.43-0.73,1.62,0.01,2.04l0.65,0.38V297.4z"/>
					</g>
					<g>
						<defs>
							<path id="SVGID_228_" d="M321.47,287.17l-18.23,10.59c-0.74,0.43-0.73,1.12,0.01,1.55l12.32,7.12c0.74,0.43,1.94,0.43,2.68,0
								l18.23-10.59c0.74-0.43,0.73-1.12-0.01-1.55l-12.32-7.12c-0.37-0.21-0.85-0.32-1.34-0.32
								C322.32,286.85,321.83,286.95,321.47,287.17L321.47,287.17z"/>
						</defs>
						<use xlink:href="#SVGID_228_"  style="overflow:visible;fill:#3C3C3B;"/>
						<clipPath id="SVGID_8_">
							<use xlink:href="#SVGID_228_"  style="overflow:visible;"/>
						</clipPath>
						<rect x="302.5" y="286.85" style="clip-path:url(#SVGID_8_);fill:#706F6F;" width="34.71" height="20.01"/>
					</g>
					<g>
						<path style="fill:#1D1D1B;" d="M316.91,306.61c-0.48,0-0.93-0.11-1.27-0.3l-12.32-7.12c-0.31-0.18-0.49-0.42-0.49-0.66
							c0-0.24,0.17-0.47,0.48-0.65l18.23-10.59c0.34-0.19,0.79-0.3,1.27-0.3c0.48,0,0.93,0.11,1.27,0.3l12.32,7.12
							c0.31,0.18,0.49,0.41,0.49,0.66c0,0.24-0.17,0.47-0.48,0.65l-18.23,10.59C317.84,306.5,317.39,306.61,316.91,306.61
							L316.91,306.61z"/>
					</g>
					<g>
						<path style="fill:#0B1720;" d="M328.87,290.5c0.07,0.04,0.07,0.11,0,0.15l-0.04,0.02c-0.07,0.04-0.18,0.04-0.25,0l-0.04-0.02
							c-0.07-0.04-0.07-0.11,0-0.15l0.04-0.02c0.07-0.04,0.18-0.04,0.25,0L328.87,290.5z"/>
					</g>
				</g>
			</g>
			<g>
				<path style="fill:#9D9D9C;" d="M304.94,298.44c-0.09-0.05-0.09-0.13,0-0.18l17.22-10.01c0.09-0.05,0.23-0.05,0.32,0l11.9,6.82
					c0.09,0.05,0.09,0.13,0,0.18l-17.22,10.01c-0.09,0.05-0.23,0.05-0.31,0L304.94,298.44z"/>
			</g>
		</g>
	</g>
	<g>
		<g>
			<g>
				<g>
					<g>
						<path style="fill:#1D1D1B;" d="M264.85,290.19c0.74,0.43,0.63,1.55-0.1,1.97l-18.23,10.59c-0.74,0.43-1.93,0.43-2.68,0
							l-12.32-7.12c-0.74-0.43-0.75-1.62-0.01-2.04l18.23-10.1c0.74-0.43,1.94-0.43,2.68,0L264.85,290.19z"/>
						<path style="fill:#1D1D1B;" d="M246.44,302.79c0.03-0.01,0.06-0.02,0.08-0.04l18.23-10.59c0.74-0.43,0.85-1.55,0.1-1.97
							l-5.93-3.19h-12.48V302.79z"/>
						<path style="fill:#1D1D1B;" d="M264.85,290.19l-0.25-0.14v2.2l0.15-0.09C265.48,291.73,265.59,290.62,264.85,290.19
							L264.85,290.19z"/>
						<path style="fill:#1D1D1B;" d="M231.52,295.64l12.32,7.12c0.19,0.11,0.41,0.19,0.65,0.24v-10.49h-11.02l-1.96,1.09
							C230.77,294.02,230.78,295.21,231.52,295.64L231.52,295.64z"/>
						<path style="fill:#3C3C3B;" d="M232.17,293.23l-0.66,0.37c-0.74,0.43-0.73,1.62,0.01,2.04l0.65,0.38V293.23z"/>
					</g>
					<g>
						<defs>
							<path id="SVGID_230_" d="M249.74,283l-18.23,10.59c-0.74,0.43-0.73,1.12,0.01,1.55l12.32,7.12c0.74,0.43,1.94,0.43,2.68,0
								l18.23-10.59c0.74-0.43,0.73-1.12-0.01-1.55L252.41,283c-0.37-0.21-0.85-0.32-1.34-0.32
								C250.59,282.68,250.11,282.79,249.74,283L249.74,283z"/>
						</defs>
						<use xlink:href="#SVGID_230_"  style="overflow:visible;fill:#3C3C3B;"/>
						<clipPath id="SVGID_10_">
							<use xlink:href="#SVGID_230_"  style="overflow:visible;"/>
						</clipPath>
						<rect x="230.77" y="282.68" style="clip-path:url(#SVGID_10_);fill:#706F6F;" width="34.71" height="20.01"/>
					</g>
					<g>
						<path style="fill:#1D1D1B;" d="M245.18,302.44c-0.48,0-0.93-0.11-1.27-0.3l-12.32-7.12c-0.31-0.18-0.49-0.42-0.49-0.66
							c0-0.24,0.17-0.47,0.48-0.65l18.23-10.59c0.34-0.19,0.79-0.3,1.27-0.3c0.48,0,0.93,0.11,1.27,0.3l12.32,7.12
							c0.31,0.18,0.49,0.41,0.49,0.66c0,0.24-0.17,0.47-0.48,0.65l-18.23,10.59C246.11,302.33,245.66,302.44,245.18,302.44
							L245.18,302.44z"/>
					</g>
					<g>
						<path style="fill:#0B1720;" d="M257.14,286.33c0.07,0.04,0.07,0.11,0,0.15l-0.04,0.02c-0.07,0.04-0.18,0.04-0.25,0l-0.04-0.02
							c-0.07-0.04-0.07-0.11,0-0.15l0.04-0.02c0.07-0.04,0.18-0.04,0.25,0L257.14,286.33z"/>
					</g>
				</g>
			</g>
			<g>
				<path style="fill:#9D9D9C;" d="M233.21,294.27c-0.09-0.05-0.09-0.13,0-0.18l17.22-10.01c0.09-0.05,0.23-0.05,0.32,0l11.9,6.82
					c0.09,0.05,0.09,0.13,0,0.18l-17.22,10.01c-0.09,0.05-0.23,0.05-0.31,0L233.21,294.27z"/>
			</g>
		</g>
	</g>
	<path style="fill:#1D1D1B;" d="M154.83,182.69V92.81h-0.75v89.88c-0.55,0.2-0.95,0.82-0.95,1.56c0,0.9,0.6,1.63,1.33,1.63
		s1.33-0.73,1.33-1.63C155.78,183.51,155.38,182.89,154.83,182.69z"/>
	<path style="fill:#1D1D1B;" d="M104.81,211.63v-89.88h-0.75v89.88c-0.55,0.2-0.95,0.82-0.95,1.56c0,0.9,0.6,1.63,1.33,1.63
		s1.33-0.73,1.33-1.63C105.76,212.44,105.36,211.83,104.81,211.63z"/>
	<polygon style="opacity:0.35;fill:#706F6F;" points="107.5,202.23 103.07,204.17 102.38,119.4 107.5,116.4 	"/>
	<g>
		<g>
			<g>
				<g>
					<path style="fill:#3C3C3B;" d="M375.92,138.36c0,2.63-0.48,4.85-1.35,6.61c-0.87,1.76-2.12,3.06-3.66,3.84l-2.62,1.51
						c2.81-1.68,4.54-5.21,4.54-10.19c0-10.14-7.16-22.5-16-27.6c-4.27-2.47-8.15-2.79-11.02-1.31h0l2.56-1.47v0
						c2.91-1.81,7.01-1.61,11.56,1.01C368.75,115.86,375.92,128.21,375.92,138.36z"/>
					<path style="fill:#B2B2B2;" d="M371.39,148.51l-2.62,1.51c2.81-1.68,4.54-5.21,4.54-10.19c0-10.14-7.16-22.5-16-27.6
						c-4.19-2.42-8-2.77-10.86-1.39l-0.65,0.37h0c2.87-1.47,6.75-1.15,11.02,1.31c8.84,5.1,16,17.46,16,27.6
						c0,4.98-1.73,8.51-4.54,10.19l2.62-1.51c0.26-0.13,0.51-0.29,0.76-0.45C371.57,148.41,371.48,148.46,371.39,148.51z"/>
					<path style="fill:#FF9D9C;" d="M372.83,140.13c0,4.98-1.73,8.51-4.54,10.19l-0.21,0.12l-0.03,0.02v0l0.4-0.88
						c-2.47,0.36-5.39-0.29-8.53-2.1c-8.84-5.1-16-17.46-16-27.6c0-3.83,1.02-6.8,2.77-8.73l-0.88,0.07
						c2.87-1.47,6.75-1.15,11.02,1.31C365.66,117.63,372.83,129.99,372.83,140.13z"/>
					<path style="fill:#3C3C3B;" d="M372.83,140.13c0,4.98-1.73,8.51-4.54,10.19l-0.21,0.12c-0.01,0.01-0.02,0.01-0.03,0.01v0
						c-2.89,1.59-6.85,1.32-11.22-1.21c-8.84-5.1-16-17.46-16-27.6c0-5.24,1.91-8.86,4.98-10.44c2.87-1.47,6.75-1.15,11.02,1.31
						C365.66,117.63,372.83,129.99,372.83,140.13z"/>

						<ellipse transform="matrix(0.8633 -0.5047 0.5047 0.8633 -17.2813 197.9772)" style="fill:#F6F6F6;" cx="356.83" cy="130.89" rx="10.67" ry="18.49"/>
					<path style="fill:#575756;" d="M368.5,137.74c-0.31-0.18-0.57-0.62-0.57-0.98c0-0.36,0.25-0.51,0.57-0.32
						c0.31,0.18,0.57,0.62,0.57,0.98C369.07,137.77,368.82,137.92,368.5,137.74z"/>
					<g>
						<path style="fill:#66462D;" d="M367.31,136.46c0.03,0.05,0.05,0.1,0.07,0.16c0.02,0.06,0.03,0.12,0.03,0.2
							c0,0.07-0.01,0.13-0.03,0.18c-0.02,0.05-0.06,0.08-0.1,0.1c-0.05,0.02-0.1,0.03-0.16,0.02c-0.06-0.01-0.13-0.04-0.21-0.08
							c-0.08-0.04-0.15-0.1-0.23-0.16c-0.07-0.06-0.13-0.12-0.18-0.17v-0.22l0.01,0.01c0.05,0.07,0.11,0.14,0.18,0.21
							c0.07,0.07,0.14,0.12,0.21,0.16c0.04,0.02,0.08,0.04,0.12,0.05c0.04,0.01,0.08,0.01,0.11-0.01c0.03-0.01,0.05-0.04,0.06-0.07
							c0.01-0.03,0.02-0.07,0.02-0.13c0-0.06-0.01-0.11-0.02-0.16c-0.02-0.05-0.04-0.09-0.07-0.13c-0.03-0.04-0.06-0.07-0.1-0.1
							c-0.04-0.03-0.08-0.06-0.13-0.09l-0.08-0.05v-0.18l0.06,0.04c0.09,0.05,0.17,0.07,0.22,0.06s0.08-0.06,0.08-0.15
							c0-0.04-0.01-0.08-0.02-0.11c-0.01-0.04-0.03-0.07-0.06-0.11c-0.03-0.03-0.05-0.06-0.09-0.09c-0.03-0.02-0.06-0.05-0.1-0.07
							c-0.06-0.03-0.12-0.06-0.19-0.07c-0.07-0.01-0.13-0.02-0.19-0.01l-0.01-0.01v-0.22c0.04,0,0.1,0.01,0.18,0.03
							c0.07,0.02,0.14,0.05,0.21,0.09c0.07,0.04,0.13,0.08,0.18,0.12c0.05,0.04,0.1,0.09,0.14,0.15c0.04,0.06,0.08,0.12,0.1,0.18
							c0.02,0.06,0.03,0.13,0.03,0.19c0,0.09-0.03,0.15-0.08,0.18c-0.05,0.04-0.12,0.04-0.19,0.01v0.01
							c0.03,0.02,0.06,0.05,0.1,0.09C367.25,136.38,367.29,136.42,367.31,136.46z"/>
					</g>
					<path style="fill:#878787;" d="M357.55,145.45c-7.24-4.18-13.11-14.31-13.11-22.62c0-3.7,1.16-6.41,3.09-7.92
						c-2.36,1.36-3.82,4.27-3.82,8.41c0,8.31,5.87,18.44,13.11,22.62c4.02,2.32,7.61,2.32,10.02,0.44
						C364.47,147.75,361.18,147.54,357.55,145.45z"/>
					<g>
						<path style="fill:#706F6F;" d="M356.98,145.8c-7.24-4.18-13.11-14.31-13.11-22.62c0-3.53,1.06-6.16,2.83-7.7
							c-1.86,1.52-2.99,4.2-2.99,7.83c0,8.31,5.87,18.44,13.11,22.62c4.02,2.32,7.61,2.32,10.02,0.44c-0.03,0.02-0.07,0.03-0.1,0.05
							C364.34,148.12,360.86,148.04,356.98,145.8z"/>
						<path style="fill:#FFFFFF;" d="M347.53,114.91c-0.01,0.01-0.02,0.01-0.03,0.02c-0.07,0.06-0.15,0.13-0.22,0.19
							C347.37,115.05,347.45,114.98,347.53,114.91z"/>
					</g>
				</g>
				<g>
					<path style="fill:#575756;" d="M357.95,131c0,0.49-0.35,0.69-0.78,0.44c-0.43-0.25-0.78-0.85-0.78-1.34
						c0-0.49,0.35-0.69,0.78-0.44C357.6,129.9,357.95,130.5,357.95,131z"/>
					<path style="fill:#9D9D9C;" d="M357.69,131.17c0,0.49-0.35,0.69-0.78,0.44c-0.43-0.25-0.78-0.85-0.78-1.34
						c0-0.49,0.35-0.69,0.78-0.44C357.34,130.07,357.69,130.67,357.69,131.17z"/>
					<path style="fill:#575756;" d="M357.74,117.87c0,0.36-0.25,0.5-0.57,0.32c-0.31-0.18-0.57-0.62-0.57-0.98s0.25-0.5,0.57-0.32
						C357.48,117.07,357.74,117.51,357.74,117.87z"/>
					<path style="fill:#575756;" d="M363.33,123.16c-0.16,0.22-0.5,0.13-0.78-0.21c-0.27-0.34-0.36-0.79-0.21-1.01
						c0.16-0.22,0.5-0.13,0.78,0.21C363.39,122.49,363.48,122.94,363.33,123.16z"/>
					<path style="fill:#575756;" d="M367.27,130.44c-0.27,0.02-0.62-0.28-0.78-0.69c-0.16-0.4-0.06-0.75,0.21-0.77
						c0.27-0.02,0.62,0.28,0.78,0.69C367.63,130.07,367.54,130.41,367.27,130.44z"/>
					<path style="fill:#575756;" d="M366.7,143.12c-0.27-0.34-0.36-0.79-0.21-1.01c0.16-0.22,0.5-0.13,0.78,0.21
						c0.27,0.34,0.37,0.79,0.21,1.01C367.32,143.55,366.97,143.45,366.7,143.12z"/>
					<path style="fill:#575756;" d="M362.35,145.13c-0.16-0.4-0.06-0.75,0.21-0.77c0.27-0.02,0.62,0.28,0.78,0.69
						c0.16,0.4,0.06,0.75-0.21,0.77C362.85,145.83,362.51,145.53,362.35,145.13z"/>
					<path style="fill:#575756;" d="M356.61,143.23c0-0.36,0.25-0.51,0.57-0.32c0.31,0.18,0.57,0.62,0.57,0.98
						c0,0.36-0.25,0.51-0.57,0.32C356.86,144.03,356.61,143.59,356.61,143.23z"/>
					<path style="fill:#575756;" d="M351.02,137.94c0.16-0.22,0.5-0.13,0.78,0.21c0.27,0.34,0.37,0.79,0.21,1.01
						c-0.16,0.22-0.5,0.13-0.78-0.21C350.95,138.61,350.86,138.16,351.02,137.94z"/>
					<path style="fill:#575756;" d="M347.07,130.67c0.27-0.02,0.62,0.28,0.78,0.69c0.16,0.4,0.06,0.75-0.21,0.77
						c-0.27,0.02-0.62-0.28-0.78-0.69C346.71,131.04,346.8,130.69,347.07,130.67z"/>
					<path style="fill:#575756;" d="M345.83,123.37c0.31,0.18,0.57,0.62,0.57,0.98c0,0.36-0.25,0.51-0.57,0.32
						c-0.31-0.18-0.57-0.62-0.57-0.98C345.27,123.33,345.52,123.18,345.83,123.37z"/>
					<path style="fill:#575756;" d="M347.63,117.99c0.27,0.34,0.37,0.79,0.21,1.01c-0.16,0.22-0.5,0.13-0.78-0.21
						c-0.27-0.34-0.37-0.79-0.21-1.01C347.01,117.56,347.36,117.65,347.63,117.99z"/>
					<path style="fill:#575756;" d="M351.98,115.97c0.16,0.4,0.06,0.75-0.21,0.77c-0.27,0.02-0.62-0.28-0.78-0.69
						c-0.16-0.4-0.06-0.75,0.21-0.77C351.47,115.26,351.82,115.57,351.98,115.97z"/>
					<g>
						<path style="fill:#66462D;" d="M356.94,120.38l-0.74-0.43v-0.16l0.29,0.17v-1.07l-0.29-0.17v-0.15
							c0.04,0.02,0.08,0.04,0.12,0.06c0.04,0.02,0.08,0.03,0.1,0.03c0.03,0,0.05-0.01,0.07-0.03c0.02-0.02,0.03-0.05,0.03-0.09
							l0.14,0.08v1.44l0.28,0.16V120.38z"/>
						<path style="fill:#66462D;" d="M358.22,121.12l-0.93-0.54v-0.22c0.06-0.03,0.13-0.05,0.19-0.08c0.06-0.03,0.13-0.06,0.18-0.09
							c0.12-0.06,0.2-0.12,0.24-0.18c0.04-0.05,0.07-0.12,0.07-0.21c0-0.08-0.02-0.16-0.07-0.24c-0.05-0.07-0.11-0.14-0.2-0.18
							c-0.06-0.03-0.12-0.06-0.18-0.07c-0.07-0.01-0.13-0.02-0.19-0.01l-0.01-0.01v-0.22c0.04,0,0.1,0.01,0.18,0.03
							c0.07,0.02,0.14,0.05,0.21,0.09c0.14,0.08,0.25,0.18,0.33,0.31c0.08,0.13,0.12,0.26,0.12,0.39c0,0.06-0.01,0.11-0.02,0.16
							c-0.01,0.04-0.03,0.08-0.06,0.12c-0.02,0.03-0.05,0.06-0.08,0.08c-0.03,0.02-0.07,0.05-0.12,0.07
							c-0.07,0.04-0.13,0.07-0.2,0.1c-0.07,0.03-0.14,0.06-0.2,0.08l0.74,0.43V121.12z"/>
					</g>
					<g>
						<path style="fill:#66462D;" d="M362.66,125.16l-0.74-0.43v-0.16l0.29,0.17v-1.07l-0.29-0.17v-0.15
							c0.04,0.02,0.08,0.04,0.12,0.06c0.04,0.02,0.08,0.03,0.1,0.03c0.03,0,0.05-0.01,0.07-0.03c0.02-0.02,0.03-0.05,0.03-0.09
							l0.14,0.08v1.44l0.28,0.16V125.16z"/>
					</g>
					<g>
						<path style="fill:#66462D;" d="M365.78,130.42l-0.93-0.54v-0.22c0.06-0.03,0.13-0.05,0.19-0.08c0.07-0.03,0.13-0.06,0.18-0.09
							c0.12-0.06,0.2-0.12,0.24-0.18c0.04-0.05,0.07-0.12,0.07-0.21c0-0.08-0.02-0.16-0.07-0.24c-0.05-0.07-0.11-0.14-0.2-0.18
							c-0.06-0.03-0.12-0.06-0.18-0.07c-0.07-0.01-0.13-0.02-0.19-0.01l-0.01-0.01v-0.22c0.04,0,0.1,0.01,0.18,0.03
							c0.07,0.02,0.14,0.05,0.21,0.09c0.14,0.08,0.25,0.18,0.33,0.31c0.08,0.13,0.12,0.26,0.12,0.39c0,0.06-0.01,0.11-0.02,0.16
							c-0.01,0.04-0.03,0.08-0.06,0.12c-0.02,0.03-0.05,0.06-0.08,0.08c-0.03,0.02-0.07,0.05-0.12,0.07
							c-0.07,0.04-0.13,0.07-0.2,0.1c-0.07,0.03-0.14,0.06-0.2,0.08l0.74,0.43V130.42z"/>
					</g>
					<g>
						<path style="fill:#66462D;" d="M348.06,125.22c0,0.14-0.01,0.26-0.04,0.36c-0.03,0.1-0.07,0.17-0.12,0.22
							c-0.06,0.05-0.13,0.07-0.21,0.07c-0.08,0-0.18-0.04-0.3-0.11c-0.03-0.02-0.06-0.04-0.09-0.06c-0.03-0.02-0.05-0.04-0.08-0.06
							v-0.2l0.01,0.01c0.02,0.02,0.04,0.05,0.08,0.07c0.03,0.03,0.07,0.05,0.11,0.08c0.14,0.08,0.24,0.09,0.32,0.04
							c0.08-0.05,0.12-0.15,0.13-0.31c-0.06,0.01-0.11,0-0.16-0.01c-0.05-0.01-0.11-0.04-0.17-0.07c-0.06-0.03-0.11-0.07-0.15-0.11
							c-0.05-0.04-0.09-0.09-0.14-0.15c-0.05-0.07-0.09-0.15-0.12-0.24c-0.03-0.08-0.04-0.17-0.04-0.26c0-0.16,0.05-0.27,0.14-0.32
							c0.09-0.05,0.21-0.04,0.34,0.04c0.07,0.04,0.13,0.09,0.19,0.14c0.06,0.06,0.11,0.12,0.15,0.19c0.05,0.09,0.09,0.19,0.12,0.3
							C348.04,124.94,348.06,125.07,348.06,125.22z M347.87,125.07c0-0.11-0.01-0.21-0.03-0.28c-0.02-0.08-0.05-0.15-0.08-0.2
							c-0.03-0.05-0.06-0.09-0.09-0.12c-0.03-0.03-0.07-0.06-0.11-0.08c-0.09-0.05-0.16-0.06-0.21-0.03
							c-0.05,0.03-0.08,0.11-0.08,0.23c0,0.07,0.01,0.13,0.02,0.18c0.02,0.05,0.04,0.11,0.08,0.16c0.03,0.04,0.06,0.07,0.09,0.1
							c0.03,0.03,0.07,0.05,0.11,0.08c0.05,0.03,0.1,0.05,0.15,0.06c0.05,0.01,0.1,0.02,0.14,0.01c0-0.01,0-0.03,0-0.04
							C347.87,125.11,347.87,125.09,347.87,125.07z"/>
					</g>
					<g>
						<path style="fill:#66462D;" d="M349.27,120.89l-0.74-0.43v-0.16l0.29,0.17v-1.07l-0.29-0.17v-0.15
							c0.04,0.02,0.08,0.04,0.12,0.06c0.04,0.02,0.08,0.03,0.1,0.03c0.03,0,0.05-0.01,0.07-0.03c0.02-0.02,0.03-0.05,0.03-0.09
							l0.14,0.08v1.44l0.28,0.16V120.89z"/>
						<path style="fill:#66462D;" d="M350.55,120.83c0,0.29-0.04,0.47-0.12,0.56c-0.08,0.09-0.2,0.09-0.36-0.01
							c-0.16-0.1-0.29-0.23-0.36-0.41c-0.08-0.18-0.11-0.41-0.11-0.69c0-0.28,0.04-0.47,0.11-0.56c0.08-0.09,0.2-0.09,0.36,0.01
							c0.16,0.1,0.29,0.23,0.36,0.41C350.51,120.33,350.55,120.56,350.55,120.83z M350.31,121.18c0.02-0.05,0.04-0.11,0.04-0.18
							c0.01-0.07,0.01-0.17,0.01-0.28c0-0.11,0-0.2-0.01-0.29c-0.01-0.08-0.02-0.16-0.04-0.23c-0.02-0.07-0.05-0.13-0.09-0.17
							c-0.04-0.05-0.08-0.09-0.14-0.12c-0.06-0.03-0.11-0.05-0.14-0.04c-0.04,0.01-0.07,0.03-0.09,0.07
							c-0.02,0.04-0.04,0.1-0.04,0.18c-0.01,0.08-0.01,0.17-0.01,0.27c0,0.11,0,0.21,0.01,0.29c0.01,0.08,0.02,0.15,0.04,0.23
							c0.02,0.07,0.05,0.13,0.09,0.18c0.04,0.05,0.09,0.09,0.15,0.13c0.06,0.03,0.11,0.05,0.14,0.04
							C350.26,121.25,350.29,121.22,350.31,121.18z"/>
					</g>
					<g>
						<path style="fill:#66462D;" d="M352.29,119.26l-0.74-0.43v-0.16l0.29,0.17v-1.07l-0.29-0.17v-0.15
							c0.04,0.02,0.08,0.04,0.12,0.06c0.04,0.02,0.08,0.03,0.1,0.03c0.03,0,0.05-0.01,0.07-0.03c0.02-0.02,0.03-0.05,0.03-0.09
							l0.14,0.08v1.44l0.28,0.16V119.26z"/>
						<path style="fill:#66462D;" d="M353.49,119.95l-0.74-0.43v-0.16l0.29,0.17v-1.07l-0.29-0.17v-0.15
							c0.04,0.02,0.08,0.04,0.12,0.06c0.04,0.02,0.08,0.03,0.1,0.03c0.03,0,0.05-0.01,0.07-0.03c0.02-0.02,0.03-0.05,0.03-0.09
							l0.14,0.08v1.44l0.28,0.16V119.95z"/>
					</g>
					<g>
						<path style="fill:#66462D;" d="M365.98,141.45l-0.2-0.12v0.45l-0.18-0.1v-0.45l-0.66-0.38v-0.25l0.67-0.51l0.17,0.1v0.97
							l0.2,0.12V141.45z M365.59,141.06v-0.72l-0.53,0.41L365.59,141.06z"/>
					</g>
					<g>
						<path style="fill:#66462D;" d="M362.73,143.02c0,0.07-0.01,0.14-0.04,0.19c-0.02,0.05-0.06,0.09-0.1,0.12
							c-0.04,0.02-0.1,0.03-0.16,0.02c-0.06-0.01-0.13-0.04-0.21-0.08c-0.08-0.04-0.15-0.09-0.22-0.15
							c-0.07-0.06-0.13-0.11-0.18-0.17v-0.23l0.01,0.01c0.05,0.07,0.11,0.13,0.18,0.2c0.07,0.07,0.13,0.12,0.2,0.15
							c0.04,0.03,0.09,0.04,0.13,0.05c0.04,0.01,0.08,0.01,0.11-0.01c0.03-0.02,0.05-0.04,0.06-0.07c0.01-0.03,0.02-0.08,0.02-0.14
							c0-0.06-0.01-0.11-0.02-0.15c-0.02-0.05-0.04-0.09-0.07-0.13c-0.03-0.05-0.07-0.09-0.12-0.12c-0.05-0.04-0.1-0.07-0.15-0.11
							c-0.05-0.03-0.11-0.06-0.16-0.08c-0.05-0.02-0.09-0.04-0.13-0.05v-0.82l0.83,0.48v0.19l-0.65-0.37v0.42
							c0.03,0.01,0.05,0.03,0.08,0.04c0.03,0.01,0.05,0.03,0.07,0.04c0.07,0.04,0.14,0.09,0.2,0.14c0.06,0.05,0.11,0.1,0.15,0.17
							c0.05,0.07,0.09,0.14,0.11,0.22C362.72,142.84,362.73,142.93,362.73,143.02z"/>
					</g>
					<g>
						<path style="fill:#66462D;" d="M357.73,142.26c0,0.16-0.05,0.27-0.14,0.32c-0.09,0.05-0.2,0.04-0.34-0.04
							c-0.07-0.04-0.13-0.09-0.18-0.14c-0.06-0.06-0.1-0.12-0.15-0.19c-0.05-0.09-0.09-0.19-0.12-0.31
							c-0.03-0.11-0.04-0.24-0.04-0.38c0-0.14,0.01-0.26,0.04-0.35c0.03-0.09,0.07-0.17,0.12-0.22c0.05-0.05,0.12-0.07,0.21-0.07
							c0.09,0,0.19,0.04,0.3,0.11c0.04,0.02,0.07,0.04,0.09,0.06c0.02,0.02,0.05,0.04,0.08,0.06v0.2l-0.01-0.01
							c-0.02-0.02-0.04-0.05-0.08-0.08c-0.04-0.03-0.07-0.05-0.11-0.08c-0.13-0.08-0.24-0.09-0.32-0.04
							c-0.08,0.05-0.13,0.15-0.14,0.31c0.05-0.01,0.1,0,0.15,0.01c0.05,0.01,0.11,0.03,0.17,0.07c0.06,0.03,0.11,0.07,0.15,0.11
							c0.04,0.04,0.09,0.09,0.14,0.15c0.05,0.07,0.09,0.15,0.12,0.24C357.71,142.07,357.73,142.16,357.73,142.26z M357.54,142.16
							c0-0.07-0.01-0.13-0.03-0.18c-0.02-0.05-0.04-0.11-0.08-0.16c-0.03-0.04-0.06-0.07-0.09-0.1c-0.04-0.03-0.07-0.05-0.11-0.07
							c-0.05-0.03-0.1-0.05-0.15-0.06c-0.04-0.01-0.09-0.02-0.14-0.01c0,0.01,0,0.03,0,0.04c0,0.01,0,0.03,0,0.05
							c0,0.11,0.01,0.21,0.03,0.28c0.02,0.08,0.05,0.14,0.08,0.2c0.03,0.05,0.06,0.09,0.09,0.12c0.03,0.03,0.07,0.06,0.11,0.08
							c0.09,0.05,0.16,0.06,0.21,0.03C357.51,142.35,357.54,142.27,357.54,142.16z"/>
					</g>
					<g>
						<path style="fill:#66462D;" d="M353.05,137.04l-0.62,0.99l-0.2-0.11l0.66-1.02l-0.78-0.45v-0.19l0.94,0.54V137.04z"/>
					</g>
					<g>
						<path style="fill:#66462D;" d="M349.64,132.4c0,0.14-0.05,0.23-0.14,0.26c-0.09,0.04-0.21,0.02-0.35-0.07
							c-0.15-0.09-0.27-0.2-0.36-0.34c-0.09-0.14-0.13-0.28-0.13-0.42c0-0.09,0.02-0.16,0.07-0.2c0.04-0.05,0.11-0.07,0.19-0.06
							v-0.01c-0.07-0.09-0.13-0.17-0.16-0.24c-0.04-0.07-0.05-0.15-0.05-0.23c0-0.12,0.04-0.2,0.13-0.23
							c0.09-0.03,0.19-0.01,0.32,0.07c0.14,0.08,0.25,0.18,0.33,0.3c0.08,0.12,0.12,0.24,0.12,0.36c0,0.07-0.02,0.13-0.06,0.18
							c-0.04,0.05-0.1,0.07-0.17,0.06v0.01c0.09,0.09,0.15,0.18,0.2,0.27C349.62,132.21,349.64,132.3,349.64,132.4z M349.45,132.31
							c0-0.07-0.01-0.13-0.04-0.18c-0.02-0.05-0.07-0.12-0.15-0.2c-0.03-0.03-0.06-0.07-0.1-0.1c-0.03-0.03-0.08-0.08-0.14-0.14
							c-0.06,0-0.1,0.02-0.13,0.07c-0.03,0.04-0.05,0.1-0.05,0.17c0,0.1,0.03,0.19,0.09,0.29c0.06,0.1,0.13,0.17,0.22,0.22
							c0.09,0.05,0.16,0.07,0.22,0.04C349.42,132.46,349.45,132.4,349.45,132.31z M349.42,131.49c0-0.08-0.03-0.15-0.08-0.23
							c-0.05-0.07-0.12-0.14-0.19-0.18c-0.08-0.04-0.14-0.06-0.19-0.05c-0.05,0.01-0.07,0.06-0.07,0.13c0,0.05,0.01,0.1,0.04,0.16
							c0.02,0.05,0.06,0.11,0.11,0.17c0.02,0.03,0.06,0.06,0.1,0.11c0.04,0.05,0.08,0.09,0.13,0.12c0.06-0.01,0.1-0.04,0.13-0.07
							C349.41,131.61,349.42,131.56,349.42,131.49z"/>
					</g>
				</g>
				<path style="fill:#C6C6C6;" d="M345.02,125.9c0-8.31,5.87-11.66,13.11-7.48c3.71,2.14,7.06,5.84,9.44,10.06
					c-2.37-5.26-6.3-10.07-10.75-12.64c-7.24-4.18-13.11-0.83-13.11,7.48c0,4.05,1.4,8.54,3.67,12.56
					C345.9,132.58,345.02,129.1,345.02,125.9z"/>
			</g>
		</g>
	</g>
	<g>
		<g>
			<g>
				<polygon style="fill:#DADADA;" points="446.22,308.53 433.31,315.98 420.32,308.48 432.02,301.73 432.61,301.39 433.23,301.03
					434.8,301.93 434.99,302.04 436.32,302.81 437.05,303.23 438.74,304.21 438.8,304.24 440.59,305.27 441.71,305.92 444.28,307.4
									"/>
				<polygon style="fill:#1D1D1B;" points="443.69,308.53 433.31,314.52 433.27,314.49 422.85,308.48 433.23,302.49 433.27,302.52
									"/>
				<polygon style="fill:#9D9D9C;" points="433.29,327.9 433.31,315.98 446.22,308.53 439.21,324.48 				"/>
				<polygon style="fill:#C6C6C6;" points="420.32,308.48 427.33,324.46 433.29,327.9 433.31,315.98 				"/>
			</g>
			<g>
				<g>
					<path style="fill:#706F6F;" d="M428.07,309.83c-0.43-0.12-0.84-0.31-1.21-0.55c-1.44-0.92-2.39-2.61-2.81-4.32
						c-0.06-0.26-0.12-0.51-0.16-0.77c-0.35-1.9-0.32-3.87-0.59-5.79c-0.65-4.48-3.08-8.67-6.64-11.45
						c2.19,0.96,4.39,2.12,6.13,3.72c0.66,0.61,1.26,1.28,1.77,2.03c0.06,0.09,0.12,0.19,0.18,0.28c1.46,2.33,1.9,5.14,2.09,7.88
						c0.19,2.74,0.18,5.52,0.84,8.19L428.07,309.83z"/>
					<path style="fill:#9D9D9C;" d="M426.87,309.28c-1.44-0.92-2.39-2.61-2.81-4.32c-0.53-2.14-0.44-4.38-0.76-6.56
						c-0.65-4.48-3.08-8.67-6.64-11.45c3.03,1.32,6.06,3.03,7.9,5.76c0.91,4.51-0.81,9.49,0.93,13.78
						C425.87,307.44,426.43,308.34,426.87,309.28z"/>
					<path style="fill:#EDEDED;" d="M424.17,299.73c-0.09,1.49-0.19,2.98-0.28,4.47c-0.35-1.9-0.32-3.87-0.59-5.79
						c-0.65-4.48-3.08-8.67-6.64-11.45c2.19,0.96,4.39,2.12,6.13,3.72c0.81,1.23,1.23,2.7,1.4,4.17
						C424.37,296.46,424.27,298.1,424.17,299.73z"/>
				</g>
			</g>
			<g>
				<path style="fill:#706F6F;" d="M432.53,312.7c-0.14,0.03-0.28,0.02-0.43,0c-1.41-0.19-2.57-1.3-3.17-2.6
					c-0.29-0.62-0.47-1.28-0.58-1.96c-0.12-0.73-0.17-1.48-0.19-2.22c-0.14-4.76,0.57-9.52,0.36-14.27
					c-0.21-4.76-1.49-9.73-4.9-13.05c1.99,0.92,3.42,2.74,4.61,4.59c0.93,1.44,1.78,2.96,2.31,4.59c0.03,0.1,0.06,0.2,0.09,0.3
					c1.84,6.3-1.3,13.17-0.16,19.66c0.23,1.28,0.63,2.55,1.28,3.68L432.53,312.7z"/>
				<path style="fill:#9D9D9C;" d="M430.19,297.28c-0.67,3.62-1.63,7.22-1.84,10.88c-0.12-0.73-0.17-1.48-0.19-2.22
					c-0.11-3.69,0.3-7.38,0.38-11.07c0.03-1.07,0.03-2.14-0.02-3.21c-0.21-4.76-1.49-9.73-4.9-13.05c1.8,0.83,3.14,2.4,4.26,4.05
					c0.12,0.18,0.24,0.35,0.35,0.53c0.93,1.44,1.78,2.96,2.31,4.59c0.03,0.1,0.06,0.2,0.09,0.3
					C431.09,291.1,430.75,294.25,430.19,297.28z"/>
				<path style="fill:#EDEDED;" d="M429.29,289c-0.03,1.22-0.22,2.43-0.4,3.63c-0.11,0.75-0.23,1.49-0.35,2.24
					c0.03-1.07,0.03-2.14-0.02-3.21c-0.21-4.76-1.49-9.73-4.9-13.05c1.8,0.83,3.14,2.4,4.26,4.05
					C428.89,284.59,429.35,286.82,429.29,289z"/>
			</g>
			<g>
				<path style="fill:#706F6F;" d="M435.07,296.94c-0.3,4.18-0.31,8.35-0.85,12.5c-0.05,0.41-0.55,1.64-0.37,1.99
					c-1.25-2.35-1.72-5.04-1.82-7.7c0-0.06,0-0.12-0.01-0.18c-0.08-2.72,0.2-5.43,0.34-8.15c0.15-3.06,0.12-6.14-0.18-9.19
					c-0.34-3.48-1.05-6.99-2.71-10.08c-0.86-1.61-1.97-3.09-2.63-4.8c1.64,0.86,2.76,2.43,3.81,3.95c0.61,0.88,1.23,1.78,1.82,2.69
					c1.33,2.08,2.48,4.27,3,6.67C436.36,288.67,435.36,292.83,435.07,296.94z"/>
				<path style="fill:#9D9D9C;" d="M433.68,292.7c-0.22,3.72-0.64,7.46-1.65,11.03c0-0.06,0-0.12-0.01-0.18
					c-0.08-2.72,0.2-5.43,0.34-8.15c0.15-3.06,0.12-6.14-0.18-9.19c0-0.02,0-0.03-0.01-0.05c-0.34-3.47-1.05-6.96-2.7-10.02
					c-0.86-1.61-1.97-3.09-2.63-4.8c1.64,0.86,2.76,2.43,3.81,3.95c0.31,0.44,0.61,0.89,0.92,1.33c0.3,0.45,0.6,0.9,0.9,1.36
					c0.43,0.92,0.79,1.86,1,2.85c0.26,1.21,0.31,2.45,0.34,3.69C433.88,287.25,433.84,289.97,433.68,292.7z"/>
				<path style="fill:#EDEDED;" d="M432.18,286.17c-0.34-3.47-1.05-6.96-2.7-10.02c-0.86-1.61-1.97-3.09-2.63-4.8
					c1.64,0.86,2.76,2.43,3.81,3.95c0.31,0.44,0.61,0.89,0.92,1.33c0.59,1.53,0.84,3.21,0.87,4.85
					C432.48,283.05,432.34,284.61,432.18,286.17z"/>
			</g>
			<g>
				<g>
					<path style="fill:#706F6F;" d="M443.76,275.87c-1.01,4.63-4.06,8.62-5.14,13.24c-0.44,1.9-0.55,3.85-0.64,5.8
						c-0.18,3.52-0.36,7.05-0.53,10.58c-0.06,1.25-0.13,2.5-0.36,3.73c-0.11,0.57-0.32,1.13-0.42,1.7
						c-0.06,0.35-0.14,0.67-0.27,1.01c-0.01,0.01-0.01,0.03-0.02,0.04c-0.03,0.02-0.08,0-0.1-0.03c-0.29-0.41-0.23-1.19-0.25-1.68
						c-0.02-0.61-0.01-1.23-0.04-1.85c-0.03-0.58-0.06-1.16-0.09-1.74c0,0,0-0.01,0-0.01c-0.3-6.36-0.25-12.83,1.58-18.98
						c1.19-4,3.14-7.77,5.69-11.06C443.36,276.36,443.55,276.11,443.76,275.87z"/>
					<path style="fill:#9D9D9C;" d="M443.16,276.61c-0.43,1.08-0.87,2.15-1.3,3.23c-0.48,1.18-0.95,2.37-1.54,3.5
						c-0.82,1.58-1.84,3.06-2.46,4.72c-0.73,1.98-0.84,4.13-0.97,6.23c-0.25,4.13-0.58,8.24-1.01,12.35
						c-0.3-6.36-0.25-12.83,1.58-18.98c0-0.01,0.01-0.01,0.01-0.02c1.08-3.61,2.77-7.04,4.98-10.09
						C442.68,277.24,442.92,276.92,443.16,276.61z"/>
					<path style="fill:#EDEDED;" d="M442.46,277.56c-1.1,1.98-2.07,4.03-2.91,6.13c-0.19,0.49-0.38,0.98-0.63,1.44
						c-0.23,0.42-0.5,0.81-0.75,1.22c-0.26,0.42-0.48,0.86-0.69,1.31C438.56,284.04,440.25,280.62,442.46,277.56z"/>
				</g>
			</g>
			<g>
				<g>
					<path style="fill:#706F6F;" d="M449.67,288.06c-3.57,2.78-6,6.98-6.64,11.45c-0.31,2.18-0.22,4.43-0.76,6.56
						c-0.53,2.13-1.88,4.24-3.97,4.85c-0.02,0.01-0.03,0.01-0.05,0.01l0.4-0.77c0.66-2.67,0.65-5.45,0.84-8.19
						c0.19-2.74,0.64-5.55,2.09-7.88c1.22-1.95,3.04-3.39,5.06-4.54C447.62,289,448.64,288.5,449.67,288.06z"/>
					<path style="fill:#9D9D9C;" d="M446.64,289.56c-0.28,0.24-0.56,0.48-0.83,0.73c-2.11,1.94-3.94,4.37-4.45,7.19
						c-0.22,1.22-0.18,2.47-0.27,3.71c-0.19,2.55-0.94,5.02-1.68,7.47c-0.23,0.76-0.48,1.56-1.03,2.13l-0.09,0.13
						c-0.02,0.01-0.03,0.01-0.05,0.01l0.4-0.77c0.62-2.47,0.65-5.04,0.8-7.58l0.04-0.61c0.19-2.74,0.64-5.55,2.09-7.88
						c0.9-1.45,2.14-2.61,3.55-3.59C445.62,290.17,446.12,289.85,446.64,289.56z"/>
					<path style="fill:#EDEDED;" d="M445.13,290.51c-0.39,0.41-0.78,0.82-1.17,1.23c-0.41,0.43-0.82,0.87-1.19,1.34
						c-0.97,1.24-1.62,2.71-2.08,4.22c-0.46,1.51-0.75,3.06-1.07,4.61c-0.05,0.23-0.1,0.46-0.16,0.68l0.04-0.61
						c0.19-2.74,0.64-5.55,2.09-7.88C442.49,292.65,443.73,291.48,445.13,290.51z"/>
				</g>
			</g>
		</g>
	</g>
	<g>
		<g>
			<g>
				<polygon style="fill:#F6F6F6;" points="61.67,258.23 107.01,232.27 102.73,229.8 57.39,255.76 				"/>
				<polygon style="fill:#9D9D9C;" points="57.39,257.16 57.39,255.76 61.67,258.23 61.67,259.64 				"/>
				<polygon style="fill:#B2B2B2;" points="107.01,232.27 107.01,233.68 61.67,259.64 61.67,258.23 				"/>
			</g>
			<g>
				<polygon style="fill:#F6F6F6;" points="61.67,253.63 107.01,227.67 102.73,225.2 57.39,251.16 				"/>
				<polygon style="fill:#9D9D9C;" points="57.39,252.56 57.39,251.16 61.67,253.63 61.67,255.04 				"/>
				<polygon style="fill:#B2B2B2;" points="107.01,227.67 107.01,229.07 61.67,255.04 61.67,253.63 				"/>
			</g>
			<g>
				<polygon style="fill:#F6F6F6;" points="61.67,249.03 107.01,223.07 102.73,220.6 57.39,246.56 				"/>
				<polygon style="fill:#9D9D9C;" points="57.39,247.96 57.39,246.56 61.67,249.03 61.67,250.43 				"/>
				<polygon style="fill:#B2B2B2;" points="107.01,223.07 107.01,224.47 61.67,250.43 61.67,249.03 				"/>
			</g>
			<g>
				<polygon style="fill:#F6F6F6;" points="61.67,244.43 107.01,218.47 102.73,216 57.39,241.96 				"/>
				<polygon style="fill:#9D9D9C;" points="57.39,243.36 57.39,241.96 61.67,244.43 61.67,245.83 				"/>
				<polygon style="fill:#B2B2B2;" points="107.01,218.47 107.01,219.87 61.67,245.83 61.67,244.43 				"/>
			</g>
			<g>
				<polygon style="fill:#F6F6F6;" points="61.67,239.83 107.01,213.87 102.73,211.4 57.39,237.36 				"/>
				<polygon style="fill:#9D9D9C;" points="57.39,238.76 57.39,237.36 61.67,239.83 61.67,241.23 				"/>
				<polygon style="fill:#B2B2B2;" points="107.01,213.87 107.01,215.27 61.67,241.23 61.67,239.83 				"/>
			</g>
			<g>
				<polygon style="fill:#F6F6F6;" points="61.67,235.23 107.01,209.27 102.73,206.79 57.39,232.76 				"/>
				<polygon style="fill:#9D9D9C;" points="57.39,234.16 57.39,232.76 61.67,235.23 61.67,236.63 				"/>
				<polygon style="fill:#B2B2B2;" points="107.01,209.27 107.01,210.67 61.67,236.63 61.67,235.23 				"/>
			</g>
			<g>
				<polygon style="fill:#F6F6F6;" points="61.67,230.63 107.01,204.67 102.73,202.19 57.39,228.15 				"/>
				<polygon style="fill:#9D9D9C;" points="57.39,229.56 57.39,228.15 61.67,230.63 61.67,232.03 				"/>
				<polygon style="fill:#B2B2B2;" points="107.01,204.67 107.01,206.07 61.67,232.03 61.67,230.63 				"/>
			</g>
			<g>
				<polygon style="fill:#F6F6F6;" points="61.67,226.03 107.01,200.07 102.73,197.59 57.39,223.55 				"/>
				<polygon style="fill:#9D9D9C;" points="57.39,224.96 57.39,223.55 61.67,226.03 61.67,227.43 				"/>
				<polygon style="fill:#B2B2B2;" points="107.01,200.07 107.01,201.47 61.67,227.43 61.67,226.03 				"/>
			</g>
			<g>
				<polygon style="fill:#F6F6F6;" points="61.67,221.43 107.01,195.47 102.73,192.99 57.39,218.95 				"/>
				<polygon style="fill:#9D9D9C;" points="57.39,220.35 57.39,218.95 61.67,221.43 61.67,222.83 				"/>
				<polygon style="fill:#B2B2B2;" points="107.01,195.47 107.01,196.87 61.67,222.83 61.67,221.43 				"/>
			</g>
			<g>
				<g>
					<polygon style="fill:#F6F6F6;" points="61.67,216.83 107.01,190.87 102.73,188.39 57.39,214.35 					"/>
					<polygon style="fill:#9D9D9C;" points="57.39,215.75 57.39,214.35 61.67,216.83 61.67,218.23 					"/>
					<polygon style="fill:#B2B2B2;" points="107.01,190.87 107.01,192.27 61.67,218.23 61.67,216.83 					"/>
				</g>
				<polygon style="fill:#F6F6F6;" points="61.67,212.23 107.01,186.27 102.73,183.79 57.39,209.75 				"/>
				<polygon style="fill:#9D9D9C;" points="57.39,211.15 57.39,209.75 61.67,212.23 61.67,213.63 				"/>
				<polygon style="fill:#B2B2B2;" points="107.01,186.27 107.01,187.67 61.67,213.63 61.67,212.23 				"/>
			</g>
			<g>
				<polygon style="fill:#F6F6F6;" points="61.67,207.63 107.01,181.66 102.73,179.19 57.39,205.15 				"/>
				<polygon style="fill:#9D9D9C;" points="57.39,206.55 57.39,205.15 61.67,207.63 61.67,209.03 				"/>
				<polygon style="fill:#B2B2B2;" points="107.01,181.66 107.01,183.07 61.67,209.03 61.67,207.63 				"/>
			</g>
			<g>
				<polygon style="fill:#FFF9F2;" points="61.67,203.02 107.01,177.06 102.73,174.59 57.39,200.55 				"/>
				<polygon style="fill:#EFE7DC;" points="57.39,201.95 57.39,200.55 61.67,203.02 61.67,204.43 				"/>
				<polygon style="fill:#CDBBA3;" points="107.01,177.06 107.01,178.46 61.67,204.43 61.67,203.02 				"/>
			</g>
		</g>
		<g>
			<g>
				<polygon style="fill:#F6F6F6;" points="61.67,202.77 107.01,176.8 102.73,174.33 57.39,200.29 				"/>
				<polygon style="fill:#9D9D9C;" points="57.39,201.69 57.39,200.29 61.67,202.77 61.67,204.17 				"/>
				<polygon style="fill:#B2B2B2;" points="107.01,176.8 107.01,178.21 61.67,204.17 61.67,202.77 				"/>
			</g>
			<g>
				<polygon style="fill:#F6F6F6;" points="61.67,198.16 107.01,172.2 102.73,169.73 57.39,195.69 				"/>
				<polygon style="fill:#9D9D9C;" points="57.39,197.09 57.39,195.69 61.67,198.16 61.67,199.57 				"/>
				<polygon style="fill:#B2B2B2;" points="107.01,172.2 107.01,173.61 61.67,199.57 61.67,198.16 				"/>
			</g>
			<g>
				<polygon style="fill:#F6F6F6;" points="61.67,193.56 107.01,167.6 102.73,165.13 57.39,191.09 				"/>
				<polygon style="fill:#9D9D9C;" points="57.39,192.49 57.39,191.09 61.67,193.56 61.67,194.97 				"/>
				<polygon style="fill:#B2B2B2;" points="107.01,167.6 107.01,169 61.67,194.97 61.67,193.56 				"/>
			</g>
			<g>
				<polygon style="fill:#F6F6F6;" points="61.67,188.96 107.01,163 102.73,160.53 57.39,186.49 				"/>
				<polygon style="fill:#9D9D9C;" points="57.39,187.89 57.39,186.49 61.67,188.96 61.67,190.36 				"/>
				<polygon style="fill:#B2B2B2;" points="107.01,163 107.01,164.4 61.67,190.36 61.67,188.96 				"/>
			</g>
			<g>
				<polygon style="fill:#F6F6F6;" points="61.67,184.36 107.01,158.4 102.73,155.93 57.39,181.89 				"/>
				<polygon style="fill:#9D9D9C;" points="57.39,183.29 57.39,181.89 61.67,184.36 61.67,185.76 				"/>
				<polygon style="fill:#B2B2B2;" points="107.01,158.4 107.01,159.8 61.67,185.76 61.67,184.36 				"/>
			</g>
			<g>
				<polygon style="fill:#F6F6F6;" points="61.67,179.76 107.01,153.8 102.73,151.33 57.39,177.29 				"/>
				<polygon style="fill:#9D9D9C;" points="57.39,178.69 57.39,177.29 61.67,179.76 61.67,181.16 				"/>
				<polygon style="fill:#B2B2B2;" points="107.01,153.8 107.01,155.2 61.67,181.16 61.67,179.76 				"/>
			</g>
			<g>
				<polygon style="fill:#F6F6F6;" points="61.67,175.16 107.01,149.2 102.73,146.72 57.39,172.69 				"/>
				<polygon style="fill:#9D9D9C;" points="57.39,174.09 57.39,172.69 61.67,175.16 61.67,176.56 				"/>
				<polygon style="fill:#B2B2B2;" points="107.01,149.2 107.01,150.6 61.67,176.56 61.67,175.16 				"/>
			</g>
			<g>
				<polygon style="fill:#F6F6F6;" points="61.67,170.56 107.01,144.6 102.73,142.12 57.39,168.08 				"/>
				<polygon style="fill:#9D9D9C;" points="57.39,169.49 57.39,168.08 61.67,170.56 61.67,171.96 				"/>
				<polygon style="fill:#B2B2B2;" points="107.01,144.6 107.01,146 61.67,171.96 61.67,170.56 				"/>
			</g>
			<g>
				<polygon style="fill:#F6F6F6;" points="61.67,165.96 107.01,140 102.73,137.52 57.39,163.48 				"/>
				<polygon style="fill:#9D9D9C;" points="57.39,164.88 57.39,163.48 61.67,165.96 61.67,167.36 				"/>
				<polygon style="fill:#B2B2B2;" points="107.01,140 107.01,141.4 61.67,167.36 61.67,165.96 				"/>
			</g>
			<g>
				<g>
					<polygon style="fill:#F6F6F6;" points="61.67,161.36 107.01,135.4 102.73,132.92 57.39,158.88 					"/>
					<polygon style="fill:#9D9D9C;" points="57.39,160.28 57.39,158.88 61.67,161.36 61.67,162.76 					"/>
					<polygon style="fill:#B2B2B2;" points="107.01,135.4 107.01,136.8 61.67,162.76 61.67,161.36 					"/>
				</g>
				<polygon style="fill:#F6F6F6;" points="61.67,156.76 107.01,130.8 102.73,128.32 57.39,154.28 				"/>
				<polygon style="fill:#9D9D9C;" points="57.39,155.68 57.39,154.28 61.67,156.76 61.67,158.16 				"/>
				<polygon style="fill:#B2B2B2;" points="107.01,130.8 107.01,132.2 61.67,158.16 61.67,156.76 				"/>
			</g>
			<g>
				<polygon style="fill:#F6F6F6;" points="61.67,152.16 107.01,126.19 102.73,123.72 57.39,149.68 				"/>
				<polygon style="fill:#9D9D9C;" points="57.39,151.08 57.39,149.68 61.67,152.16 61.67,153.56 				"/>
				<polygon style="fill:#B2B2B2;" points="107.01,126.19 107.01,127.6 61.67,153.56 61.67,152.16 				"/>
			</g>
			<g>
				<polygon style="fill:#F6F6F6;" points="61.67,147.55 107.01,121.59 102.73,119.12 57.39,145.08 				"/>
				<polygon style="fill:#9D9D9C;" points="57.39,146.48 57.39,145.08 61.67,147.55 61.67,148.96 				"/>
				<polygon style="fill:#B2B2B2;" points="107.01,121.59 107.01,123 61.67,148.96 61.67,147.55 				"/>
			</g>
		</g>
	</g>
	<g>
		<g>
			<g>
				<polygon style="fill:#F6F6F6;" points="111.49,230.5 156.83,204.54 152.55,202.06 107.21,228.03 				"/>
				<polygon style="fill:#9D9D9C;" points="107.21,229.43 107.21,228.03 111.49,230.5 111.49,231.9 				"/>
				<polygon style="fill:#B2B2B2;" points="156.83,204.54 156.83,205.94 111.49,231.9 111.49,230.5 				"/>
			</g>
			<g>
				<polygon style="fill:#F6F6F6;" points="111.49,225.9 156.83,199.94 152.55,197.46 107.21,223.42 				"/>
				<polygon style="fill:#9D9D9C;" points="107.21,224.83 107.21,223.42 111.49,225.9 111.49,227.3 				"/>
				<polygon style="fill:#B2B2B2;" points="156.83,199.94 156.83,201.34 111.49,227.3 111.49,225.9 				"/>
			</g>
			<g>
				<polygon style="fill:#F6F6F6;" points="111.49,221.3 156.83,195.34 152.55,192.86 107.21,218.82 				"/>
				<polygon style="fill:#9D9D9C;" points="107.21,220.22 107.21,218.82 111.49,221.3 111.49,222.7 				"/>
				<polygon style="fill:#B2B2B2;" points="156.83,195.34 156.83,196.74 111.49,222.7 111.49,221.3 				"/>
			</g>
			<g>
				<polygon style="fill:#F6F6F6;" points="111.49,216.7 156.83,190.74 152.55,188.26 107.21,214.22 				"/>
				<polygon style="fill:#9D9D9C;" points="107.21,215.62 107.21,214.22 111.49,216.7 111.49,218.1 				"/>
				<polygon style="fill:#B2B2B2;" points="156.83,190.74 156.83,192.14 111.49,218.1 111.49,216.7 				"/>
			</g>
			<g>
				<polygon style="fill:#F6F6F6;" points="111.49,212.1 156.83,186.14 152.55,183.66 107.21,209.62 				"/>
				<polygon style="fill:#9D9D9C;" points="107.21,211.02 107.21,209.62 111.49,212.1 111.49,213.5 				"/>
				<polygon style="fill:#B2B2B2;" points="156.83,186.14 156.83,187.54 111.49,213.5 111.49,212.1 				"/>
			</g>
			<g>
				<polygon style="fill:#F6F6F6;" points="111.49,207.5 156.83,181.53 152.55,179.06 107.21,205.02 				"/>
				<polygon style="fill:#9D9D9C;" points="107.21,206.42 107.21,205.02 111.49,207.5 111.49,208.9 				"/>
				<polygon style="fill:#B2B2B2;" points="156.83,181.53 156.83,182.94 111.49,208.9 111.49,207.5 				"/>
			</g>
			<g>
				<polygon style="fill:#F6F6F6;" points="111.49,202.89 156.83,176.93 152.55,174.46 107.21,200.42 				"/>
				<polygon style="fill:#9D9D9C;" points="107.21,201.82 107.21,200.42 111.49,202.89 111.49,204.3 				"/>
				<polygon style="fill:#B2B2B2;" points="156.83,176.93 156.83,178.34 111.49,204.3 111.49,202.89 				"/>
			</g>
			<g>
				<polygon style="fill:#F6F6F6;" points="111.49,198.29 156.83,172.33 152.55,169.86 107.21,195.82 				"/>
				<polygon style="fill:#9D9D9C;" points="107.21,197.22 107.21,195.82 111.49,198.29 111.49,199.7 				"/>
				<polygon style="fill:#B2B2B2;" points="156.83,172.33 156.83,173.73 111.49,199.7 111.49,198.29 				"/>
			</g>
			<g>
				<polygon style="fill:#F6F6F6;" points="111.49,193.69 156.83,167.73 152.55,165.26 107.21,191.22 				"/>
				<polygon style="fill:#9D9D9C;" points="107.21,192.62 107.21,191.22 111.49,193.69 111.49,195.09 				"/>
				<polygon style="fill:#B2B2B2;" points="156.83,167.73 156.83,169.13 111.49,195.09 111.49,193.69 				"/>
			</g>
			<g>
				<g>
					<polygon style="fill:#F6F6F6;" points="111.49,189.09 156.83,163.13 152.55,160.66 107.21,186.62 					"/>
					<polygon style="fill:#9D9D9C;" points="107.21,188.02 107.21,186.62 111.49,189.09 111.49,190.49 					"/>
					<polygon style="fill:#B2B2B2;" points="156.83,163.13 156.83,164.53 111.49,190.49 111.49,189.09 					"/>
				</g>
				<polygon style="fill:#F6F6F6;" points="111.49,184.49 156.83,158.53 152.55,156.06 107.21,182.02 				"/>
				<polygon style="fill:#9D9D9C;" points="107.21,183.42 107.21,182.02 111.49,184.49 111.49,185.89 				"/>
				<polygon style="fill:#B2B2B2;" points="156.83,158.53 156.83,159.93 111.49,185.89 111.49,184.49 				"/>
			</g>
			<g>
				<polygon style="fill:#F6F6F6;" points="111.49,179.89 156.83,153.93 152.55,151.45 107.21,177.42 				"/>
				<polygon style="fill:#9D9D9C;" points="107.21,178.82 107.21,177.42 111.49,179.89 111.49,181.29 				"/>
				<polygon style="fill:#B2B2B2;" points="156.83,153.93 156.83,155.33 111.49,181.29 111.49,179.89 				"/>
			</g>
			<g>
				<polygon style="fill:#FFF9F2;" points="111.49,175.29 156.83,149.33 152.55,146.85 107.21,172.81 				"/>
				<polygon style="fill:#EFE7DC;" points="107.21,174.22 107.21,172.81 111.49,175.29 111.49,176.69 				"/>
				<polygon style="fill:#CDBBA3;" points="156.83,149.33 156.83,150.73 111.49,176.69 111.49,175.29 				"/>
			</g>
		</g>
		<g>
			<g>
				<polygon style="fill:#F6F6F6;" points="111.49,175.03 156.83,149.07 152.55,146.59 107.21,172.56 				"/>
				<polygon style="fill:#9D9D9C;" points="107.21,173.96 107.21,172.56 111.49,175.03 111.49,176.43 				"/>
				<polygon style="fill:#B2B2B2;" points="156.83,149.07 156.83,150.47 111.49,176.43 111.49,175.03 				"/>
			</g>
			<g>
				<polygon style="fill:#F6F6F6;" points="111.49,170.43 156.83,144.47 152.55,141.99 107.21,167.96 				"/>
				<polygon style="fill:#9D9D9C;" points="107.21,169.36 107.21,167.96 111.49,170.43 111.49,171.83 				"/>
				<polygon style="fill:#B2B2B2;" points="156.83,144.47 156.83,145.87 111.49,171.83 111.49,170.43 				"/>
			</g>
			<g>
				<polygon style="fill:#F6F6F6;" points="111.49,165.83 156.83,139.87 152.55,137.39 107.21,163.35 				"/>
				<polygon style="fill:#9D9D9C;" points="107.21,164.76 107.21,163.35 111.49,165.83 111.49,167.23 				"/>
				<polygon style="fill:#B2B2B2;" points="156.83,139.87 156.83,141.27 111.49,167.23 111.49,165.83 				"/>
			</g>
			<g>
				<polygon style="fill:#F6F6F6;" points="111.49,161.23 156.83,135.27 152.55,132.79 107.21,158.75 				"/>
				<polygon style="fill:#9D9D9C;" points="107.21,160.15 107.21,158.75 111.49,161.23 111.49,162.63 				"/>
				<polygon style="fill:#B2B2B2;" points="156.83,135.27 156.83,136.67 111.49,162.63 111.49,161.23 				"/>
			</g>
			<g>
				<polygon style="fill:#F6F6F6;" points="111.49,156.63 156.83,130.67 152.55,128.19 107.21,154.15 				"/>
				<polygon style="fill:#9D9D9C;" points="107.21,155.55 107.21,154.15 111.49,156.63 111.49,158.03 				"/>
				<polygon style="fill:#B2B2B2;" points="156.83,130.67 156.83,132.07 111.49,158.03 111.49,156.63 				"/>
			</g>
			<g>
				<polygon style="fill:#F6F6F6;" points="111.49,152.03 156.83,126.07 152.55,123.59 107.21,149.55 				"/>
				<polygon style="fill:#9D9D9C;" points="107.21,150.95 107.21,149.55 111.49,152.03 111.49,153.43 				"/>
				<polygon style="fill:#B2B2B2;" points="156.83,126.07 156.83,127.47 111.49,153.43 111.49,152.03 				"/>
			</g>
			<g>
				<polygon style="fill:#F6F6F6;" points="111.49,147.43 156.83,121.46 152.55,118.99 107.21,144.95 				"/>
				<polygon style="fill:#9D9D9C;" points="107.21,146.35 107.21,144.95 111.49,147.43 111.49,148.83 				"/>
				<polygon style="fill:#B2B2B2;" points="156.83,121.46 156.83,122.87 111.49,148.83 111.49,147.43 				"/>
			</g>
			<g>
				<polygon style="fill:#F6F6F6;" points="111.49,142.82 156.83,116.86 152.55,114.39 107.21,140.35 				"/>
				<polygon style="fill:#9D9D9C;" points="107.21,141.75 107.21,140.35 111.49,142.82 111.49,144.23 				"/>
				<polygon style="fill:#B2B2B2;" points="156.83,116.86 156.83,118.27 111.49,144.23 111.49,142.82 				"/>
			</g>
			<g>
				<polygon style="fill:#F6F6F6;" points="111.49,138.22 156.83,112.26 152.55,109.79 107.21,135.75 				"/>
				<polygon style="fill:#9D9D9C;" points="107.21,137.15 107.21,135.75 111.49,138.22 111.49,139.63 				"/>
				<polygon style="fill:#B2B2B2;" points="156.83,112.26 156.83,113.66 111.49,139.63 111.49,138.22 				"/>
			</g>
			<g>
				<g>
					<polygon style="fill:#F6F6F6;" points="111.49,133.62 156.83,107.66 152.55,105.19 107.21,131.15 					"/>
					<polygon style="fill:#9D9D9C;" points="107.21,132.55 107.21,131.15 111.49,133.62 111.49,135.02 					"/>
					<polygon style="fill:#B2B2B2;" points="156.83,107.66 156.83,109.06 111.49,135.02 111.49,133.62 					"/>
				</g>
				<polygon style="fill:#F6F6F6;" points="111.49,129.02 156.83,103.06 152.55,100.59 107.21,126.55 				"/>
				<polygon style="fill:#9D9D9C;" points="107.21,127.95 107.21,126.55 111.49,129.02 111.49,130.42 				"/>
				<polygon style="fill:#B2B2B2;" points="156.83,103.06 156.83,104.46 111.49,130.42 111.49,129.02 				"/>
			</g>
			<g>
				<polygon style="fill:#F6F6F6;" points="111.49,124.42 156.83,98.46 152.55,95.99 107.21,121.95 				"/>
				<polygon style="fill:#9D9D9C;" points="107.21,123.35 107.21,121.95 111.49,124.42 111.49,125.82 				"/>
				<polygon style="fill:#B2B2B2;" points="156.83,98.46 156.83,99.86 111.49,125.82 111.49,124.42 				"/>
			</g>
			<g>
				<polygon style="fill:#F6F6F6;" points="111.49,119.82 156.83,93.86 152.55,91.38 107.21,117.35 				"/>
				<polygon style="fill:#9D9D9C;" points="107.21,118.75 107.21,117.35 111.49,119.82 111.49,121.22 				"/>
				<polygon style="fill:#B2B2B2;" points="156.83,93.86 156.83,95.26 111.49,121.22 111.49,119.82 				"/>
			</g>
		</g>
	</g>
	<g>
		<g style="enable-background:new    ;">
			<g>
				<g>
					<polygon style="fill:#ECF0F1;" points="104.63,235.35 104.59,248.14 102.5,246.94 102.54,234.14 					"/>
				</g>
			</g>
			<g>
				<g>
					<polygon style="fill:#ECF0F1;" points="102.54,234.14 102.5,246.94 95.14,251.22 95.17,238.42 					"/>
				</g>
			</g>
			<g>
				<g>
					<polygon style="fill:#878787;" points="97.33,239.8 97.3,252.6 94.84,251.18 94.87,238.38 					"/>
				</g>
			</g>
			<g>
				<g>
					<polygon style="fill:#575756;" points="104.93,235.38 104.89,248.18 97.3,252.6 97.33,239.8 					"/>
				</g>
			</g>
			<g>
				<g>
					<polygon style="fill:#BDC3C7;" points="102.65,234.07 102.65,234.31 102.45,234.19 					"/>
				</g>
				<g>
					<polygon style="fill:#706F6F;" points="104.62,235.34 104.63,235.35 97.26,239.62 95.17,238.42 102.54,234.14 102.54,234.14
						102.65,234.07 102.47,233.96 94.87,238.38 97.33,239.8 104.93,235.38 104.74,235.28 					"/>
				</g>
				<g>
					<polygon style="fill:#ECF0F1;" points="104.41,235.47 104.62,235.34 102.54,234.14 102.29,234.28 102.54,234.14 102.54,234.14
						95.17,238.42 97.26,239.62 104.63,235.35 104.62,235.34 					"/>
				</g>
				<g>
					<g>
						<g>
							<path style="fill:#ECF0F1;" d="M96.77,241.9l-1.46-0.84c-0.05-0.03-0.08-0.09-0.08-0.15c0-0.05,0.04-0.07,0.08-0.05
								l1.46,0.84c0.05,0.03,0.08,0.09,0.08,0.15C96.85,241.9,96.81,241.92,96.77,241.9z"/>
						</g>
					</g>
					<g>
						<g>
							<path style="fill:#ECF0F1;" d="M96.77,241.38l-1.46-0.84c-0.05-0.03-0.08-0.09-0.08-0.15c0-0.05,0.04-0.07,0.08-0.05
								l1.46,0.84c0.05,0.03,0.08,0.09,0.08,0.15C96.85,241.38,96.81,241.4,96.77,241.38z"/>
						</g>
					</g>
					<g>
						<g>
							<path style="fill:#ECF0F1;" d="M96.77,240.85l-1.46-0.84c-0.05-0.03-0.08-0.09-0.08-0.15c0-0.05,0.04-0.08,0.08-0.05
								l1.46,0.84c0.05,0.03,0.08,0.09,0.08,0.15C96.85,240.86,96.81,240.88,96.77,240.85z"/>
						</g>
					</g>
					<g>
						<g>
							<path style="fill:#ECF0F1;" d="M96.77,240.34l-1.46-0.84c-0.05-0.03-0.08-0.09-0.08-0.15c0-0.05,0.04-0.07,0.08-0.05
								l1.46,0.84c0.05,0.03,0.08,0.09,0.08,0.15C96.85,240.34,96.81,240.36,96.77,240.34z"/>
						</g>
					</g>
				</g>
			</g>
		</g>
	</g>
	<g>
		<g style="enable-background:new    ;">
			<g>
				<g>
					<polygon style="fill:#ECF0F1;" points="107.83,237.04 107.8,249.84 105.71,248.64 105.75,235.84 					"/>
				</g>
			</g>
			<g>
				<g>
					<polygon style="fill:#ECF0F1;" points="105.75,235.84 105.71,248.64 98.35,252.92 98.38,240.12 					"/>
				</g>
			</g>
			<g>
				<g>
					<polygon style="fill:#878787;" points="100.54,241.5 100.51,254.3 98.05,252.88 98.08,240.08 					"/>
				</g>
			</g>
			<g>
				<g>
					<polygon style="fill:#BDC3C7;" points="105.86,235.77 105.86,236.01 105.66,235.89 					"/>
				</g>
				<g>
					<polygon style="fill:#706F6F;" points="107.83,237.04 107.83,237.04 100.47,241.32 98.38,240.12 105.75,235.84 105.75,235.84
						105.86,235.77 105.68,235.66 98.08,240.08 100.54,241.5 108.14,237.08 107.95,236.98 					"/>
				</g>
				<g>
					<polygon style="fill:#ECF0F1;" points="107.62,237.17 107.83,237.04 105.75,235.84 105.5,235.98 105.75,235.84 105.75,235.84
						98.38,240.12 100.47,241.32 107.83,237.04 107.83,237.04 					"/>
				</g>
				<g>
					<g>
						<g>
							<path style="fill:#ECF0F1;" d="M99.97,243.6l-1.45-0.84c-0.05-0.03-0.09-0.09-0.09-0.15c0-0.06,0.04-0.08,0.09-0.05
								l1.45,0.84c0.05,0.03,0.09,0.09,0.09,0.15C100.06,243.6,100.02,243.62,99.97,243.6z"/>
						</g>
					</g>
					<g>
						<g>
							<path style="fill:#ECF0F1;" d="M99.97,243.08l-1.45-0.84c-0.05-0.03-0.09-0.09-0.09-0.15c0-0.05,0.04-0.07,0.09-0.05
								l1.45,0.84c0.05,0.03,0.09,0.09,0.09,0.15C100.06,243.08,100.02,243.1,99.97,243.08z"/>
						</g>
					</g>
					<g>
						<g>
							<path style="fill:#ECF0F1;" d="M99.97,242.55l-1.45-0.84c-0.05-0.03-0.09-0.09-0.09-0.15c0-0.05,0.04-0.08,0.09-0.05
								l1.45,0.84c0.05,0.03,0.09,0.09,0.09,0.15C100.06,242.56,100.02,242.58,99.97,242.55z"/>
						</g>
					</g>
					<g>
						<g>
							<path style="fill:#ECF0F1;" d="M99.97,242.03l-1.45-0.84c-0.05-0.03-0.09-0.09-0.09-0.15c0-0.05,0.04-0.08,0.09-0.05
								l1.45,0.84c0.05,0.03,0.09,0.09,0.09,0.15C100.06,242.04,100.02,242.06,99.97,242.03z"/>
						</g>
					</g>
				</g>
			</g>
			<g>
				<g>
					<polygon style="fill:#575756;" points="108.14,237.08 108.1,249.88 100.51,254.3 100.54,241.5 					"/>
				</g>
			</g>
		</g>
	</g>
	<g>
		<g style="enable-background:new    ;">
			<g>
				<g>
					<polygon style="fill:#ECF0F1;" points="115.51,236.32 115.48,249.12 113.39,247.91 113.43,235.11 					"/>
				</g>
			</g>
			<g>
				<g>
					<polygon style="fill:#ECF0F1;" points="113.43,235.11 113.39,247.91 106.03,252.19 106.06,239.39 					"/>
				</g>
			</g>
			<g>
				<g>
					<polygon style="fill:#878787;" points="108.22,240.77 108.19,253.57 105.73,252.15 105.76,239.35 					"/>
				</g>
			</g>
			<g>
				<g>
					<polygon style="fill:#BDC3C7;" points="113.54,235.04 113.54,235.28 113.34,235.16 					"/>
				</g>
				<g>
					<polygon style="fill:#706F6F;" points="115.51,236.32 115.51,236.32 108.15,240.59 106.06,239.39 113.43,235.11 113.43,235.11
						113.54,235.04 113.36,234.94 105.76,239.35 108.22,240.77 115.82,236.36 115.63,236.25 					"/>
				</g>
				<g>
					<polygon style="fill:#ECF0F1;" points="115.3,236.44 115.51,236.32 113.43,235.11 113.18,235.26 113.43,235.11 113.43,235.11
						106.06,239.39 108.15,240.59 115.51,236.32 115.51,236.32 					"/>
				</g>
				<g>
					<g>
						<g>
							<path style="fill:#ECF0F1;" d="M107.65,242.87l-1.45-0.84c-0.05-0.03-0.08-0.09-0.08-0.15c0-0.05,0.04-0.08,0.08-0.05
								l1.45,0.84c0.05,0.03,0.09,0.09,0.09,0.15C107.74,242.87,107.7,242.89,107.65,242.87z"/>
						</g>
					</g>
					<g>
						<g>
							<path style="fill:#ECF0F1;" d="M107.65,242.35l-1.45-0.84c-0.05-0.03-0.08-0.09-0.08-0.15c0-0.05,0.04-0.07,0.08-0.05
								l1.45,0.84c0.05,0.03,0.09,0.09,0.09,0.15C107.74,242.35,107.7,242.37,107.65,242.35z"/>
						</g>
					</g>
					<g>
						<g>
							<path style="fill:#ECF0F1;" d="M107.65,241.83l-1.45-0.84c-0.05-0.03-0.08-0.09-0.08-0.15c0-0.06,0.04-0.08,0.08-0.05
								l1.45,0.84c0.05,0.03,0.09,0.09,0.09,0.15C107.74,241.83,107.7,241.85,107.65,241.83z"/>
						</g>
					</g>
					<g>
						<g>
							<path style="fill:#ECF0F1;" d="M107.65,241.31l-1.45-0.84c-0.05-0.03-0.08-0.09-0.08-0.15c0-0.05,0.04-0.07,0.08-0.05
								l1.45,0.84c0.05,0.03,0.09,0.09,0.09,0.15C107.74,241.31,107.7,241.33,107.65,241.31z"/>
						</g>
					</g>
				</g>
			</g>
			<g>
				<g>
					<polygon style="fill:#575756;" points="115.82,236.36 115.78,249.16 108.19,253.57 108.22,240.77 					"/>
				</g>
			</g>
		</g>
	</g>
</g>
<g>
	<defs>
		<polygon id="SVGID_254_" points="302,218.54 300.74,141.72 366.83,180.17 309.63,221.61 		"/>
	</defs>
	<clipPath id="SVGID_12_">
		<use xlink:href="#SVGID_254_"  style="overflow:visible;"/>
	</clipPath>
</g>
<g>
	<defs>
		<polygon id="SVGID_256_" points="302,218.54 300.74,141.72 366.83,180.17 309.63,221.61 		"/>
	</defs>
	<clipPath id="SVGID_14_">
		<use xlink:href="#SVGID_256_"  style="overflow:visible;"/>
	</clipPath>
</g>
<linearGradient id="SVGID_16_" gradientUnits="userSpaceOnUse" x1="267.2914" y1="365.7441" x2="472.129" y2="264.4276">
	<stop  offset="0.1514" style="stop-color:#EDEDED"/>
	<stop  offset="0.3541" style="stop-color:#FFFFFF"/>
	<stop  offset="0.4665" style="stop-color:#F3F3F3"/>
	<stop  offset="0.5838" style="stop-color:#EDEDED"/>
	<stop  offset="0.8297" style="stop-color:#FFFFFF"/>
</linearGradient>
<polyline style="opacity:0.43;fill:url(#SVGID_16_);" points="258.9,294.51 258.9,463.83 487.42,332.26 487.42,162.93 258.9,294.51
	"/>
<linearGradient id="SVGID_18_" gradientUnits="userSpaceOnUse" x1="136.331" y1="463.8276" x2="136.331" y2="149.32">
	<stop  offset="0.1378" style="stop-color:#DEDEDE"/>
	<stop  offset="0.2865" style="stop-color:#C6C6C6"/>
	<stop  offset="0.4838" style="stop-color:#FFFFFF"/>
	<stop  offset="0.5246" style="stop-color:#E8E8E8"/>
	<stop  offset="0.5877" style="stop-color:#CACACA"/>
	<stop  offset="0.6421" style="stop-color:#B8B8B8"/>
	<stop  offset="0.6811" style="stop-color:#B2B2B2"/>
	<stop  offset="0.8811" style="stop-color:#FFFFFF"/>
</linearGradient>
<path style="fill:none;stroke:url(#SVGID_18_);stroke-width:1.5;stroke-miterlimit:10;" d="M258.9,463.83c0,0,0-169.31,0-169.32
	c-0.01-0.01-245.5-144.54-245.5-144.54"/>
<path style="opacity:0.43;fill:#EDEDED;" d="M172.75,243.61L172.75,243.61l-0.08-0.05l-35.74-21.05v0.02l-93.4-54.97l-29.88-17.59
	l-0.52,172.16l246.02,141.7V294.51L172.75,243.61z M70.78,355.23l31.83,18.36l-31.83-18.29V355.23z"/>
<linearGradient id="SVGID_20_" gradientUnits="userSpaceOnUse" x1="258.5214" y1="228.7198" x2="487.7943" y2="228.7198">
	<stop  offset="0.1378" style="stop-color:#DEDEDE"/>
	<stop  offset="0.2865" style="stop-color:#C6C6C6"/>
	<stop  offset="0.4838" style="stop-color:#FFFFFF"/>
	<stop  offset="0.5246" style="stop-color:#E8E8E8"/>
	<stop  offset="0.5877" style="stop-color:#CACACA"/>
	<stop  offset="0.6421" style="stop-color:#B8B8B8"/>
	<stop  offset="0.6811" style="stop-color:#B2B2B2"/>
	<stop  offset="0.8811" style="stop-color:#FFFFFF"/>
</linearGradient>
<line style="fill:none;stroke:url(#SVGID_20_);stroke-width:1.5;stroke-miterlimit:10;" x1="487.42" y1="162.93" x2="258.9" y2="294.51"/>
<g>

		<ellipse transform="matrix(0.9966 -0.0821 0.0821 0.9966 -24.8959 11.5848)" style="fill:#575756;" cx="128.49" cy="308.66" rx="2.19" ry="3.86"/>
	<ellipse style="fill:#575756;" cx="130.55" cy="308.82" rx="0.69" ry="1.41"/>
</g>
<linearGradient id="SVGID_22_" gradientUnits="userSpaceOnUse" x1="136.6748" y1="393.9066" x2="136.6748" y2="222.9643">
	<stop  offset="0.1378" style="stop-color:#DEDEDE"/>
	<stop  offset="0.2865" style="stop-color:#C6C6C6"/>
	<stop  offset="0.4838" style="stop-color:#FFFFFF"/>
	<stop  offset="0.5246" style="stop-color:#E8E8E8"/>
	<stop  offset="0.5877" style="stop-color:#CACACA"/>
	<stop  offset="0.6421" style="stop-color:#B8B8B8"/>
	<stop  offset="0.6811" style="stop-color:#B2B2B2"/>
	<stop  offset="0.8811" style="stop-color:#FFFFFF"/>
</linearGradient>
<polygon style="fill:url(#SVGID_22_);" points="137.42,393.91 135.92,393 135.92,222.96 137.42,222.96 "/>
<linearGradient id="SVGID_24_" gradientUnits="userSpaceOnUse" x1="70.5205" y1="355.7598" x2="70.5205" y2="183.5683">
	<stop  offset="0.1378" style="stop-color:#DEDEDE"/>
	<stop  offset="0.2865" style="stop-color:#C6C6C6"/>
	<stop  offset="0.4838" style="stop-color:#FFFFFF"/>
	<stop  offset="0.5246" style="stop-color:#E8E8E8"/>
	<stop  offset="0.5877" style="stop-color:#CACACA"/>
	<stop  offset="0.6421" style="stop-color:#B8B8B8"/>
	<stop  offset="0.6811" style="stop-color:#B2B2B2"/>
	<stop  offset="0.8811" style="stop-color:#FFFFFF"/>
</linearGradient>
<polygon style="fill:url(#SVGID_24_);" points="71.27,355.76 69.77,354.9 69.77,183.57 71.27,183.57 "/>
</svg>
