<?xml version="1.0" encoding="utf-8"?>
<!-- Generator: Adobe Illustrator 22.1.0, SVG Export Plug-In . SVG Version: 6.00 Build 0)  -->
<svg version="1.1" id="Layer_1" xmlns="http://www.w3.org/2000/svg" xmlns:xlink="http://www.w3.org/1999/xlink" x="0px" y="0px"
	 viewBox="0 0 500 500" style="enable-background:new 0 0 500 500;" xml:space="preserve">
<g>
	<g>
		<path style="fill:#3C3C3B;" d="M495.25,336.86l-0.81-176.35L325.69,63.17l-43.38-25.2c-0.75-0.43-1.51-0.85-2.28-1.25
			c-0.25-0.13-0.51-0.26-0.77-0.39c-0.53-0.27-1.05-0.53-1.59-0.79c-0.31-0.15-0.63-0.29-0.95-0.43c-0.49-0.22-0.98-0.45-1.48-0.66
			c-0.34-0.15-0.7-0.29-1.04-0.43c-0.33-0.14-0.66-0.28-1-0.41c-0.11-0.04-0.22-0.08-0.33-0.12c-1.1-0.43-2.21-0.84-3.34-1.22
			c-0.16-0.06-0.33-0.11-0.5-0.16c-0.99-0.33-2-0.64-3.01-0.94c-0.17-0.05-0.33-0.11-0.49-0.15c-0.2-0.06-0.4-0.1-0.6-0.16
			c-0.63-0.18-1.27-0.34-1.91-0.51c-0.4-0.1-0.79-0.2-1.19-0.3c-0.7-0.17-1.4-0.32-2.1-0.47c-0.27-0.06-0.54-0.13-0.81-0.18
			c-0.08-0.02-0.16-0.03-0.24-0.04c-0.64-0.13-1.28-0.25-1.93-0.37c-0.37-0.07-0.73-0.14-1.1-0.2c-0.8-0.14-1.6-0.26-2.41-0.38
			c-0.21-0.03-0.41-0.07-0.62-0.1c-0.01,0-0.03,0-0.04,0c-1.01-0.14-2.02-0.27-3.03-0.38c-0.1-0.01-0.2-0.02-0.3-0.03
			c-0.91-0.1-1.83-0.19-2.75-0.27c-0.02,0-0.03,0-0.05,0c-0.33-0.03-0.65-0.04-0.98-0.07c-0.68-0.05-1.36-0.1-2.04-0.14
			c-0.41-0.02-0.82-0.03-1.23-0.05c-0.62-0.03-1.24-0.06-1.85-0.07c-0.05,0-0.1,0-0.15-0.01c-0.33-0.01-0.67,0-1-0.01
			c-0.67-0.01-1.34-0.02-2.01-0.02c-0.43,0-0.86,0.01-1.28,0.02c-0.62,0.01-1.24,0.02-1.87,0.04c-0.12,0-0.23,0-0.35,0.01
			c-0.29,0.01-0.57,0.03-0.86,0.04c-0.71,0.03-1.42,0.06-2.13,0.11c-0.43,0.03-0.86,0.06-1.29,0.09c-0.68,0.05-1.36,0.11-2.04,0.17
			c-0.24,0.02-0.48,0.04-0.72,0.06c-0.16,0.02-0.33,0.04-0.49,0.06c-1.07,0.11-2.13,0.24-3.19,0.38c-0.16,0.02-0.32,0.04-0.48,0.06
			c-1.2,0.17-2.4,0.36-3.59,0.57c-0.11,0.02-0.23,0.03-0.35,0.06c-0.31,0.06-0.62,0.12-0.93,0.18c-0.55,0.11-1.11,0.21-1.66,0.33
			c-0.45,0.09-0.9,0.19-1.34,0.29c-0.54,0.12-1.08,0.24-1.62,0.37c-0.45,0.11-0.89,0.22-1.33,0.33c-0.53,0.14-1.05,0.28-1.58,0.42
			c-0.44,0.12-0.88,0.25-1.31,0.38c-0.52,0.15-1.03,0.31-1.54,0.47c-0.23,0.07-0.46,0.14-0.69,0.21c-0.16,0.05-0.31,0.11-0.46,0.16
			c-0.93,0.31-1.86,0.63-2.77,0.97c-0.18,0.07-0.36,0.13-0.54,0.2c-1.07,0.41-2.12,0.84-3.15,1.29c-0.27,0.12-0.54,0.24-0.81,0.36
			c-0.79,0.35-1.57,0.72-2.34,1.1c-0.29,0.14-0.58,0.28-0.86,0.43c-0.99,0.51-1.96,1.03-2.91,1.57L4.89,146.72L4.75,324.24
			l9.71,0.63L192.6,215.49c0.94-0.55,1.92-1.07,2.91-1.58c0.28-0.15,0.57-0.29,0.86-0.43c0.77-0.38,1.55-0.75,2.34-1.1
			c0.27-0.12,0.53-0.24,0.81-0.36c1.03-0.45,2.08-0.88,3.15-1.29c0.18-0.07,0.36-0.13,0.54-0.2c0.91-0.34,1.83-0.66,2.77-0.97
			c0.38-0.13,0.77-0.25,1.15-0.37c0.51-0.16,1.03-0.32,1.54-0.47c0.44-0.13,0.87-0.25,1.31-0.38c0.52-0.15,1.05-0.28,1.58-0.42
			c0.44-0.11,0.88-0.23,1.33-0.33c0.54-0.13,1.08-0.25,1.62-0.37c0.45-0.1,0.89-0.2,1.34-0.29c0.55-0.11,1.1-0.22,1.66-0.33
			c0.42-0.08,0.85-0.16,1.27-0.24c1.19-0.21,2.38-0.4,3.59-0.57c0.16-0.02,0.32-0.04,0.47-0.06c1.06-0.14,2.13-0.27,3.2-0.38
			c0.4-0.04,0.81-0.08,1.21-0.12c0.68-0.06,1.36-0.12,2.04-0.17c0.43-0.03,0.86-0.06,1.29-0.09c0.71-0.04,1.42-0.08,2.13-0.11
			c0.4-0.02,0.8-0.04,1.2-0.05c0.62-0.02,1.24-0.03,1.86-0.04c0.43-0.01,0.86-0.02,1.29-0.02c0.67,0,1.33,0.01,2,0.02
			c0.38,0.01,0.77,0.01,1.15,0.02c0.62,0.02,1.24,0.05,1.85,0.07c0.41,0.02,0.82,0.03,1.23,0.05c0.68,0.04,1.36,0.09,2.04,0.14
			c0.34,0.03,0.69,0.04,1.03,0.07c0.92,0.08,1.85,0.17,2.76,0.27c0.1,0.01,0.19,0.02,0.29,0.03c1.01,0.11,2.02,0.24,3.03,0.38
			c0.22,0.03,0.43,0.07,0.65,0.1c0.81,0.12,1.61,0.24,2.42,0.38c0.37,0.06,0.73,0.14,1.1,0.21c0.64,0.12,1.29,0.24,1.93,0.37
			c0.35,0.07,0.7,0.15,1.05,0.23c0.7,0.15,1.4,0.31,2.1,0.47c0.4,0.1,0.79,0.2,1.19,0.3c0.64,0.16,1.28,0.33,1.91,0.51
			c0.37,0.1,0.73,0.21,1.09,0.31c1.01,0.3,2.02,0.61,3.01,0.93c0.17,0.06,0.34,0.11,0.51,0.16c1.13,0.38,2.24,0.79,3.34,1.22
			c0.45,0.17,0.89,0.35,1.33,0.54c0.35,0.14,0.7,0.28,1.04,0.43c0.5,0.21,0.99,0.44,1.48,0.66c0.32,0.14,0.64,0.28,0.95,0.43
			c0.54,0.25,1.06,0.52,1.59,0.79c0.26,0.13,0.52,0.25,0.77,0.39c0.77,0.4,1.53,0.82,2.28,1.25l58.6,34.05l0-1.86L495.25,336.86z"/>
		<polygon style="fill:#3C3C3B;" points="259.78,472.76 485.32,342.54 238.72,190.04 4.75,324.24 25.98,337.78 		"/>
		<polygon style="fill:#575756;" points="258.9,463.83 486.25,333.03 237.84,181.11 12.87,322.12 		"/>
		<g>
			<defs>
				<polygon id="SVGID_394_" points="258.9,463.83 486.25,333.03 237.84,181.11 12.87,322.12 				"/>
			</defs>
			<clipPath id="SVGID_5_">
				<use xlink:href="#SVGID_394_"  style="overflow:visible;"/>
			</clipPath>
			<g style="opacity:0.38;clip-path:url(#SVGID_5_);">
				<g>
					
						<line style="fill:#BF8F14;stroke:#000000;stroke-width:0.75;stroke-miterlimit:10;" x1="225.08" y1="484.51" x2="530.93" y2="307.71"/>
					
						<line style="fill:#BF8F14;stroke:#000000;stroke-width:0.75;stroke-miterlimit:10;" x1="199.88" y1="469.18" x2="505.73" y2="292.37"/>
					
						<line style="fill:#BF8F14;stroke:#000000;stroke-width:0.75;stroke-miterlimit:10;" x1="174.68" y1="453.84" x2="480.53" y2="277.04"/>
					
						<line style="fill:#BF8F14;stroke:#000000;stroke-width:0.75;stroke-miterlimit:10;" x1="149.47" y1="438.51" x2="455.32" y2="261.71"/>
					
						<line style="fill:#BF8F14;stroke:#000000;stroke-width:0.75;stroke-miterlimit:10;" x1="124.27" y1="423.18" x2="430.12" y2="246.37"/>
					
						<line style="fill:#BF8F14;stroke:#000000;stroke-width:0.75;stroke-miterlimit:10;" x1="99.07" y1="407.84" x2="404.92" y2="231.04"/>
					
						<line style="fill:#BF8F14;stroke:#000000;stroke-width:0.75;stroke-miterlimit:10;" x1="73.87" y1="392.51" x2="379.72" y2="215.71"/>
					
						<line style="fill:#BF8F14;stroke:#000000;stroke-width:0.75;stroke-miterlimit:10;" x1="48.66" y1="377.18" x2="354.51" y2="200.37"/>
					
						<line style="fill:#BF8F14;stroke:#000000;stroke-width:0.75;stroke-miterlimit:10;" x1="23.46" y1="361.84" x2="329.31" y2="185.04"/>
					
						<line style="fill:#BF8F14;stroke:#000000;stroke-width:0.75;stroke-miterlimit:10;" x1="-1.74" y1="346.51" x2="304.11" y2="169.71"/>
				</g>
				<g>
					
						<line style="fill:#BF8F14;stroke:#000000;stroke-width:0.75;stroke-miterlimit:10;" x1="298.23" y1="489.66" x2="-7.62" y2="312.85"/>
					
						<line style="fill:#BF8F14;stroke:#000000;stroke-width:0.75;stroke-miterlimit:10;" x1="323.43" y1="474.32" x2="17.58" y2="297.52"/>
					
						<line style="fill:#BF8F14;stroke:#000000;stroke-width:0.75;stroke-miterlimit:10;" x1="348.63" y1="458.99" x2="42.78" y2="282.19"/>
					
						<line style="fill:#BF8F14;stroke:#000000;stroke-width:0.75;stroke-miterlimit:10;" x1="373.84" y1="443.66" x2="67.98" y2="266.85"/>
					
						<line style="fill:#BF8F14;stroke:#000000;stroke-width:0.75;stroke-miterlimit:10;" x1="399.04" y1="428.32" x2="93.19" y2="251.52"/>
					
						<line style="fill:#BF8F14;stroke:#000000;stroke-width:0.75;stroke-miterlimit:10;" x1="424.24" y1="412.99" x2="118.39" y2="236.19"/>
					
						<line style="fill:#BF8F14;stroke:#000000;stroke-width:0.75;stroke-miterlimit:10;" x1="449.44" y1="397.66" x2="143.59" y2="220.85"/>
					
						<line style="fill:#BF8F14;stroke:#000000;stroke-width:0.75;stroke-miterlimit:10;" x1="474.65" y1="382.32" x2="168.79" y2="205.52"/>
					
						<line style="fill:#BF8F14;stroke:#000000;stroke-width:0.75;stroke-miterlimit:10;" x1="499.85" y1="366.99" x2="194" y2="190.19"/>
					
						<line style="fill:#BF8F14;stroke:#000000;stroke-width:0.75;stroke-miterlimit:10;" x1="525.05" y1="351.66" x2="219.2" y2="174.85"/>
				</g>
			</g>
		</g>
		<polygon style="fill:#C6C6C6;" points="307.09,229.34 307.66,59.58 487.42,163.14 487.42,332.26 		"/>
		<path style="fill:#C6C6C6;" d="M201.06,213.59c0.26-0.12,0.52-0.24,0.78-0.35c1-0.43,2.02-0.85,3.05-1.24
			c0.17-0.07,0.35-0.13,0.53-0.19c0.88-0.33,1.77-0.64,2.68-0.94c0.37-0.12,0.74-0.24,1.11-0.36c0.5-0.16,0.99-0.31,1.49-0.46
			c0.42-0.12,0.84-0.25,1.27-0.36c0.51-0.14,1.01-0.28,1.53-0.41c0.43-0.11,0.86-0.22,1.29-0.32c0.52-0.13,1.04-0.24,1.57-0.36
			c0.43-0.1,0.86-0.19,1.3-0.28c0.53-0.11,1.07-0.21,1.6-0.32c0.41-0.08,0.82-0.16,1.23-0.23c1.15-0.2,2.31-0.39,3.47-0.55
			c0.15-0.02,0.31-0.04,0.46-0.06c1.03-0.14,2.06-0.26,3.09-0.37c0.39-0.04,0.78-0.08,1.17-0.11c0.66-0.06,1.32-0.12,1.98-0.16
			c0.41-0.03,0.83-0.06,1.25-0.09c0.69-0.04,1.38-0.07,2.07-0.1c0.39-0.02,0.78-0.04,1.17-0.05c0.6-0.02,1.2-0.03,1.8-0.03
			c0.42-0.01,0.84-0.02,1.25-0.02c0.64,0,1.29,0.01,1.93,0.02c0.37,0.01,0.74,0.01,1.12,0.02c0.6,0.02,1.2,0.04,1.79,0.07
			c0.4,0.02,0.79,0.03,1.19,0.05c0.66,0.04,1.32,0.09,1.98,0.13c0.33,0.02,0.67,0.04,1,0.07c0.89,0.07,1.79,0.16,2.67,0.26
			c0.09,0.01,0.19,0.02,0.28,0.03c0.98,0.11,1.96,0.23,2.93,0.37c0.21,0.03,0.42,0.07,0.63,0.1c0.78,0.12,1.56,0.23,2.34,0.37
			c0.36,0.06,0.71,0.13,1.06,0.2c0.62,0.11,1.25,0.23,1.86,0.35c0.34,0.07,0.67,0.15,1.01,0.22c0.68,0.15,1.36,0.3,2.03,0.46
			c0.39,0.09,0.77,0.19,1.15,0.29c0.62,0.16,1.24,0.32,1.85,0.49c0.35,0.1,0.71,0.2,1.06,0.3c0.98,0.29,1.95,0.59,2.91,0.9
			c0.16,0.05,0.33,0.1,0.49,0.16c1.09,0.37,2.17,0.77,3.23,1.18c0.43,0.17,0.86,0.34,1.29,0.52c0.34,0.14,0.68,0.28,1.01,0.42
			c0.48,0.21,0.96,0.42,1.43,0.64c0.31,0.14,0.62,0.04,0.92,0.18c0.52,0.25,1.03,0.5,1.54,0.76c0.25,0.13,0.5,0.24,0.74,0.37
			c0.75,0.39,1.48,0.79,2.2,1.21l0.13-171.53c-0.72-0.42-1.46-0.82-2.2-1.21c-0.24-0.13-0.5-0.25-0.74-0.37
			c-0.51-0.26-1.02-0.52-1.54-0.76c-0.3-0.14-0.61-0.28-0.92-0.42c-0.47-0.22-0.95-0.43-1.43-0.64c-0.33-0.14-0.67-0.28-1.01-0.42
			c-0.32-0.13-0.64-0.27-0.96-0.4c-0.11-0.04-0.22-0.08-0.32-0.12c-1.06-0.41-2.14-0.81-3.23-1.18c-0.16-0.05-0.32-0.1-0.48-0.16
			c-0.96-0.32-1.93-0.62-2.92-0.91c-0.16-0.05-0.32-0.1-0.48-0.15c-0.19-0.05-0.39-0.1-0.58-0.15c-0.61-0.17-1.23-0.33-1.85-0.49
			c-0.38-0.1-0.76-0.2-1.15-0.29c-0.67-0.16-1.35-0.31-2.03-0.46c-0.26-0.06-0.52-0.12-0.78-0.18c-0.08-0.02-0.15-0.03-0.23-0.04
			c-0.62-0.13-1.24-0.24-1.86-0.35c-0.36-0.07-0.71-0.14-1.06-0.2c-0.77-0.13-1.55-0.25-2.33-0.37c-0.2-0.03-0.4-0.07-0.6-0.09
			c-0.01,0-0.03,0-0.04,0c-0.97-0.14-1.95-0.26-2.93-0.37c-0.1-0.01-0.19-0.02-0.29-0.03c-0.89-0.1-1.77-0.18-2.66-0.26
			c-0.02,0-0.03,0-0.05,0c-0.32-0.03-0.63-0.04-0.95-0.06c-0.66-0.05-1.32-0.1-1.98-0.13c-0.4-0.02-0.79-0.03-1.19-0.05
			c-0.6-0.03-1.2-0.05-1.79-0.07c-0.05,0-0.09,0-0.14-0.01c-0.32-0.01-0.65,0-0.97-0.01c-0.65-0.01-1.29-0.02-1.94-0.02
			c-0.41,0-0.83,0.01-1.24,0.02c-0.6,0.01-1.2,0.02-1.81,0.03c-0.11,0-0.22,0-0.33,0.01c-0.28,0.01-0.55,0.03-0.83,0.04
			c-0.69,0.03-1.38,0.06-2.07,0.1c-0.42,0.03-0.83,0.06-1.25,0.09c-0.66,0.05-1.32,0.1-1.98,0.16c-0.23,0.02-0.47,0.04-0.7,0.06
			c-0.16,0.02-0.31,0.04-0.47,0.06c-1.03,0.11-2.07,0.23-3.09,0.37c-0.15,0.02-0.31,0.04-0.46,0.06c-1.17,0.16-2.32,0.35-3.47,0.55
			c-0.11,0.02-0.22,0.03-0.33,0.05c-0.3,0.05-0.6,0.12-0.9,0.18c-0.54,0.1-1.07,0.2-1.6,0.32c-0.43,0.09-0.87,0.19-1.3,0.28
			c-0.52,0.12-1.05,0.24-1.57,0.36c-0.43,0.1-0.86,0.21-1.29,0.32c-0.51,0.13-1.02,0.27-1.53,0.41c-0.43,0.12-0.85,0.24-1.27,0.36
			c-0.5,0.15-1,0.3-1.49,0.45c-0.22,0.07-0.45,0.13-0.67,0.2c-0.15,0.05-0.3,0.11-0.45,0.16c-0.9,0.3-1.8,0.61-2.68,0.94
			c-0.17,0.06-0.35,0.12-0.53,0.19c-1.04,0.39-2.05,0.81-3.05,1.24c-0.26,0.11-0.52,0.23-0.78,0.35c-0.77,0.34-1.52,0.7-2.26,1.07
			c-0.28,0.14-0.56,0.27-0.83,0.42c-0.96,0.49-1.9,0.99-2.81,1.52l-0.13,171.77c0.91-0.53,1.86-1.03,2.81-1.52
			c0.27-0.14,0.55-0.28,0.83-0.42C199.54,214.29,200.3,213.94,201.06,213.59z"/>
		<g>
			<polygon style="fill:#C6C6C6;" points="195.29,44.6 195.16,216.37 13.4,321.6 13.53,149.83 			"/>
		</g>
		<g>
			<polygon style="fill:#C6C6C6;" points="341.42,79.03 342,249.63 281.83,216.6 281.97,44.6 			"/>
		</g>
		
			<line style="fill:#0D352F;stroke:#000000;stroke-width:1.8679;stroke-miterlimit:10;" x1="242.29" y1="111.58" x2="242.29" y2="34.33"/>
		<polyline style="fill:#3C3C3B;" points="457.54,349.67 462.88,355.44 464.09,354.9 495.25,336.86 487.81,332.26 458.15,349.32 		
			"/>
		<polygon style="fill:#3C3C3B;" points="4.76,317.25 4.75,324.24 26.52,337.56 28.9,332.84 		"/>
		<path style="fill:#3C3C3B;" d="M232.45,114.32c-5.23,3.35-11.25,8.86-14.91,17.63h25.01h24.47c-3.59-8.61-9.27-14.08-14.24-17.44
			C246.68,110.36,238.67,110.34,232.45,114.32z"/>
		<g>
			<defs>
				<polygon id="SVGID_396_" points="302,218.54 300.74,141.72 366.83,180.17 309.63,221.61 				"/>
			</defs>
			<clipPath id="SVGID_7_">
				<use xlink:href="#SVGID_396_"  style="overflow:visible;"/>
			</clipPath>
		</g>
		<g>
			<defs>
				<polygon id="SVGID_398_" points="302,218.54 300.74,141.72 366.83,180.17 309.63,221.61 				"/>
			</defs>
			<clipPath id="SVGID_9_">
				<use xlink:href="#SVGID_398_"  style="overflow:visible;"/>
			</clipPath>
		</g>
		<g>
			<defs>
				<path id="SVGID_400_" d="M208.4,194.91c0,0,3.3,5.89,9.1,4.2c3.17-0.93,3.58,7.75,3.58,7.75s-2.13,5.23-2.43,5.31
					c-0.31,0.08-10.25,0.77-10.25,0.77l-6.08-11.23l4.13-6.9L208.4,194.91z"/>
			</defs>
			<clipPath id="SVGID_11_">
				<use xlink:href="#SVGID_400_"  style="overflow:visible;"/>
			</clipPath>
		</g>
		<g>
			<defs>
				<path id="SVGID_402_" d="M194.36,260.78l5.93,6.59c4.33,4.81,9.29,9,14.76,12.47l2.31,1.46l-7.06,35.52l-16.96-8.86l2.07-22.74
					L194.36,260.78z"/>
			</defs>
			<clipPath id="SVGID_13_">
				<use xlink:href="#SVGID_402_"  style="overflow:visible;"/>
			</clipPath>
		</g>
		<g style="opacity:0.5;">
			<defs>
				<path id="SVGID_404_" style="opacity:0.5;" d="M356.09,299.13l-12.16,59.27l26.02-14.15l4.44-17.6c0,0,1.89-22.27,1.89-23.02
					c0-0.75-4.64-12.82-4.64-12.82l-21.98,2.45l1.88,1.83L356.09,299.13z"/>
			</defs>
			<clipPath id="SVGID_15_">
				<use xlink:href="#SVGID_404_"  style="overflow:visible;"/>
			</clipPath>
		</g>
		<path style="fill:none;" d="M352.48,309.06l-19.2,61.55l-9.01-2.24l0.47-1.02c8.21-7.74,7.24-21.07,7.67-32.21l0.19-5.03
			l-2.02-8.83c-0.01-0.06-0.05-0.12-0.09-0.17l-4.09-4.05c0,0,3.28-11.65,5.27-11.94c1.99-0.29,12.98-0.75,12.98-0.75L352.48,309.06
			z"/>
		<g>
			<polygon style="fill:#575756;" points="331.39,100.56 417.46,147.9 417.46,229.56 331.39,180.69 			"/>
			<g>
				<polygon style="opacity:0.84;fill:#575756;" points="337.62,101.98 337.62,176.05 417.46,222.12 417.46,229.56 331.39,180.69 
					331.39,100.56 				"/>
				<polygon style="fill:#575756;" points="337.62,176.05 417.46,222.12 417.46,229.56 331.39,180.69 				"/>
			</g>
		</g>
		<g>
			<path style="fill:#DADADA;" d="M73.38,295.68l-2.71,19.19c-0.45,3.18-4.31,5.53-8.65,5.55c-4.35,0.01-8.21-2.31-8.67-5.49
				l-2.78-19.17L73.38,295.68z"/>
			<path style="fill:#9D9D9C;" d="M50.55,295.76c0.01,4.09,5.12,7.38,11.42,7.36c6.3-0.02,11.41-3.35,11.4-7.44
				c-0.01-4.09-5.12-7.38-11.42-7.36C55.65,288.34,50.55,291.67,50.55,295.76z"/>
			<path style="fill:#706F6F;" d="M52.83,295.66c0.01,3.2,4.1,5.77,9.15,5.76c5.05-0.02,9.14-2.62,9.13-5.82
				c0-3.2-4.1-5.77-9.15-5.75C56.91,289.86,52.82,292.46,52.83,295.66z"/>
			<path style="fill:#3C3C3B;" d="M61.96,293.63c-4,0.01-7.39,1.65-8.62,3.92c1.24,2.26,4.64,3.88,8.63,3.86
				c4-0.01,7.39-1.65,8.62-3.92C69.35,295.23,65.96,293.61,61.96,293.63z"/>
		</g>
		<g>
			<g>
				<polygon id="XMLID_8_" style="fill:#575756;" points="178.52,182.31 181.46,117.49 178.52,115.66 79.4,172.89 79.4,239.5 
					82.35,241.32 				"/>
				<polygon id="XMLID_7_" style="fill:#878787;" points="181.46,184.13 181.46,117.49 82.35,174.71 82.35,241.32 				"/>
				<polygon id="XMLID_5_" style="fill:#3C3C3B;" points="86.19,231.04 86.19,177.17 177.62,124.38 177.62,178.29 				"/>
			</g>
			<g>
				<polygon style="fill:#706F6F;" points="187.55,184.69 181.46,181.33 82.35,238.56 88.12,242.2 				"/>
				<polygon style="fill:#575756;" points="88.12,244.65 88.12,242.2 187.55,184.69 187.55,187.14 				"/>
				<polygon style="fill:#575756;" points="82.35,241.32 88.12,244.65 88.12,242.2 82.35,238.56 				"/>
			</g>
			<g>
				<path style="fill:#FDFDFD;" d="M164.67,194.18c-0.34,0-0.67-0.17-0.86-0.48c-0.29-0.47-0.15-1.1,0.32-1.39l6.35-3.6
					c0.47-0.29,1.1-0.15,1.39,0.32c0.29,0.47,0.15,1.1-0.32,1.39l-6.35,3.6C165.04,194.13,164.86,194.18,164.67,194.18z"/>
				<path style="fill:#FDFDFD;" d="M134.66,211.87c-0.34,0-0.67-0.17-0.86-0.48c-0.29-0.47-0.15-1.1,0.32-1.39l6.35-3.6
					c0.47-0.29,1.1-0.15,1.39,0.32c0.29,0.47,0.15,1.1-0.32,1.39l-6.35,3.6C135.03,211.82,134.84,211.87,134.66,211.87z"/>
				<path style="fill:#FDFDFD;" d="M104.65,229.56c-0.34,0-0.67-0.17-0.86-0.48c-0.29-0.47-0.15-1.1,0.32-1.39l6.35-3.6
					c0.47-0.29,1.1-0.15,1.39,0.32c0.29,0.47,0.15,1.1-0.32,1.39l-6.35,3.6C105.01,229.51,104.83,229.56,104.65,229.56z"/>
			</g>
		</g>
		<g>
			<g>
				<g>
					<g>
						<g style="enable-background:new    ;">
							<path style="fill:#878787;" d="M235.05,235.83c-0.35,3.87-3.99,6.49-7.27,7.91c-3.58,1.54-7.51,2.16-11.39,2.11
								c-3.96-0.05-8-0.81-11.57-2.57c-3.12-1.53-6.42-4.31-6.41-8.1c-0.01,2.75,0.19,5.03,2.17,7.18c2.56,2.77,6.4,4.26,10.02,5.01
								c7.06,1.46,16.67,0.75,22.04-4.68c2.16-2.19,2.45-4.49,2.46-7.4C235.08,235.48,235.07,235.66,235.05,235.83z"/>
							<g>
								<path style="fill:#C6C6C6;" d="M229.67,227.73c7.19,4.15,7.23,10.88,0.09,15.03c-7.14,4.15-18.76,4.15-25.95,0
									c-7.19-4.15-7.22-10.88-0.08-15.03C210.88,223.58,222.49,223.58,229.67,227.73z"/>
							</g>
						</g>
					</g>
					<g>
						<g style="enable-background:new    ;">
							<g>
								<polygon style="fill:#FFBE3D;" points="220.02,219.34 219.97,235.38 217.17,237.01 217.21,220.97 								"/>
							</g>
							<g>
								<polygon style="fill:#B17746;" points="217.21,220.97 217.17,237.01 214.34,235.38 214.39,219.34 								"/>
							</g>
							<g>
								<polygon style="fill:#4DA5DC;" points="220.02,219.34 217.21,220.97 214.39,219.34 217.19,217.71 								"/>
							</g>
						</g>
					</g>
				</g>
				<path style="fill:#878787;" d="M198.97,167.35c0,0-5.75,1.53-7.28,4.98c-1.53,3.45-1.15,29.51,6.9,40.25
					c8.05,10.73,23,12.27,26.45,10.73s23.38-11.5,24.92-16.48c1.53-4.98-6.13-8.82-10.35-10.73c-4.22-1.92-6.9-4.6-9.2-11.5
					c-2.3-6.9-3.45-18.78-6.13-20.7C221.58,161.98,215.06,158.92,198.97,167.35z"/>
			</g>
		</g>
		<g>
			<g>
				<g>
					<polygon style="fill:#706F6F;" points="213.93,214.28 213.93,251.71 211.44,253.22 211.44,215.72 					"/>
					<polygon style="fill:#B2B2B2;" points="211.44,253.22 209.17,251.93 209.17,217.04 211.44,215.72 					"/>
				</g>
				<polygon style="fill:#706F6F;" points="274.93,247.52 274.93,222.63 246.27,211.02 246.27,231.3 				"/>
				<polygon style="fill:#B2B2B2;" points="236.26,248.87 236.26,226.4 207.6,214.79 207.6,232.65 				"/>
				<g>
					<polygon style="fill:#706F6F;" points="241,229.86 241,267.29 238.51,268.81 238.51,231.31 					"/>
					<polygon style="fill:#B2B2B2;" points="238.51,268.81 236.24,267.51 236.24,232.62 238.51,231.31 					"/>
				</g>
				<polygon style="fill:#B2B2B2;" points="236.26,248.87 293.08,217.43 293.08,197.66 236.26,229.37 				"/>
				<polygon style="fill:#B2B2B2;" points="274.93,247.52 293.08,237.38 293.08,215.2 274.93,225.6 				"/>
				<polygon style="opacity:0.28;fill:#706F6F;" points="241,232.15 288.34,205.76 288.34,214.64 241,240.81 				"/>
				<g>
					<polygon style="fill:#706F6F;" points="203.26,214.79 236.6,233.76 297.03,198.79 297.03,196.32 263.75,180.16 203.26,212.32 
											"/>
					<polygon style="fill:#DADADA;" points="203.26,212.32 236.6,231.3 297.03,196.32 263.75,177.69 					"/>
				</g>
			</g>
			<g>
				<polygon style="fill:#3C3C3B;" points="217.51,209.42 226.33,214.44 250.23,200.82 250.23,199.8 241.42,195.88 217.51,208.4 
									"/>
				<polygon style="fill:#B2B2B2;" points="217.51,208.4 226.33,213.42 250.23,199.8 241.42,194.87 				"/>
			</g>
			<g>
				<g>
					<path style="fill:#9D9D9C;" d="M283.21,193.96v-4.48c0-0.57-0.62-0.91-1.1-0.62l-11.79,7.13v5.81l12.54-7.22
						C283.08,194.45,283.21,194.21,283.21,193.96z"/>
					<path style="fill:#575756;" d="M282.99,188.96l-16.63-9.74c-0.6-0.35-1.33-0.35-1.93,0l-11.31,6.63l17.21,10.14L282.99,188.96z
						"/>
					<polygon style="fill:#9D9D9C;" points="270.32,201.8 253.11,191.75 253.11,185.84 270.32,195.98 					"/>
					<path style="fill:#FDFDFD;" d="M281.66,193.84v-2.41c0-0.37-0.39-0.6-0.71-0.42l-10.62,5.97l-17.21-9.92v3.73l17.21,10
						l11.1-6.54C281.57,194.16,281.66,194.01,281.66,193.84z"/>
				</g>
				<g>
					<path style="fill:#878787;" d="M283.21,188.14v-4.48c0-0.57-0.62-0.91-1.1-0.62l-11.79,7.13v5.81l12.54-7.22
						C283.08,188.63,283.21,188.4,283.21,188.14z"/>
					<path style="fill:#706F6F;" d="M282.99,183.14l-16.63-9.74c-0.6-0.35-1.33-0.35-1.93,0l-11.31,6.63l17.21,10.14L282.99,183.14z
						"/>
					<polygon style="fill:#878787;" points="270.32,195.98 253.11,185.94 253.11,180.03 270.32,190.17 					"/>
					<path style="fill:#FDFDFD;" d="M281.66,188.02v-2.41c0-0.37-0.39-0.6-0.71-0.42l-10.62,5.97l-17.21-9.92v3.73l17.21,10
						l11.1-6.54C281.57,188.35,281.66,188.19,281.66,188.02z"/>
				</g>
			</g>
		</g>
		<path style="fill:#1D1D1B;" d="M415.76,213v-63.61h0.75V213c0.55,0.2,0.95,0.82,0.95,1.56c0,0.9-0.6,1.63-1.33,1.63
			s-1.33-0.73-1.33-1.63C414.8,213.82,415.21,213.2,415.76,213z"/>
		<g>
			<g>
				<polygon style="fill:#F6F6F6;" points="414.13,233.95 328.85,184.26 333.14,181.79 418.42,231.48 				"/>
				<polygon style="fill:#B2B2B2;" points="418.42,232.88 418.42,231.48 414.13,233.95 414.13,235.35 				"/>
				<polygon style="fill:#9D9D9C;" points="328.85,184.26 328.85,185.66 414.13,235.35 414.13,233.95 				"/>
			</g>
			<g>
				<polygon style="fill:#F6F6F6;" points="414.13,229.35 328.85,179.66 333.14,177.19 418.42,226.88 				"/>
				<polygon style="fill:#B2B2B2;" points="418.42,228.28 418.42,226.88 414.13,229.35 414.13,230.75 				"/>
				<polygon style="fill:#9D9D9C;" points="328.85,179.66 328.85,181.06 414.13,230.75 414.13,229.35 				"/>
			</g>
			<g>
				<polygon style="fill:#F6F6F6;" points="414.13,224.75 328.85,175.06 333.14,172.58 418.42,222.27 				"/>
				<polygon style="fill:#B2B2B2;" points="418.42,223.68 418.42,222.27 414.13,224.75 414.13,226.15 				"/>
				<polygon style="fill:#9D9D9C;" points="328.85,175.06 328.85,176.46 414.13,226.15 414.13,224.75 				"/>
			</g>
			<g>
				<polygon style="fill:#F6F6F6;" points="414.13,220.15 328.85,170.46 333.14,167.98 418.42,217.67 				"/>
				<polygon style="fill:#B2B2B2;" points="418.42,219.08 418.42,217.67 414.13,220.15 414.13,221.55 				"/>
				<polygon style="fill:#9D9D9C;" points="328.85,170.46 328.85,171.86 414.13,221.55 414.13,220.15 				"/>
			</g>
			<g>
				<polygon style="fill:#F6F6F6;" points="414.13,215.55 328.85,165.86 333.14,163.38 418.42,213.07 				"/>
				<polygon style="fill:#B2B2B2;" points="418.42,214.47 418.42,213.07 414.13,215.55 414.13,216.95 				"/>
				<polygon style="fill:#9D9D9C;" points="328.85,165.86 328.85,167.26 414.13,216.95 414.13,215.55 				"/>
			</g>
			<g>
				<polygon style="fill:#F6F6F6;" points="414.13,210.95 328.85,161.26 333.14,158.78 418.42,208.47 				"/>
				<polygon style="fill:#B2B2B2;" points="418.42,209.87 418.42,208.47 414.13,210.95 414.13,212.35 				"/>
				<polygon style="fill:#9D9D9C;" points="328.85,161.26 328.85,162.66 414.13,212.35 414.13,210.95 				"/>
			</g>
			<g>
				<g>
					<polygon style="fill:#F6F6F6;" points="414.13,206.35 328.85,156.66 333.14,154.18 418.42,203.87 					"/>
					<polygon style="fill:#B2B2B2;" points="418.42,205.27 418.42,203.87 414.13,206.35 414.13,207.75 					"/>
					<polygon style="fill:#9D9D9C;" points="328.85,156.66 328.85,158.06 414.13,207.75 414.13,206.35 					"/>
				</g>
				<polygon style="fill:#F6F6F6;" points="414.13,201.74 328.85,152.06 333.14,149.58 418.42,199.27 				"/>
				<polygon style="fill:#B2B2B2;" points="418.42,200.67 418.42,199.27 414.13,201.74 414.13,203.15 				"/>
				<polygon style="fill:#9D9D9C;" points="328.85,152.06 328.85,153.46 414.13,203.15 414.13,201.74 				"/>
			</g>
			<g>
				<polygon style="fill:#F6F6F6;" points="414.13,197.14 328.85,147.45 333.14,144.98 418.42,194.67 				"/>
				<polygon style="fill:#B2B2B2;" points="418.42,196.07 418.42,194.67 414.13,197.14 414.13,198.55 				"/>
				<polygon style="fill:#9D9D9C;" points="328.85,147.45 328.85,148.86 414.13,198.55 414.13,197.14 				"/>
			</g>
			<g>
				<polygon style="fill:#F6F6F6;" points="414.13,192.54 328.85,142.85 333.14,140.38 418.42,190.07 				"/>
				<polygon style="fill:#B2B2B2;" points="418.42,191.47 418.42,190.07 414.13,192.54 414.13,193.94 				"/>
				<polygon style="fill:#9D9D9C;" points="328.85,142.85 328.85,144.25 414.13,193.94 414.13,192.54 				"/>
			</g>
		</g>
		<linearGradient id="SVGID_17_" gradientUnits="userSpaceOnUse" x1="341.6723" y1="328.9227" x2="355.9315" y2="314.6636">
			<stop  offset="0" style="stop-color:#FFF961"/>
			<stop  offset="0.2203" style="stop-color:#FFE253"/>
			<stop  offset="0.4788" style="stop-color:#FFCE47"/>
			<stop  offset="0.7387" style="stop-color:#FFC23F"/>
			<stop  offset="1" style="stop-color:#FFBE3D"/>
		</linearGradient>
		<path style="fill:url(#SVGID_17_);" d="M354.24,312.97l-3.85,13.96l-6.86,3.85v-7.42c0-2.6,1.39-5,3.64-6.3L354.24,312.97z"/>
		<linearGradient id="SVGID_19_" gradientUnits="userSpaceOnUse" x1="235.0781" y1="328.4349" x2="249.3373" y2="314.1758">
			<stop  offset="0" style="stop-color:#FFF961"/>
			<stop  offset="0.2203" style="stop-color:#FFE253"/>
			<stop  offset="0.4788" style="stop-color:#FFCE47"/>
			<stop  offset="0.7387" style="stop-color:#FFC23F"/>
			<stop  offset="1" style="stop-color:#FFBE3D"/>
		</linearGradient>
		<path style="fill:url(#SVGID_19_);" d="M248.4,313.23l-10.71,17.81v-7.42c0-2.6,1.39-5,3.64-6.3L248.4,313.23z"/>
		<linearGradient id="SVGID_21_" gradientUnits="userSpaceOnUse" x1="224.506" y1="333.2877" x2="231.7801" y2="326.0136">
			<stop  offset="0" style="stop-color:#FFF961"/>
			<stop  offset="0.3825" style="stop-color:#FFDC4F"/>
			<stop  offset="0.7582" style="stop-color:#FFC642"/>
			<stop  offset="1" style="stop-color:#FFBE3D"/>
		</linearGradient>
		<path style="fill:url(#SVGID_21_);" d="M223.39,322.66c1.33,0.12,2.62,0.51,3.76,1.19c0.85,0.5,1.97,1.22,3.37,2.26
			c3.74,2.77,7.85,6.49,7.85,6.49l-0.27,1.32l-3.1,1.65c0,0-10.06-9.63-17.61-9.39L223.39,322.66L223.39,322.66z"/>
		<linearGradient id="SVGID_23_" gradientUnits="userSpaceOnUse" x1="290.2153" y1="297.0468" x2="304.4744" y2="282.7876">
			<stop  offset="0" style="stop-color:#FFF961"/>
			<stop  offset="0.2203" style="stop-color:#FFE253"/>
			<stop  offset="0.4788" style="stop-color:#FFCE47"/>
			<stop  offset="0.7387" style="stop-color:#FFC23F"/>
			<stop  offset="1" style="stop-color:#FFBE3D"/>
		</linearGradient>
		<path style="fill:url(#SVGID_23_);" d="M303.53,281.85l-10.71,17.81v-7.42c0-2.6,1.39-5,3.64-6.3L303.53,281.85z"/>
		<g>
			<g>
				<path style="fill:#B2B2B2;" d="M335.78,281.76c-0.07,0-0.15-0.01-0.22-0.03c-0.4-0.13-0.62-0.55-0.49-0.94l6.21-19.75
					c0.12-0.4,0.55-0.62,0.94-0.49c0.4,0.13,0.62,0.55,0.49,0.94l-6.21,19.75C336.4,281.55,336.1,281.76,335.78,281.76z"/>
				<path style="fill:#C6C6C6;" d="M348.04,269.32c-0.37,0-0.75-0.09-1.1-0.27l-9.26-4.83c-0.79-0.41-1.27-1.21-1.27-2.1v-14.04
					c0-0.81,0.41-1.56,1.1-2c0.69-0.44,1.54-0.49,2.27-0.15l9.26,4.32c0.83,0.39,1.37,1.23,1.37,2.15v14.54
					c0,0.84-0.43,1.59-1.14,2.03C348.89,269.21,348.46,269.32,348.04,269.32z M338.77,247.22c-0.16,0-0.32,0.05-0.46,0.14
					c-0.26,0.16-0.4,0.43-0.4,0.73v14.04c0,0.33,0.18,0.62,0.47,0.77l9.26,4.83c0.28,0.14,0.59,0.13,0.85-0.03
					c0.27-0.16,0.42-0.43,0.42-0.74v-14.54c0-0.34-0.2-0.65-0.5-0.79l-9.26-4.32C339.02,247.25,338.9,247.22,338.77,247.22z"/>
				<g>
					<path style="fill:#706F6F;" d="M357.66,250.51L357.66,250.51l0-1.26l-1.12-0.25c0,0,0.02,0.1,0.04,0.24l-24.79-14.78
						c-1.16-0.69-2.59-0.7-3.76-0.03l-22.27,12.84l-0.17-0.3l-1.38,0.59v1.46c0,0.02,0,0.03,0,0.05v0.04l0.01,0
						c0.02,0.49,0.27,0.97,0.76,1.25l11.7,6.61c1.26,0.71,2.79,0.72,4.06,0.02l10.86-5.97c1.96-1.08,4.34-1.08,6.3-0.02l8.39,4.82
						c1.35,0.73,2.98,0.68,4.28-0.13l6.51-4.08C357.5,251.38,357.68,250.94,357.66,250.51z"/>
					<path style="fill:#DADADA;" d="M304.97,246.32l23.06-13.3c1.17-0.67,2.6-0.66,3.76,0.03l25.27,15.07
						c0.8,0.47,0.81,1.62,0.02,2.11l-6.51,4.08c-1.3,0.81-2.93,0.86-4.28,0.13l-8.39-4.82c-1.97-1.07-4.34-1.06-6.3,0.02
						l-10.86,5.97c-1.27,0.7-2.8,0.69-4.06-0.02l-11.7-6.61C303.96,248.38,303.95,246.9,304.97,246.32z"/>
				</g>
				<path style="fill:#878787;" d="M334.93,301.04c-0.38,0-0.7-0.28-0.74-0.67l-2.72-23.81c-0.05-0.41,0.25-0.78,0.66-0.83
					c0.41-0.04,0.78,0.25,0.83,0.66l2.72,23.81c0.05,0.41-0.25,0.78-0.66,0.83C334.99,301.03,334.96,301.04,334.93,301.04z"/>
				<path style="fill:#878787;" d="M318.33,292.26c-0.07,0-0.15-0.01-0.22-0.03c-0.4-0.13-0.62-0.55-0.49-0.94l6.21-19.74
					c0.12-0.4,0.55-0.62,0.94-0.49c0.4,0.13,0.62,0.55,0.49,0.94l-6.21,19.74C318.95,292.06,318.65,292.26,318.33,292.26z"/>
				<path style="fill:#9D9D9C;" d="M352.38,290.53c-0.38,0-0.7-0.28-0.74-0.67l-2.72-23.81c-0.05-0.41,0.25-0.78,0.66-0.83
					c0.41-0.04,0.78,0.25,0.83,0.66l2.72,23.81c0.05,0.41-0.25,0.78-0.66,0.83C352.43,290.53,352.41,290.53,352.38,290.53z"/>
				<g>
					<path style="fill:#878787;" d="M351.52,271.95l-15.58,8.53c0,0-5.4-4.66-9.57-6.99c-4.17-2.33-8.04-2.39-8.04-2.39v-1.79
						l15.23-7.14c0,0,7.4-0.21,11.88,2.74c3.36,2.21,6.07,5.26,6.07,5.26V271.95z"/>
					<path style="fill:#C6C6C6;" d="M351.52,270.16l-15.58,8.53c0,0-5.4-4.66-9.57-6.99c-4.17-2.33-8.04-2.39-8.04-2.39l15.23-8.93
						c0,0,7.4-0.21,11.88,2.74C349.94,266.05,351.52,270.16,351.52,270.16z"/>
				</g>
				<path style="fill:#9D9D9C;" d="M339.96,272.36c-0.01,0.05-0.96,5.09-1.52,7.37c-0.13,0.53-0.38,0.88-0.7,0.97
					c-0.22,0.06-0.45-0.01-0.62-0.18c-0.19-0.19-0.26-0.24-0.25-0.55l-0.91,0.5c0.08,0.36,0.2,0.51,0.45,0.76
					c0.32,0.32,0.74,0.49,1.16,0.49c0.14,0,0.29-0.02,0.43-0.06c0.67-0.19,1.18-0.81,1.4-1.69c0.56-2.3,1.52-7.37,1.53-7.42
					L339.96,272.36z"/>
				<g>
					<path style="fill:#878787;" d="M355.32,253.96l0.66-0.49l-1.43-0.91l0,0c-0.49-0.31-1.14-0.38-1.72-0.04l-12.32,7.17
						c-2.08,1.21-3.35,3.43-3.35,5.83v7.71l1.48,0.95l18.16-10.19L355.32,253.96z"/>
					<path style="fill:#9D9D9C;" d="M356.8,263.98l-18.16,10.19v-7.71c0-2.4,1.28-4.62,3.35-5.83l12.32-7.17
						c1.1-0.64,2.49,0.15,2.49,1.43V263.98z"/>
				</g>
				<path style="fill:#9D9D9C;" d="M353.93,263.82c-0.01,0.05-0.96,5.09-1.52,7.37c-0.13,0.52-0.38,0.88-0.7,0.96
					c-0.18,0.05-0.31,0.06-0.47-0.05l-0.91,0.5c0,0.02,0.02,0.05,0.05,0.08c0.32,0.32,0.74,0.49,1.16,0.49
					c0.14,0,0.29-0.02,0.43-0.06c0.67-0.19,1.18-0.81,1.4-1.69c0.56-2.3,1.52-7.37,1.53-7.42L353.93,263.82z"/>
			</g>
		</g>
		<g>
			<path style="fill:#878787;" d="M334.75,243.3c-0.16-0.13-0.4-0.22-0.6-0.09l-8.53,5.16v4.21l9.07-5.23
				c0.03-0.02,0.04-0.04,0.06-0.06V243.3z"/>
			<polygon style="fill:#706F6F;" points="325.62,252.58 313.16,245.31 313.16,241.03 325.62,248.37 			"/>
			<path style="fill:#706F6F;" d="M334.79,243.28l-12.04-7.05c-0.43-0.25-0.97-0.25-1.4,0l-8.19,4.8l12.46,7.34L334.79,243.28z"/>
			<polygon style="fill:#FDFDFD;" points="326.36,248.67 326.36,251.41 334.75,246.51 334.75,243.95 			"/>
		</g>
		<g>
			<g>
				<g>
					<path style="fill:#B2B2B2;" d="M386.49,312.85c-0.07,0-0.15-0.01-0.22-0.03c-0.4-0.13-0.62-0.55-0.49-0.94l6.21-19.75
						c0.12-0.4,0.55-0.62,0.94-0.49c0.4,0.13,0.62,0.55,0.49,0.94l-6.21,19.75C387.1,312.64,386.81,312.85,386.49,312.85z"/>
					<path style="fill:#C6C6C6;" d="M398.74,300.41c-0.37,0-0.75-0.09-1.1-0.27l-9.26-4.83c-0.79-0.41-1.27-1.21-1.27-2.1v-14.04
						c0-0.81,0.41-1.56,1.1-2c0.69-0.44,1.54-0.49,2.27-0.15l9.26,4.32c0.83,0.39,1.37,1.23,1.37,2.15v14.54
						c0,0.83-0.43,1.59-1.14,2.03C399.59,300.3,399.17,300.41,398.74,300.41z M389.48,278.31c-0.16,0-0.32,0.05-0.46,0.14
						c-0.26,0.16-0.4,0.43-0.4,0.73v14.04c0,0.33,0.18,0.62,0.47,0.77l9.26,4.83c0.28,0.14,0.59,0.13,0.85-0.03
						c0.27-0.16,0.42-0.43,0.42-0.74V283.5c0-0.34-0.2-0.65-0.5-0.79l-9.26-4.32C389.73,278.34,389.6,278.31,389.48,278.31z"/>
					<g>
						<path style="fill:#706F6F;" d="M408.36,281.6L408.36,281.6l0-1.26l-1.12-0.25c0,0,0.02,0.1,0.04,0.24l-24.79-14.78
							c-1.16-0.69-2.59-0.7-3.76-0.03l-22.27,12.84l-0.17-0.3l-1.38,0.59v1.46c0,0.02,0,0.03,0,0.05v0.04l0.01,0
							c0.02,0.49,0.27,0.97,0.76,1.25l11.7,6.61c1.26,0.71,2.79,0.72,4.06,0.02l10.86-5.97c1.96-1.08,4.34-1.08,6.3-0.02l8.39,4.82
							c1.35,0.73,2.98,0.68,4.28-0.13l6.51-4.08C408.2,282.47,408.39,282.03,408.36,281.6z"/>
						<path style="fill:#DADADA;" d="M355.67,277.4l23.06-13.3c1.17-0.67,2.6-0.66,3.76,0.03l25.27,15.07
							c0.8,0.47,0.81,1.62,0.02,2.11l-6.51,4.08c-1.3,0.81-2.93,0.86-4.28,0.13l-8.39-4.82c-1.97-1.07-4.34-1.06-6.3,0.02
							l-10.86,5.97c-1.27,0.7-2.8,0.69-4.06-0.02l-11.7-6.61C354.66,279.46,354.66,277.99,355.67,277.4z"/>
					</g>
					<path style="fill:#878787;" d="M385.63,332.13c-0.38,0-0.7-0.28-0.74-0.67l-2.72-23.81c-0.05-0.41,0.25-0.78,0.66-0.83
						c0.41-0.04,0.78,0.25,0.83,0.66l2.72,23.81c0.05,0.41-0.25,0.78-0.66,0.83C385.69,332.12,385.66,332.13,385.63,332.13z"/>
					<path style="fill:#878787;" d="M369.04,323.35c-0.07,0-0.15-0.01-0.22-0.03c-0.4-0.13-0.62-0.55-0.49-0.94l6.21-19.74
						c0.12-0.4,0.55-0.62,0.94-0.49c0.4,0.13,0.62,0.55,0.49,0.94l-6.21,19.74C369.65,323.15,369.36,323.35,369.04,323.35z"/>
					<path style="fill:#9D9D9C;" d="M403.08,321.62c-0.38,0-0.7-0.28-0.74-0.67l-2.72-23.81c-0.05-0.41,0.25-0.78,0.66-0.83
						c0.41-0.04,0.78,0.25,0.83,0.66l2.72,23.81c0.05,0.41-0.25,0.78-0.66,0.83C403.14,321.62,403.11,321.62,403.08,321.62z"/>
					<g>
						<path style="fill:#878787;" d="M402.23,303.04l-15.58,8.53c0,0-5.4-4.66-9.57-6.99c-4.17-2.33-8.04-2.39-8.04-2.39v-1.79
							l15.23-7.14c0,0,7.4-0.21,11.88,2.74c3.36,2.21,6.07,5.26,6.07,5.26V303.04z"/>
						<path style="fill:#C6C6C6;" d="M402.23,301.25l-15.58,8.53c0,0-5.4-4.66-9.57-6.99c-4.17-2.33-8.04-2.39-8.04-2.39l15.23-8.93
							c0,0,7.4-0.21,11.88,2.74C400.64,297.14,402.23,301.25,402.23,301.25z"/>
					</g>
					<path style="fill:#9D9D9C;" d="M390.67,303.45c-0.01,0.05-0.96,5.09-1.52,7.37c-0.13,0.53-0.38,0.88-0.7,0.97
						c-0.22,0.06-0.45-0.01-0.62-0.18c-0.19-0.19-0.26-0.24-0.25-0.55l-0.91,0.5c0.08,0.36,0.2,0.51,0.45,0.76
						c0.32,0.32,0.74,0.49,1.16,0.49c0.14,0,0.29-0.02,0.43-0.06c0.67-0.19,1.18-0.81,1.4-1.69c0.56-2.3,1.52-7.37,1.53-7.42
						L390.67,303.45z"/>
					<g>
						<path style="fill:#878787;" d="M406.02,285.05l0.66-0.49l-1.43-0.91l0,0c-0.49-0.31-1.14-0.38-1.72-0.04l-12.32,7.17
							c-2.08,1.21-3.35,3.43-3.35,5.83v7.71l1.48,0.95l18.16-10.19L406.02,285.05z"/>
						<path style="fill:#9D9D9C;" d="M407.51,295.06l-18.16,10.19v-7.71c0-2.4,1.28-4.62,3.35-5.83l12.32-7.17
							c1.1-0.64,2.49,0.15,2.49,1.43V295.06z"/>
					</g>
					<path style="fill:#9D9D9C;" d="M404.64,294.91c-0.01,0.05-0.96,5.09-1.52,7.37c-0.13,0.52-0.38,0.88-0.7,0.96
						c-0.18,0.05-0.31,0.06-0.47-0.05l-0.91,0.5c0,0.02,0.02,0.05,0.05,0.08c0.32,0.32,0.74,0.49,1.16,0.49
						c0.14,0,0.29-0.02,0.43-0.06c0.67-0.19,1.18-0.81,1.4-1.69c0.56-2.3,1.52-7.37,1.53-7.42L404.64,294.91z"/>
				</g>
			</g>
			<g>
				<path style="fill:#878787;" d="M385.46,274.39c-0.16-0.13-0.4-0.22-0.6-0.09l-8.53,5.16v4.21l9.07-5.22
					c0.03-0.02,0.04-0.04,0.06-0.06V274.39z"/>
				<polygon style="fill:#706F6F;" points="376.32,283.67 363.87,276.4 363.87,272.12 376.32,279.46 				"/>
				<path style="fill:#706F6F;" d="M385.49,274.37l-12.04-7.05c-0.43-0.25-0.97-0.25-1.4,0l-8.19,4.8l12.46,7.34L385.49,274.37z"/>
				<polygon style="fill:#FDFDFD;" points="377.07,279.76 377.07,282.5 385.46,277.6 385.46,275.04 				"/>
			</g>
		</g>
		<g>
			<g>
				<path style="fill:#B2B2B2;" d="M289.94,307.25c-0.07,0-0.15-0.01-0.22-0.03c-0.4-0.13-0.62-0.55-0.49-0.94l6.21-19.75
					c0.12-0.4,0.55-0.62,0.94-0.49c0.4,0.13,0.62,0.55,0.49,0.94l-6.21,19.75C290.55,307.04,290.26,307.25,289.94,307.25z"/>
				<path style="fill:#C6C6C6;" d="M302.19,294.81c-0.37,0-0.75-0.09-1.1-0.27l-9.26-4.83c-0.79-0.41-1.27-1.21-1.27-2.1v-14.04
					c0-0.81,0.41-1.56,1.1-2c0.69-0.44,1.54-0.49,2.27-0.15l9.26,4.32c0.83,0.39,1.37,1.23,1.37,2.15v14.54
					c0,0.83-0.43,1.59-1.14,2.03C303.04,294.69,302.62,294.81,302.19,294.81z M292.93,272.71c-0.16,0-0.32,0.05-0.46,0.14
					c-0.26,0.16-0.4,0.43-0.4,0.73v14.04c0,0.33,0.18,0.62,0.47,0.77l9.26,4.83c0.28,0.14,0.59,0.13,0.85-0.03
					c0.27-0.16,0.42-0.43,0.42-0.74V277.9c0-0.34-0.2-0.65-0.5-0.79l-9.26-4.32C293.18,272.74,293.05,272.71,292.93,272.71z"/>
				<g>
					<path style="fill:#706F6F;" d="M311.81,276L311.81,276l0-1.26l-1.12-0.25c0,0,0.02,0.1,0.04,0.24l-24.79-14.78
						c-1.16-0.69-2.59-0.7-3.76-0.03l-22.27,12.84l-0.17-0.3l-1.38,0.59v1.46c0,0.02,0,0.03,0,0.05v0.04l0.01,0
						c0.02,0.49,0.27,0.97,0.76,1.25l11.7,6.61c1.26,0.71,2.79,0.72,4.06,0.02l10.86-5.97c1.96-1.08,4.34-1.08,6.3-0.02l8.39,4.82
						c1.35,0.73,2.98,0.68,4.28-0.13l6.51-4.08C311.65,276.87,311.84,276.43,311.81,276z"/>
					<path style="fill:#DADADA;" d="M259.13,271.8l23.06-13.3c1.17-0.67,2.6-0.66,3.76,0.03l25.27,15.07
						c0.8,0.47,0.81,1.62,0.02,2.11l-6.51,4.08c-1.3,0.81-2.93,0.86-4.28,0.13l-8.39-4.82c-1.97-1.07-4.34-1.06-6.3,0.02
						l-10.86,5.97c-1.27,0.7-2.8,0.69-4.06-0.02l-11.7-6.61C258.11,273.86,258.11,272.39,259.13,271.8z"/>
				</g>
				<path style="fill:#878787;" d="M289.08,326.52c-0.38,0-0.7-0.28-0.74-0.67l-2.72-23.81c-0.05-0.41,0.25-0.78,0.66-0.83
					c0.41-0.04,0.78,0.25,0.83,0.66l2.72,23.81c0.05,0.41-0.25,0.78-0.66,0.83C289.14,326.52,289.11,326.52,289.08,326.52z"/>
				<path style="fill:#878787;" d="M272.49,317.75c-0.07,0-0.15-0.01-0.22-0.03c-0.4-0.13-0.62-0.55-0.49-0.94l6.21-19.74
					c0.12-0.4,0.55-0.62,0.94-0.49c0.4,0.13,0.62,0.55,0.49,0.94l-6.21,19.74C273.1,317.55,272.81,317.75,272.49,317.75z"/>
				<path style="fill:#9D9D9C;" d="M306.53,316.02c-0.38,0-0.7-0.28-0.74-0.67l-2.72-23.81c-0.05-0.41,0.25-0.78,0.66-0.83
					c0.41-0.04,0.78,0.25,0.83,0.66l2.72,23.81c0.05,0.41-0.25,0.78-0.66,0.83C306.59,316.02,306.56,316.02,306.53,316.02z"/>
				<g>
					<path style="fill:#878787;" d="M305.68,297.44l-15.58,8.53c0,0-5.4-4.66-9.57-6.99c-4.17-2.33-8.04-2.39-8.04-2.39v-1.79
						l15.23-7.14c0,0,7.4-0.21,11.88,2.74c3.36,2.21,6.07,5.26,6.07,5.26V297.44z"/>
					<path style="fill:#C6C6C6;" d="M305.68,295.65l-15.58,8.53c0,0-5.4-4.66-9.57-6.99c-4.17-2.33-8.04-2.39-8.04-2.39l15.23-8.93
						c0,0,7.4-0.21,11.88,2.74C304.09,291.54,305.68,295.65,305.68,295.65z"/>
				</g>
				<path style="fill:#9D9D9C;" d="M294.12,297.85c-0.01,0.05-0.96,5.09-1.52,7.37c-0.13,0.53-0.38,0.88-0.7,0.97
					c-0.22,0.06-0.45-0.01-0.62-0.18c-0.19-0.19-0.26-0.24-0.25-0.55l-0.91,0.5c0.08,0.36,0.2,0.51,0.45,0.76
					c0.32,0.32,0.74,0.49,1.16,0.49c0.14,0,0.29-0.02,0.43-0.06c0.67-0.19,1.18-0.81,1.4-1.69c0.56-2.3,1.52-7.37,1.53-7.42
					L294.12,297.85z"/>
				<g>
					<path style="fill:#878787;" d="M309.48,279.44l0.66-0.49l-1.43-0.91l0,0c-0.49-0.31-1.14-0.38-1.72-0.04l-12.32,7.17
						c-2.08,1.21-3.35,3.43-3.35,5.83v7.71l1.48,0.95l18.16-10.19L309.48,279.44z"/>
					<path style="fill:#9D9D9C;" d="M310.96,289.46l-18.16,10.19v-7.71c0-2.4,1.28-4.62,3.35-5.83l12.32-7.17
						c1.1-0.64,2.49,0.15,2.49,1.43V289.46z"/>
				</g>
				<path style="fill:#9D9D9C;" d="M308.09,289.31c-0.01,0.05-0.96,5.09-1.52,7.37c-0.13,0.52-0.38,0.88-0.7,0.96
					c-0.18,0.05-0.31,0.06-0.47-0.05l-0.91,0.5c0,0.02,0.02,0.05,0.05,0.08c0.32,0.32,0.74,0.49,1.16,0.49
					c0.14,0,0.29-0.02,0.43-0.06c0.67-0.19,1.18-0.81,1.4-1.69c0.56-2.3,1.52-7.37,1.53-7.42L308.09,289.31z"/>
			</g>
		</g>
		<g>
			<g>
				<g>
					<path style="fill:#B2B2B2;" d="M340.64,338.33c-0.07,0-0.15-0.01-0.22-0.03c-0.4-0.13-0.62-0.55-0.49-0.94l6.21-19.75
						c0.12-0.4,0.55-0.62,0.94-0.49c0.4,0.13,0.62,0.55,0.49,0.94l-6.21,19.75C341.26,338.13,340.96,338.33,340.64,338.33z"/>
					<path style="fill:#C6C6C6;" d="M352.9,325.9c-0.37,0-0.75-0.09-1.1-0.27l-9.26-4.83c-0.79-0.41-1.27-1.21-1.27-2.1v-14.04
						c0-0.81,0.41-1.56,1.1-2c0.69-0.44,1.54-0.49,2.27-0.15l9.26,4.32c0.83,0.39,1.37,1.23,1.37,2.15v14.54
						c0,0.83-0.43,1.59-1.14,2.03C353.75,325.78,353.32,325.9,352.9,325.9z M343.63,303.8c-0.16,0-0.32,0.05-0.46,0.14
						c-0.26,0.16-0.4,0.43-0.4,0.73v14.04c0,0.33,0.18,0.62,0.47,0.77l9.26,4.83c0.28,0.14,0.59,0.13,0.85-0.03
						c0.27-0.16,0.42-0.43,0.42-0.74v-14.54c0-0.34-0.2-0.65-0.5-0.79l-9.26-4.32C343.88,303.82,343.76,303.8,343.63,303.8z"/>
					<g>
						<path style="fill:#706F6F;" d="M362.52,307.09L362.52,307.09l0-1.26l-1.12-0.25c0,0,0.02,0.1,0.04,0.24l-24.79-14.78
							c-1.16-0.69-2.59-0.7-3.76-0.03l-22.27,12.84l-0.17-0.3l-1.38,0.59v1.46c0,0.02,0,0.03,0,0.05v0.04l0.01,0
							c0.02,0.49,0.27,0.97,0.76,1.25l11.7,6.61c1.26,0.71,2.79,0.72,4.06,0.02l10.86-5.97c1.96-1.08,4.34-1.08,6.3-0.02l8.39,4.82
							c1.35,0.73,2.98,0.68,4.28-0.13l6.51-4.08C362.36,307.95,362.54,307.52,362.52,307.09z"/>
						<path style="fill:#DADADA;" d="M309.83,302.89l23.06-13.3c1.17-0.67,2.6-0.66,3.76,0.03l25.27,15.07
							c0.8,0.47,0.81,1.62,0.02,2.11l-6.51,4.08c-1.3,0.81-2.93,0.86-4.28,0.13l-8.39-4.82c-1.97-1.07-4.34-1.06-6.3,0.02
							l-10.86,5.97c-1.27,0.7-2.8,0.69-4.06-0.02l-11.7-6.61C308.82,304.95,308.81,303.48,309.83,302.89z"/>
					</g>
					<path style="fill:#878787;" d="M339.79,357.61c-0.38,0-0.7-0.28-0.74-0.67l-2.72-23.81c-0.05-0.41,0.25-0.78,0.66-0.83
						c0.41-0.04,0.78,0.25,0.83,0.66l2.72,23.81c0.05,0.41-0.25,0.78-0.66,0.83C339.85,357.61,339.82,357.61,339.79,357.61z"/>
					<path style="fill:#878787;" d="M323.19,348.84c-0.07,0-0.15-0.01-0.22-0.03c-0.4-0.13-0.62-0.55-0.49-0.94l6.21-19.74
						c0.12-0.4,0.55-0.62,0.94-0.49c0.4,0.13,0.62,0.55,0.49,0.94l-6.21,19.74C323.81,348.63,323.51,348.84,323.19,348.84z"/>
					<path style="fill:#9D9D9C;" d="M357.24,347.11c-0.38,0-0.7-0.28-0.74-0.67l-2.72-23.81c-0.05-0.41,0.25-0.78,0.66-0.83
						c0.41-0.04,0.78,0.25,0.83,0.66l2.72,23.81c0.05,0.41-0.25,0.78-0.66,0.83C357.3,347.1,357.27,347.11,357.24,347.11z"/>
					<g>
						<path style="fill:#878787;" d="M356.38,328.53l-15.58,8.53c0,0-5.4-4.66-9.57-6.99c-4.17-2.33-8.04-2.39-8.04-2.39v-1.79
							l15.23-7.14c0,0,7.4-0.21,11.88,2.74c3.36,2.21,6.07,5.26,6.07,5.26V328.53z"/>
						<path style="fill:#C6C6C6;" d="M356.38,326.74l-15.58,8.53c0,0-5.4-4.66-9.57-6.99c-4.17-2.33-8.04-2.39-8.04-2.39l15.23-8.93
							c0,0,7.4-0.21,11.88,2.74C354.8,322.62,356.38,326.74,356.38,326.74z"/>
					</g>
					<path style="fill:#9D9D9C;" d="M344.82,328.94c-0.01,0.05-0.96,5.09-1.52,7.37c-0.13,0.53-0.38,0.88-0.7,0.97
						c-0.22,0.06-0.45-0.01-0.62-0.18c-0.19-0.19-0.26-0.24-0.25-0.55l-0.91,0.5c0.08,0.36,0.2,0.51,0.45,0.76
						c0.32,0.32,0.74,0.49,1.16,0.49c0.14,0,0.29-0.02,0.43-0.06c0.67-0.19,1.18-0.81,1.4-1.69c0.56-2.3,1.52-7.37,1.53-7.42
						L344.82,328.94z"/>
					<g>
						<path style="fill:#878787;" d="M360.18,310.53l0.66-0.49l-1.43-0.91l0,0c-0.49-0.31-1.14-0.38-1.72-0.04l-12.32,7.17
							c-2.08,1.21-3.35,3.43-3.35,5.83v7.71l1.48,0.95l18.16-10.19L360.18,310.53z"/>
						<path style="fill:#9D9D9C;" d="M361.66,320.55l-18.16,10.19v-7.71c0-2.4,1.28-4.62,3.35-5.83l12.32-7.17
							c1.1-0.64,2.49,0.15,2.49,1.43V320.55z"/>
					</g>
					<path style="fill:#9D9D9C;" d="M358.79,320.4c-0.01,0.05-0.96,5.09-1.52,7.37c-0.13,0.52-0.38,0.88-0.7,0.96
						c-0.18,0.05-0.31,0.06-0.47-0.05l-0.91,0.5c0,0.02,0.02,0.05,0.05,0.08c0.32,0.32,0.74,0.49,1.16,0.49
						c0.14,0,0.29-0.02,0.43-0.06c0.67-0.19,1.18-0.81,1.4-1.69c0.56-2.3,1.52-7.37,1.53-7.42L358.79,320.4z"/>
				</g>
			</g>
			<g>
				<path style="fill:#878787;" d="M339.61,299.88c-0.16-0.13-0.4-0.22-0.6-0.09l-8.53,5.16v4.21l9.07-5.23
					c0.03-0.02,0.04-0.04,0.06-0.06V299.88z"/>
				<polygon style="fill:#706F6F;" points="330.48,309.16 318.02,301.89 318.02,297.6 330.48,304.95 				"/>
				<path style="fill:#706F6F;" d="M339.65,299.86l-12.04-7.05c-0.43-0.25-0.97-0.25-1.4,0l-8.19,4.8l12.46,7.34L339.65,299.86z"/>
				<polygon style="fill:#FDFDFD;" points="331.22,305.25 331.22,307.99 339.61,303.09 339.61,300.53 				"/>
			</g>
		</g>
		<g>
			<g>
				<g>
					<g>
						<path style="fill:#3C3C3B;" d="M103.34,131.2c0,2.63,0.48,4.85,1.35,6.61c0.87,1.76,2.12,3.06,3.66,3.84l2.62,1.51
							c-2.81-1.68-4.54-5.21-4.54-10.19c0-10.14,7.16-22.5,16-27.6c4.27-2.47,8.15-2.79,11.02-1.31h0l-2.56-1.47v0
							c-2.91-1.81-7.01-1.61-11.56,1.01C110.51,108.7,103.34,121.06,103.34,131.2z"/>
						<path style="fill:#B2B2B2;" d="M107.87,141.36l2.62,1.51c-2.81-1.68-4.54-5.21-4.54-10.19c0-10.14,7.16-22.5,16-27.6
							c4.19-2.42,8-2.77,10.86-1.39l0.65,0.37h0c-2.87-1.47-6.75-1.15-11.02,1.31c-8.84,5.1-16,17.46-16,27.6
							c0,4.98,1.73,8.51,4.54,10.19l-2.62-1.51c-0.26-0.13-0.51-0.29-0.76-0.45C107.69,141.25,107.78,141.31,107.87,141.36z"/>
						<path style="fill:#FF9D9C;" d="M106.43,132.97c0,4.98,1.73,8.51,4.54,10.19l0.21,0.12l0.03,0.02v0l-0.4-0.88
							c2.47,0.36,5.39-0.29,8.53-2.1c8.84-5.1,16-17.46,16-27.6c0-3.83-1.02-6.8-2.77-8.73l0.88,0.07
							c-2.87-1.47-6.75-1.15-11.02,1.31C113.6,110.47,106.43,122.83,106.43,132.97z"/>
						<path style="fill:#3C3C3B;" d="M106.43,132.97c0,4.98,1.73,8.51,4.54,10.19l0.21,0.12c0.01,0.01,0.02,0.01,0.03,0.01v0
							c2.89,1.59,6.85,1.32,11.22-1.21c8.84-5.1,16-17.46,16-27.6c0-5.24-1.91-8.86-4.98-10.44c-2.87-1.47-6.75-1.15-11.02,1.31
							C113.6,110.47,106.43,122.83,106.43,132.97z"/>
						
							<ellipse transform="matrix(0.5047 -0.8633 0.8633 0.5047 -46.1758 166.9839)" style="fill:#F6F6F6;" cx="122.43" cy="123.73" rx="18.49" ry="10.67"/>
						<path style="fill:#575756;" d="M110.76,130.58c0.31-0.18,0.57-0.62,0.57-0.98c0-0.36-0.25-0.51-0.57-0.32
							c-0.31,0.18-0.57,0.62-0.57,0.98C110.19,130.62,110.44,130.76,110.76,130.58z"/>
						<path style="fill:#575756;" d="M121.71,138.29c7.24-4.18,13.11-14.31,13.11-22.62c0-3.7-1.16-6.41-3.09-7.92
							c2.36,1.36,3.82,4.27,3.82,8.41c0,8.31-5.87,18.44-13.11,22.62c-4.02,2.32-7.61,2.32-10.02,0.44
							C114.79,140.59,118.08,140.39,121.71,138.29z"/>
						<g>
							<path style="fill:#B2B2B2;" d="M122.28,138.65c7.24-4.18,13.11-14.31,13.11-22.62c0-3.53-1.06-6.16-2.83-7.7
								c1.86,1.52,2.99,4.2,2.99,7.83c0,8.31-5.87,18.44-13.11,22.62c-4.02,2.32-7.61,2.32-10.02,0.44c0.03,0.02,0.07,0.03,0.1,0.05
								C114.92,140.96,118.4,140.89,122.28,138.65z"/>
							<path style="fill:#FFFFFF;" d="M131.73,107.75c0.01,0.01,0.02,0.01,0.03,0.02c0.07,0.06,0.15,0.13,0.22,0.19
								C131.89,107.89,131.81,107.82,131.73,107.75z"/>
						</g>
					</g>
					<g>
						<path style="fill:#66462D;" d="M121.31,123.84c0,0.49,0.35,0.69,0.78,0.44c0.43-0.25,0.78-0.85,0.78-1.34
							c0-0.49-0.35-0.69-0.78-0.44C121.66,122.75,121.31,123.35,121.31,123.84z"/>
						<path style="fill:#9D9D9C;" d="M121.57,124.01c0,0.49,0.35,0.69,0.78,0.44c0.43-0.25,0.78-0.85,0.78-1.34
							c0-0.49-0.35-0.69-0.78-0.44C121.92,122.92,121.57,123.52,121.57,124.01z"/>
						<path style="fill:#575756;" d="M121.52,110.71c0,0.36,0.25,0.5,0.57,0.32c0.31-0.18,0.57-0.62,0.57-0.98s-0.25-0.5-0.57-0.32
							C121.78,109.91,121.52,110.35,121.52,110.71z"/>
						<path style="fill:#575756;" d="M115.93,116.01c0.16,0.22,0.5,0.13,0.78-0.21c0.27-0.34,0.36-0.79,0.21-1.01
							c-0.16-0.22-0.5-0.13-0.78,0.21C115.87,115.33,115.78,115.79,115.93,116.01z"/>
						<path style="fill:#575756;" d="M111.99,123.28c0.27,0.02,0.62-0.28,0.78-0.69c0.16-0.4,0.06-0.75-0.21-0.77
							c-0.27-0.02-0.62,0.28-0.78,0.69C111.63,122.91,111.72,123.26,111.99,123.28z"/>
						<path style="fill:#575756;" d="M112.56,135.96c0.27-0.34,0.36-0.79,0.21-1.01c-0.16-0.22-0.5-0.13-0.78,0.21
							c-0.27,0.34-0.36,0.79-0.21,1.01C111.94,136.39,112.28,136.29,112.56,135.96z"/>
						<path style="fill:#575756;" d="M116.91,137.97c0.16-0.4,0.06-0.75-0.21-0.77c-0.27-0.02-0.62,0.28-0.78,0.69
							c-0.16,0.4-0.06,0.75,0.21,0.77C116.41,138.68,116.75,138.37,116.91,137.97z"/>
						<path style="fill:#575756;" d="M122.65,136.07c0-0.36-0.25-0.51-0.57-0.32c-0.31,0.18-0.57,0.62-0.57,0.98
							c0,0.36,0.25,0.51,0.57,0.32C122.4,136.87,122.65,136.43,122.65,136.07z"/>
						<path style="fill:#575756;" d="M128.24,130.78c-0.16-0.22-0.5-0.13-0.78,0.21c-0.27,0.34-0.37,0.79-0.21,1.01
							c0.16,0.22,0.5,0.13,0.78-0.21C128.31,131.46,128.4,131,128.24,130.78z"/>
						<path style="fill:#575756;" d="M132.19,123.51c-0.27-0.02-0.62,0.28-0.78,0.69c-0.16,0.4-0.06,0.75,0.21,0.77
							c0.27,0.02,0.62-0.28,0.78-0.69C132.55,123.88,132.46,123.54,132.19,123.51z"/>
						<path style="fill:#575756;" d="M133.43,116.21c-0.31,0.18-0.57,0.62-0.57,0.98c0,0.36,0.25,0.51,0.57,0.32
							c0.31-0.18,0.57-0.62,0.57-0.98C133.99,116.17,133.74,116.03,133.43,116.21z"/>
						<path style="fill:#575756;" d="M131.63,110.83c-0.27,0.34-0.37,0.79-0.21,1.01c0.16,0.22,0.5,0.13,0.78-0.21
							c0.27-0.34,0.37-0.79,0.21-1.01C132.25,110.4,131.9,110.49,131.63,110.83z"/>
						<path style="fill:#575756;" d="M127.28,108.81c-0.16,0.4-0.06,0.75,0.21,0.77c0.27,0.02,0.62-0.28,0.78-0.69
							s0.06-0.75-0.21-0.77C127.78,108.1,127.44,108.41,127.28,108.81z"/>
					</g>
					<path style="fill:#DADADA;" d="M134.24,118.74c0-8.31-5.87-11.66-13.11-7.48c-3.71,2.14-7.06,5.84-9.44,10.06
						c2.37-5.26,6.3-10.07,10.75-12.64c7.24-4.18,13.11-0.83,13.11,7.48c0,4.05-1.4,8.54-3.67,12.56
						C133.36,125.42,134.24,121.95,134.24,118.74z"/>
				</g>
			</g>
		</g>
		<g>
			<path style="fill:#878787;" d="M285.72,270.17c-0.16-0.13-0.4-0.22-0.6-0.09l-8.53,5.16v4.21l9.07-5.23
				c0.03-0.02,0.04-0.04,0.06-0.06V270.17z"/>
			<polygon style="fill:#706F6F;" points="276.58,279.44 264.13,272.18 264.13,267.89 276.58,275.24 			"/>
			<path style="fill:#706F6F;" d="M285.75,270.15l-12.04-7.05c-0.43-0.25-0.97-0.25-1.4,0l-8.19,4.8l12.46,7.34L285.75,270.15z"/>
			<polygon style="fill:#FDFDFD;" points="277.33,275.54 277.33,278.28 285.72,273.38 285.72,270.82 			"/>
		</g>
		<g>
			<g>
				<path style="fill:#B2B2B2;" d="M234.83,338.52c-0.07,0-0.15-0.01-0.22-0.03c-0.4-0.13-0.62-0.55-0.49-0.94l6.21-19.75
					c0.12-0.4,0.55-0.62,0.94-0.49c0.4,0.13,0.62,0.55,0.49,0.94l-6.21,19.75C235.45,338.31,235.15,338.52,234.83,338.52z"/>
				<path style="fill:#C6C6C6;" d="M247.09,326.08c-0.37,0-0.75-0.09-1.1-0.27l-9.26-4.83c-0.79-0.41-1.27-1.21-1.27-2.1v-14.04
					c0-0.81,0.41-1.56,1.1-2c0.69-0.44,1.54-0.49,2.27-0.15l9.26,4.32c0.83,0.39,1.37,1.23,1.37,2.15v14.54
					c0,0.83-0.43,1.59-1.14,2.03C247.93,325.97,247.51,326.08,247.09,326.08z M237.82,303.98c-0.16,0-0.32,0.05-0.46,0.14
					c-0.26,0.16-0.4,0.43-0.4,0.73v14.04c0,0.33,0.18,0.62,0.47,0.77l9.26,4.83c0.28,0.14,0.59,0.13,0.85-0.03
					c0.27-0.16,0.42-0.43,0.42-0.74v-14.54c0-0.34-0.2-0.65-0.5-0.79l-9.26-4.32C238.07,304.01,237.95,303.98,237.82,303.98z"/>
				<g>
					<path style="fill:#706F6F;" d="M256.71,307.27L256.71,307.27l0-1.26l-1.12-0.25c0,0,0.02,0.1,0.04,0.24l-24.79-14.78
						c-1.16-0.69-2.59-0.7-3.76-0.03l-22.27,12.84l-0.17-0.3l-1.38,0.59v1.46c0,0.02,0,0.03,0,0.05v0.04l0.01,0
						c0.02,0.49,0.27,0.97,0.76,1.25l11.7,6.61c1.26,0.71,2.79,0.72,4.06,0.02l10.86-5.97c1.96-1.08,4.34-1.08,6.3-0.02l8.39,4.82
						c1.35,0.73,2.98,0.68,4.28-0.13l6.51-4.08C256.54,308.14,256.73,307.7,256.71,307.27z"/>
					<path style="fill:#DADADA;" d="M204.02,303.08l23.06-13.3c1.17-0.67,2.6-0.66,3.76,0.03l25.27,15.07
						c0.8,0.47,0.81,1.62,0.02,2.11l-6.51,4.08c-1.3,0.81-2.93,0.86-4.28,0.13l-8.39-4.82c-1.97-1.07-4.34-1.06-6.3,0.02
						l-10.86,5.97c-1.27,0.7-2.8,0.69-4.06-0.02l-11.7-6.61C203.01,305.14,203,303.66,204.02,303.08z"/>
				</g>
				<path style="fill:#878787;" d="M233.98,357.8c-0.38,0-0.7-0.28-0.74-0.67l-2.72-23.81c-0.05-0.41,0.25-0.78,0.66-0.83
					c0.41-0.04,0.78,0.25,0.83,0.66l2.72,23.81c0.05,0.41-0.25,0.78-0.66,0.83C234.03,357.79,234,357.8,233.98,357.8z"/>
				<path style="fill:#878787;" d="M217.38,349.02c-0.07,0-0.15-0.01-0.22-0.03c-0.4-0.13-0.62-0.55-0.49-0.94l6.21-19.74
					c0.12-0.4,0.55-0.62,0.94-0.49c0.4,0.13,0.62,0.55,0.49,0.94l-6.21,19.74C218,348.82,217.7,349.02,217.38,349.02z"/>
				<path style="fill:#9D9D9C;" d="M251.42,347.29c-0.38,0-0.7-0.28-0.74-0.67l-2.72-23.81c-0.05-0.41,0.25-0.78,0.66-0.83
					c0.41-0.04,0.78,0.25,0.83,0.66l2.72,23.81c0.05,0.41-0.25,0.78-0.66,0.83C251.48,347.29,251.45,347.29,251.42,347.29z"/>
				<g>
					<path style="fill:#878787;" d="M250.57,328.71l-15.58,8.53c0,0-5.4-4.66-9.57-6.99c-4.17-2.33-8.04-2.39-8.04-2.39v-1.79
						l15.23-7.14c0,0,7.4-0.21,11.88,2.74c3.36,2.21,6.07,5.26,6.07,5.26V328.71z"/>
					<path style="fill:#C6C6C6;" d="M250.57,326.92l-15.58,8.53c0,0-5.4-4.66-9.57-6.99c-4.17-2.33-8.04-2.39-8.04-2.39l15.23-8.93
						c0,0,7.4-0.21,11.88,2.74C248.98,322.81,250.57,326.92,250.57,326.92z"/>
				</g>
				<path style="fill:#9D9D9C;" d="M239.01,329.12c-0.01,0.05-0.96,5.09-1.52,7.37c-0.13,0.53-0.38,0.88-0.7,0.97
					c-0.22,0.06-0.45-0.01-0.62-0.18c-0.19-0.19-0.26-0.24-0.25-0.55l-0.91,0.5c0.08,0.36,0.2,0.51,0.45,0.76
					c0.32,0.32,0.74,0.49,1.16,0.49c0.14,0,0.29-0.02,0.43-0.06c0.67-0.19,1.18-0.81,1.4-1.69c0.56-2.3,1.52-7.37,1.53-7.42
					L239.01,329.12z"/>
				<g>
					<path style="fill:#878787;" d="M254.37,310.72l0.66-0.49l-1.43-0.91l0,0c-0.49-0.31-1.14-0.38-1.72-0.04l-12.32,7.17
						c-2.08,1.21-3.35,3.43-3.35,5.83v7.71l1.48,0.95l18.16-10.19L254.37,310.72z"/>
					<path style="fill:#9D9D9C;" d="M255.85,320.74l-18.16,10.19v-7.71c0-2.4,1.28-4.62,3.35-5.83l12.32-7.17
						c1.1-0.64,2.49,0.15,2.49,1.43V320.74z"/>
				</g>
				<path style="fill:#9D9D9C;" d="M252.98,320.58c-0.01,0.05-0.96,5.09-1.52,7.37c-0.13,0.52-0.38,0.88-0.7,0.96
					c-0.18,0.05-0.31,0.06-0.47-0.05l-0.91,0.5c0,0.02,0.02,0.05,0.05,0.08c0.32,0.32,0.74,0.49,1.16,0.49
					c0.14,0,0.29-0.02,0.43-0.06c0.67-0.19,1.18-0.81,1.4-1.69c0.56-2.3,1.52-7.37,1.53-7.42L252.98,320.58z"/>
			</g>
		</g>
		<g>
			<g>
				<g>
					<path style="fill:#B2B2B2;" d="M288.02,369.28c-0.07,0-0.15-0.01-0.22-0.03c-0.4-0.13-0.62-0.55-0.49-0.94l6.21-19.75
						c0.12-0.4,0.55-0.62,0.94-0.49c0.4,0.13,0.62,0.55,0.49,0.94l-6.21,19.75C288.64,369.08,288.34,369.28,288.02,369.28z"/>
					<path style="fill:#C6C6C6;" d="M300.28,356.85c-0.37,0-0.75-0.09-1.1-0.27l-9.26-4.83c-0.79-0.41-1.27-1.21-1.27-2.1v-14.04
						c0-0.81,0.41-1.56,1.1-2c0.69-0.44,1.54-0.49,2.27-0.15l9.26,4.32c0.83,0.39,1.37,1.23,1.37,2.15v14.54
						c0,0.83-0.43,1.59-1.14,2.03C301.13,356.73,300.7,356.85,300.28,356.85z M291.01,334.74c-0.16,0-0.32,0.05-0.46,0.14
						c-0.26,0.16-0.4,0.43-0.4,0.73v14.04c0,0.33,0.18,0.62,0.47,0.77l9.26,4.83c0.28,0.14,0.59,0.13,0.85-0.03
						c0.27-0.16,0.42-0.43,0.42-0.74v-14.54c0-0.34-0.2-0.65-0.5-0.79l-9.26-4.32C291.26,334.77,291.14,334.74,291.01,334.74z"/>
					<g>
						<path style="fill:#706F6F;" d="M309.9,338.04L309.9,338.04l0-1.26l-1.12-0.25c0,0,0.02,0.1,0.04,0.24l-24.79-14.78
							c-1.16-0.69-2.59-0.7-3.76-0.03l-22.27,12.84l-0.17-0.3l-1.38,0.59v1.46c0,0.02,0,0.03,0,0.05v0.04l0.01,0
							c0.02,0.49,0.27,0.97,0.76,1.25l11.7,6.61c1.26,0.71,2.79,0.72,4.06,0.02l10.86-5.97c1.96-1.08,4.34-1.08,6.3-0.02l8.39,4.82
							c1.35,0.73,2.98,0.68,4.28-0.13l6.51-4.08C309.74,338.9,309.92,338.46,309.9,338.04z"/>
						<path style="fill:#DADADA;" d="M257.21,333.84l23.06-13.3c1.17-0.67,2.6-0.66,3.76,0.03l25.27,15.07
							c0.8,0.47,0.81,1.62,0.02,2.11l-6.51,4.08c-1.3,0.81-2.93,0.86-4.28,0.13l-8.39-4.82c-1.97-1.07-4.34-1.06-6.3,0.02
							l-10.86,5.97c-1.27,0.7-2.8,0.69-4.06-0.02l-11.7-6.61C256.2,335.9,256.19,334.43,257.21,333.84z"/>
					</g>
					<path style="fill:#878787;" d="M287.17,388.56c-0.38,0-0.7-0.28-0.74-0.67l-2.72-23.81c-0.05-0.41,0.25-0.78,0.66-0.83
						c0.41-0.04,0.78,0.25,0.83,0.66l2.72,23.81c0.05,0.41-0.25,0.78-0.66,0.83C287.23,388.56,287.2,388.56,287.17,388.56z"/>
					<path style="fill:#878787;" d="M270.58,379.79c-0.07,0-0.15-0.01-0.22-0.03c-0.4-0.13-0.62-0.55-0.49-0.94l6.21-19.74
						c0.12-0.4,0.55-0.62,0.94-0.49c0.4,0.13,0.62,0.55,0.49,0.94l-6.21,19.74C271.19,379.58,270.89,379.79,270.58,379.79z"/>
					<path style="fill:#9D9D9C;" d="M304.62,378.05c-0.38,0-0.7-0.28-0.74-0.66l-2.72-23.81c-0.05-0.41,0.25-0.78,0.66-0.83
						c0.41-0.04,0.78,0.25,0.83,0.66l2.72,23.81c0.05,0.41-0.25,0.78-0.66,0.83C304.68,378.05,304.65,378.05,304.62,378.05z"/>
					<g>
						<path style="fill:#878787;" d="M303.77,359.48L288.18,368c0,0-5.4-4.66-9.57-6.99c-4.17-2.33-8.04-2.39-8.04-2.39v-1.79
							l15.23-7.14c0,0,7.4-0.21,11.88,2.74c3.36,2.21,6.07,5.26,6.07,5.26V359.48z"/>
						<path style="fill:#C6C6C6;" d="M303.77,357.68l-15.58,8.53c0,0-5.4-4.66-9.57-6.99c-4.17-2.33-8.04-2.39-8.04-2.39l15.23-8.93
							c0,0,7.4-0.21,11.88,2.74C302.18,353.57,303.77,357.68,303.77,357.68z"/>
					</g>
					<path style="fill:#9D9D9C;" d="M292.21,359.89c-0.01,0.05-0.96,5.09-1.52,7.37c-0.13,0.53-0.38,0.88-0.7,0.97
						c-0.22,0.06-0.45-0.01-0.62-0.18c-0.19-0.19-0.26-0.24-0.25-0.55l-0.91,0.5c0.08,0.36,0.2,0.51,0.45,0.76
						c0.32,0.32,0.74,0.49,1.16,0.49c0.14,0,0.29-0.02,0.43-0.06c0.67-0.19,1.18-0.81,1.4-1.69c0.56-2.3,1.52-7.37,1.53-7.42
						L292.21,359.89z"/>
					<g>
						<path style="fill:#878787;" d="M307.56,341.48l0.66-0.49l-1.43-0.91l0,0c-0.49-0.31-1.14-0.38-1.72-0.04l-12.32,7.17
							c-2.08,1.21-3.35,3.43-3.35,5.83v7.71l1.48,0.95l18.16-10.19L307.56,341.48z"/>
						<path style="fill:#9D9D9C;" d="M309.05,351.5l-18.16,10.19v-7.71c0-2.4,1.28-4.62,3.35-5.83l12.32-7.17
							c1.1-0.64,2.49,0.15,2.49,1.43V351.5z"/>
					</g>
					<path style="fill:#9D9D9C;" d="M306.18,351.34c-0.01,0.05-0.96,5.09-1.52,7.37c-0.13,0.52-0.38,0.88-0.7,0.96
						c-0.18,0.05-0.31,0.06-0.47-0.05l-0.91,0.5c0,0.02,0.02,0.05,0.05,0.08c0.32,0.32,0.74,0.49,1.16,0.49
						c0.14,0,0.29-0.02,0.43-0.06c0.67-0.19,1.18-0.81,1.4-1.69c0.56-2.3,1.52-7.37,1.53-7.42L306.18,351.34z"/>
				</g>
			</g>
			<g>
				<path style="fill:#878787;" d="M287,330.83c-0.16-0.13-0.4-0.22-0.6-0.09l-8.53,5.16v4.21l9.07-5.23
					c0.03-0.02,0.04-0.04,0.06-0.06V330.83z"/>
				<polygon style="fill:#706F6F;" points="277.86,340.1 265.4,332.83 265.4,328.55 277.86,335.89 				"/>
				<path style="fill:#706F6F;" d="M287.03,330.81l-12.04-7.05c-0.43-0.25-0.97-0.25-1.4,0l-8.19,4.8l12.46,7.34L287.03,330.81z"/>
				<polygon style="fill:#FDFDFD;" points="278.61,336.19 278.61,338.94 287,334.03 287,331.47 				"/>
			</g>
		</g>
		<g>
			<path style="fill:#878787;" d="M230.61,301.44c-0.16-0.13-0.4-0.22-0.6-0.09l-8.53,5.16v4.21l9.07-5.23
				c0.03-0.02,0.04-0.04,0.06-0.06V301.44z"/>
			<polygon style="fill:#706F6F;" points="221.47,310.72 209.02,303.45 209.02,299.17 221.47,306.51 			"/>
			<path style="fill:#706F6F;" d="M230.64,301.42l-12.04-7.05c-0.43-0.25-0.97-0.25-1.4,0l-8.19,4.8l12.46,7.34L230.64,301.42z"/>
			<polygon style="fill:#FDFDFD;" points="222.22,306.81 222.22,309.55 230.61,304.65 230.61,302.09 			"/>
		</g>
		<g>
			<g>
				<polygon style="fill:#F6F6F6;" points="414.13,192.31 328.85,142.62 333.14,140.15 418.42,189.84 				"/>
				<polygon style="fill:#B2B2B2;" points="418.42,191.24 418.42,189.84 414.13,192.31 414.13,193.72 				"/>
				<polygon style="fill:#9D9D9C;" points="328.85,142.62 328.85,144.03 414.13,193.72 414.13,192.31 				"/>
			</g>
			<g>
				<polygon style="fill:#F6F6F6;" points="414.13,187.71 328.85,138.02 333.14,135.55 418.42,185.24 				"/>
				<polygon style="fill:#B2B2B2;" points="418.42,186.64 418.42,185.24 414.13,187.71 414.13,189.11 				"/>
				<polygon style="fill:#9D9D9C;" points="328.85,138.02 328.85,139.42 414.13,189.11 414.13,187.71 				"/>
			</g>
			<g>
				<polygon style="fill:#F6F6F6;" points="414.13,183.11 328.85,133.42 333.14,130.95 418.42,180.64 				"/>
				<polygon style="fill:#B2B2B2;" points="418.42,182.04 418.42,180.64 414.13,183.11 414.13,184.51 				"/>
				<polygon style="fill:#9D9D9C;" points="328.85,133.42 328.85,134.82 414.13,184.51 414.13,183.11 				"/>
			</g>
			<g>
				<polygon style="fill:#F6F6F6;" points="414.13,178.51 328.85,128.82 333.14,126.35 418.42,176.04 				"/>
				<polygon style="fill:#B2B2B2;" points="418.42,177.44 418.42,176.04 414.13,178.51 414.13,179.91 				"/>
				<polygon style="fill:#9D9D9C;" points="328.85,128.82 328.85,130.22 414.13,179.91 414.13,178.51 				"/>
			</g>
			<g>
				<polygon style="fill:#F6F6F6;" points="414.13,173.91 328.85,124.22 333.14,121.75 418.42,171.44 				"/>
				<polygon style="fill:#B2B2B2;" points="418.42,172.84 418.42,171.44 414.13,173.91 414.13,175.31 				"/>
				<polygon style="fill:#9D9D9C;" points="328.85,124.22 328.85,125.62 414.13,175.31 414.13,173.91 				"/>
			</g>
			<g>
				<polygon style="fill:#F6F6F6;" points="414.13,169.31 328.85,119.62 333.14,117.14 418.42,166.83 				"/>
				<polygon style="fill:#B2B2B2;" points="418.42,168.24 418.42,166.83 414.13,169.31 414.13,170.71 				"/>
				<polygon style="fill:#9D9D9C;" points="328.85,119.62 328.85,121.02 414.13,170.71 414.13,169.31 				"/>
			</g>
			<g>
				<g>
					<polygon style="fill:#F6F6F6;" points="414.13,164.71 328.85,115.02 333.14,112.54 418.42,162.23 					"/>
					<polygon style="fill:#B2B2B2;" points="418.42,163.64 418.42,162.23 414.13,164.71 414.13,166.11 					"/>
					<polygon style="fill:#9D9D9C;" points="328.85,115.02 328.85,116.42 414.13,166.11 414.13,164.71 					"/>
				</g>
				<polygon style="fill:#F6F6F6;" points="414.13,160.11 328.85,110.42 333.14,107.94 418.42,157.63 				"/>
				<polygon style="fill:#B2B2B2;" points="418.42,159.03 418.42,157.63 414.13,160.11 414.13,161.51 				"/>
				<polygon style="fill:#9D9D9C;" points="328.85,110.42 328.85,111.82 414.13,161.51 414.13,160.11 				"/>
			</g>
			<g>
				<polygon style="fill:#F6F6F6;" points="414.13,155.51 328.85,105.82 333.14,103.34 418.42,153.03 				"/>
				<polygon style="fill:#B2B2B2;" points="418.42,154.43 418.42,153.03 414.13,155.51 414.13,156.91 				"/>
				<polygon style="fill:#9D9D9C;" points="328.85,105.82 328.85,107.22 414.13,156.91 414.13,155.51 				"/>
			</g>
			<g>
				<polygon style="fill:#F6F6F6;" points="414.13,150.91 328.85,101.22 333.14,98.74 418.42,148.43 				"/>
				<polygon style="fill:#B2B2B2;" points="418.42,149.83 418.42,148.43 414.13,150.91 414.13,152.31 				"/>
				<polygon style="fill:#9D9D9C;" points="328.85,101.22 328.85,102.62 414.13,152.31 414.13,150.91 				"/>
			</g>
		</g>
	</g>
	<linearGradient id="SVGID_25_" gradientUnits="userSpaceOnUse" x1="267.0138" y1="365.744" x2="471.8514" y2="264.4276">
		<stop  offset="0.1514" style="stop-color:#EDEDED"/>
		<stop  offset="0.3541" style="stop-color:#FFFFFF"/>
		<stop  offset="0.4665" style="stop-color:#F3F3F3"/>
		<stop  offset="0.5838" style="stop-color:#EDEDED"/>
		<stop  offset="0.8297" style="stop-color:#FFFFFF"/>
	</linearGradient>
	<polyline style="opacity:0.43;fill:url(#SVGID_25_);" points="258.62,294.51 258.62,463.83 487.14,332.26 487.14,162.93 
		258.62,294.51 	"/>
	<linearGradient id="SVGID_27_" gradientUnits="userSpaceOnUse" x1="136.0533" y1="463.8275" x2="136.0533" y2="149.32">
		<stop  offset="0.1378" style="stop-color:#DEDEDE"/>
		<stop  offset="0.2865" style="stop-color:#C6C6C6"/>
		<stop  offset="0.4838" style="stop-color:#FFFFFF"/>
		<stop  offset="0.5246" style="stop-color:#E8E8E8"/>
		<stop  offset="0.5877" style="stop-color:#CACACA"/>
		<stop  offset="0.6421" style="stop-color:#B8B8B8"/>
		<stop  offset="0.6811" style="stop-color:#B2B2B2"/>
		<stop  offset="0.8811" style="stop-color:#FFFFFF"/>
	</linearGradient>
	<path style="fill:none;stroke:url(#SVGID_27_);stroke-width:1.5;stroke-miterlimit:10;" d="M258.62,463.83c0,0,0-169.31,0-169.32
		c-0.01-0.01-245.5-144.54-245.5-144.54"/>
	<path style="opacity:0.43;fill:#EDEDED;" d="M172.47,243.61L172.47,243.61l-0.08-0.05l-35.74-21.05v0.02l-93.4-54.97l-29.88-17.59
		l-0.52,172.16l246.02,141.7V294.51L172.47,243.61z M70.5,355.23l31.83,18.36L70.5,355.31V355.23z"/>
	<linearGradient id="SVGID_28_" gradientUnits="userSpaceOnUse" x1="258.2437" y1="228.7198" x2="487.5167" y2="228.7198">
		<stop  offset="0.1378" style="stop-color:#DEDEDE"/>
		<stop  offset="0.2865" style="stop-color:#C6C6C6"/>
		<stop  offset="0.4838" style="stop-color:#FFFFFF"/>
		<stop  offset="0.5246" style="stop-color:#E8E8E8"/>
		<stop  offset="0.5877" style="stop-color:#CACACA"/>
		<stop  offset="0.6421" style="stop-color:#B8B8B8"/>
		<stop  offset="0.6811" style="stop-color:#B2B2B2"/>
		<stop  offset="0.8811" style="stop-color:#FFFFFF"/>
	</linearGradient>
	
		<line style="fill:none;stroke:url(#SVGID_28_);stroke-width:1.5;stroke-miterlimit:10;" x1="487.14" y1="162.93" x2="258.62" y2="294.51"/>
	<linearGradient id="SVGID_29_" gradientUnits="userSpaceOnUse" x1="136.3971" y1="393.9066" x2="136.3971" y2="222.9643">
		<stop  offset="0.1378" style="stop-color:#DEDEDE"/>
		<stop  offset="0.2865" style="stop-color:#C6C6C6"/>
		<stop  offset="0.4838" style="stop-color:#FFFFFF"/>
		<stop  offset="0.5246" style="stop-color:#E8E8E8"/>
		<stop  offset="0.5877" style="stop-color:#CACACA"/>
		<stop  offset="0.6421" style="stop-color:#B8B8B8"/>
		<stop  offset="0.6811" style="stop-color:#B2B2B2"/>
		<stop  offset="0.8811" style="stop-color:#FFFFFF"/>
	</linearGradient>
	<polygon style="fill:url(#SVGID_29_);" points="137.15,393.91 135.65,393 135.65,222.96 137.15,222.96 	"/>
	<linearGradient id="SVGID_31_" gradientUnits="userSpaceOnUse" x1="70.2428" y1="355.7598" x2="70.2428" y2="183.5683">
		<stop  offset="0.1378" style="stop-color:#DEDEDE"/>
		<stop  offset="0.2865" style="stop-color:#C6C6C6"/>
		<stop  offset="0.4838" style="stop-color:#FFFFFF"/>
		<stop  offset="0.5246" style="stop-color:#E8E8E8"/>
		<stop  offset="0.5877" style="stop-color:#CACACA"/>
		<stop  offset="0.6421" style="stop-color:#B8B8B8"/>
		<stop  offset="0.6811" style="stop-color:#B2B2B2"/>
		<stop  offset="0.8811" style="stop-color:#FFFFFF"/>
	</linearGradient>
	<polygon style="fill:url(#SVGID_31_);" points="70.99,355.76 69.49,354.9 69.49,183.57 70.99,183.57 	"/>
	<g>
		
			<ellipse transform="matrix(0.9966 -0.0821 0.0821 0.9966 -24.8968 11.562)" style="fill:#575756;" cx="128.21" cy="308.66" rx="2.19" ry="3.86"/>
		<ellipse style="fill:#575756;" cx="130.27" cy="308.82" rx="0.69" ry="1.41"/>
	</g>
</g>
</svg>
