<?xml version="1.0" encoding="utf-8"?>
<!-- Generator: Adobe Illustrator 22.1.0, SVG Export Plug-In . SVG Version: 6.00 Build 0)  -->
<svg version="1.1" id="Layer_1" xmlns="http://www.w3.org/2000/svg" xmlns:xlink="http://www.w3.org/1999/xlink" x="0px" y="0px"
	 viewBox="0 0 500 500" style="enable-background:new 0 0 500 500;" xml:space="preserve">
<g>
	<g>
		<polygon style="fill:#3C3C3B;" points="259.78,472.76 485.32,342.54 238.72,190.04 4.75,324.24 25.98,337.78 		"/>
		<polygon style="fill:#575756;" points="258.9,463.83 486.25,333.03 237.84,181.11 12.87,322.12 		"/>
		<g>
			<defs>
				<polygon id="SVGID_316_" points="258.9,463.83 486.25,333.03 237.84,181.11 12.87,322.12 				"/>
			</defs>
			<clipPath id="SVGID_5_">
				<use xlink:href="#SVGID_316_"  style="overflow:visible;"/>
			</clipPath>
			<g style="opacity:0.38;clip-path:url(#SVGID_5_);">
				<g>
					<line style="stroke:#575756;stroke-width:0.75;stroke-miterlimit:10;" x1="225.08" y1="484.51" x2="530.93" y2="307.71"/>
					<line style="stroke:#575756;stroke-width:0.75;stroke-miterlimit:10;" x1="199.88" y1="469.18" x2="505.73" y2="292.37"/>
					<line style="stroke:#575756;stroke-width:0.75;stroke-miterlimit:10;" x1="174.68" y1="453.84" x2="480.53" y2="277.04"/>
					<line style="stroke:#575756;stroke-width:0.75;stroke-miterlimit:10;" x1="149.47" y1="438.51" x2="455.32" y2="261.71"/>
					<line style="stroke:#575756;stroke-width:0.75;stroke-miterlimit:10;" x1="124.27" y1="423.18" x2="430.12" y2="246.37"/>
					<line style="stroke:#575756;stroke-width:0.75;stroke-miterlimit:10;" x1="99.07" y1="407.84" x2="404.92" y2="231.04"/>
					<line style="stroke:#575756;stroke-width:0.75;stroke-miterlimit:10;" x1="73.87" y1="392.51" x2="379.72" y2="215.71"/>
					<line style="stroke:#575756;stroke-width:0.75;stroke-miterlimit:10;" x1="48.66" y1="377.18" x2="354.51" y2="200.37"/>
					<line style="stroke:#575756;stroke-width:0.75;stroke-miterlimit:10;" x1="23.46" y1="361.84" x2="329.31" y2="185.04"/>
					<line style="stroke:#575756;stroke-width:0.75;stroke-miterlimit:10;" x1="-1.74" y1="346.51" x2="304.11" y2="169.71"/>
				</g>
				<g>
					<line style="stroke:#575756;stroke-width:0.75;stroke-miterlimit:10;" x1="298.23" y1="489.66" x2="-7.62" y2="312.85"/>
					<line style="stroke:#575756;stroke-width:0.75;stroke-miterlimit:10;" x1="323.43" y1="474.32" x2="17.58" y2="297.52"/>
					<line style="stroke:#575756;stroke-width:0.75;stroke-miterlimit:10;" x1="348.63" y1="458.99" x2="42.78" y2="282.19"/>
					<line style="stroke:#575756;stroke-width:0.75;stroke-miterlimit:10;" x1="373.84" y1="443.66" x2="67.98" y2="266.85"/>
					<line style="stroke:#575756;stroke-width:0.75;stroke-miterlimit:10;" x1="399.04" y1="428.32" x2="93.19" y2="251.52"/>
					<line style="stroke:#575756;stroke-width:0.75;stroke-miterlimit:10;" x1="424.24" y1="412.99" x2="118.39" y2="236.19"/>
					<line style="stroke:#575756;stroke-width:0.75;stroke-miterlimit:10;" x1="449.44" y1="397.66" x2="143.59" y2="220.85"/>
					<line style="stroke:#575756;stroke-width:0.75;stroke-miterlimit:10;" x1="474.65" y1="382.32" x2="168.79" y2="205.52"/>
					<line style="stroke:#575756;stroke-width:0.75;stroke-miterlimit:10;" x1="499.85" y1="366.99" x2="194" y2="190.19"/>
					<line style="stroke:#575756;stroke-width:0.75;stroke-miterlimit:10;" x1="525.05" y1="351.66" x2="219.2" y2="174.85"/>
				</g>
			</g>
		</g>
		<path style="fill:#3C3C3B;" d="M495.25,336.86l-0.81-176.35L325.69,63.17l-43.38-25.2c-0.75-0.43-1.51-0.85-2.28-1.25
			c-0.25-0.13-0.51-0.26-0.77-0.39c-0.53-0.27-1.05-0.53-1.59-0.79c-0.31-0.15-0.63-0.29-0.95-0.43c-0.49-0.22-0.98-0.45-1.48-0.66
			c-0.34-0.15-0.7-0.29-1.04-0.43c-0.33-0.14-0.66-0.28-1-0.41c-0.11-0.04-0.22-0.08-0.33-0.12c-1.1-0.43-2.21-0.84-3.34-1.22
			c-0.16-0.06-0.33-0.11-0.5-0.16c-0.99-0.33-2-0.64-3.01-0.94c-0.17-0.05-0.33-0.11-0.49-0.15c-0.2-0.06-0.4-0.1-0.6-0.16
			c-0.63-0.18-1.27-0.34-1.91-0.51c-0.4-0.1-0.79-0.2-1.19-0.3c-0.7-0.17-1.4-0.32-2.1-0.47c-0.27-0.06-0.54-0.13-0.81-0.18
			c-0.08-0.02-0.16-0.03-0.24-0.04c-0.64-0.13-1.28-0.25-1.93-0.37c-0.37-0.07-0.73-0.14-1.1-0.2c-0.8-0.14-1.6-0.26-2.41-0.38
			c-0.21-0.03-0.41-0.07-0.62-0.1c-0.01,0-0.03,0-0.04,0c-1.01-0.14-2.02-0.27-3.03-0.38c-0.1-0.01-0.2-0.02-0.3-0.03
			c-0.91-0.1-1.83-0.19-2.75-0.27c-0.02,0-0.03,0-0.05,0c-0.33-0.03-0.65-0.04-0.98-0.07c-0.68-0.05-1.36-0.1-2.04-0.14
			c-0.41-0.02-0.82-0.03-1.23-0.05c-0.62-0.03-1.24-0.06-1.85-0.07c-0.05,0-0.1,0-0.15-0.01c-0.33-0.01-0.67,0-1-0.01
			c-0.67-0.01-1.34-0.02-2.01-0.02c-0.43,0-0.86,0.01-1.28,0.02c-0.62,0.01-1.24,0.02-1.87,0.04c-0.12,0-0.23,0-0.35,0.01
			c-0.29,0.01-0.57,0.03-0.86,0.04c-0.71,0.03-1.42,0.06-2.13,0.11c-0.43,0.03-0.86,0.06-1.29,0.09c-0.68,0.05-1.36,0.11-2.04,0.17
			c-0.24,0.02-0.48,0.04-0.72,0.06c-0.16,0.02-0.33,0.04-0.49,0.06c-1.07,0.11-2.13,0.24-3.19,0.38c-0.16,0.02-0.32,0.04-0.48,0.06
			c-1.2,0.17-2.4,0.36-3.59,0.57c-0.11,0.02-0.23,0.03-0.35,0.06c-0.31,0.06-0.62,0.12-0.93,0.18c-0.55,0.11-1.11,0.21-1.66,0.33
			c-0.45,0.09-0.9,0.19-1.34,0.29c-0.54,0.12-1.08,0.24-1.62,0.37c-0.45,0.11-0.89,0.22-1.33,0.33c-0.53,0.14-1.05,0.28-1.58,0.42
			c-0.44,0.12-0.88,0.25-1.31,0.38c-0.52,0.15-1.03,0.31-1.54,0.47c-0.23,0.07-0.46,0.14-0.69,0.21c-0.16,0.05-0.31,0.11-0.46,0.16
			c-0.93,0.31-1.86,0.63-2.77,0.97c-0.18,0.07-0.36,0.13-0.54,0.2c-1.07,0.41-2.12,0.84-3.15,1.29c-0.27,0.12-0.54,0.24-0.81,0.36
			c-0.79,0.35-1.57,0.72-2.34,1.1c-0.29,0.14-0.58,0.28-0.86,0.43c-0.99,0.51-1.96,1.03-2.91,1.57L4.89,146.72L4.75,324.24
			l9.71,0.63L192.6,215.49c0.94-0.55,1.92-1.07,2.91-1.58c0.28-0.15,0.57-0.29,0.86-0.43c0.77-0.38,1.55-0.75,2.34-1.1
			c0.27-0.12,0.53-0.24,0.81-0.36c1.03-0.45,2.08-0.88,3.15-1.29c0.18-0.07,0.36-0.13,0.54-0.2c0.91-0.34,1.83-0.66,2.77-0.97
			c0.38-0.13,0.77-0.25,1.15-0.37c0.51-0.16,1.03-0.32,1.54-0.47c0.44-0.13,0.87-0.25,1.31-0.38c0.52-0.15,1.05-0.28,1.58-0.42
			c0.44-0.11,0.88-0.23,1.33-0.33c0.54-0.13,1.08-0.25,1.62-0.37c0.45-0.1,0.89-0.2,1.34-0.29c0.55-0.11,1.1-0.22,1.66-0.33
			c0.42-0.08,0.85-0.16,1.27-0.24c1.19-0.21,2.38-0.4,3.59-0.57c0.16-0.02,0.32-0.04,0.47-0.06c1.06-0.14,2.13-0.27,3.2-0.38
			c0.4-0.04,0.81-0.08,1.21-0.12c0.68-0.06,1.36-0.12,2.04-0.17c0.43-0.03,0.86-0.06,1.29-0.09c0.71-0.04,1.42-0.08,2.13-0.11
			c0.4-0.02,0.8-0.04,1.2-0.05c0.62-0.02,1.24-0.03,1.86-0.04c0.43-0.01,0.86-0.02,1.29-0.02c0.67,0,1.33,0.01,2,0.02
			c0.38,0.01,0.77,0.01,1.15,0.02c0.62,0.02,1.24,0.05,1.85,0.07c0.41,0.02,0.82,0.03,1.23,0.05c0.68,0.04,1.36,0.09,2.04,0.14
			c0.34,0.03,0.69,0.04,1.03,0.07c0.92,0.08,1.85,0.17,2.76,0.27c0.1,0.01,0.19,0.02,0.29,0.03c1.01,0.11,2.02,0.24,3.03,0.38
			c0.22,0.03,0.43,0.07,0.65,0.1c0.81,0.12,1.61,0.24,2.42,0.38c0.37,0.06,0.73,0.14,1.1,0.21c0.64,0.12,1.29,0.24,1.93,0.37
			c0.35,0.07,0.7,0.15,1.05,0.23c0.7,0.15,1.4,0.31,2.1,0.47c0.4,0.1,0.79,0.2,1.19,0.3c0.64,0.16,1.28,0.33,1.91,0.51
			c0.37,0.1,0.73,0.21,1.09,0.31c1.01,0.3,2.02,0.61,3.01,0.93c0.17,0.06,0.34,0.11,0.51,0.16c1.13,0.38,2.24,0.79,3.34,1.22
			c0.45,0.17,0.89,0.35,1.33,0.54c0.35,0.14,0.7,0.28,1.04,0.43c0.5,0.21,0.99,0.44,1.48,0.66c0.32,0.14,0.64,0.28,0.95,0.43
			c0.54,0.25,1.06,0.52,1.59,0.79c0.26,0.13,0.52,0.25,0.77,0.39c0.77,0.4,1.53,0.82,2.28,1.25l58.6,34.05l0-1.86L495.25,336.86z"/>
		<path style="fill:#C6C6C6;" d="M201.06,213.59c0.26-0.12,0.52-0.24,0.78-0.35c1-0.43,2.02-0.85,3.05-1.24
			c0.17-0.07,0.35-0.13,0.53-0.19c0.88-0.33,1.77-0.64,2.68-0.94c0.37-0.12,0.74-0.24,1.11-0.36c0.5-0.16,0.99-0.31,1.49-0.46
			c0.42-0.12,0.84-0.25,1.27-0.36c0.51-0.14,1.01-0.28,1.53-0.41c0.43-0.11,0.86-0.22,1.29-0.32c0.52-0.13,1.04-0.24,1.57-0.36
			c0.43-0.1,0.86-0.19,1.3-0.28c0.53-0.11,1.07-0.21,1.6-0.32c0.41-0.08,0.82-0.16,1.23-0.23c1.15-0.2,2.31-0.39,3.47-0.55
			c0.15-0.02,0.31-0.04,0.46-0.06c1.03-0.14,2.06-0.26,3.09-0.37c0.39-0.04,0.78-0.08,1.17-0.11c0.66-0.06,1.32-0.12,1.98-0.16
			c0.41-0.03,0.83-0.06,1.25-0.09c0.69-0.04,1.38-0.07,2.07-0.1c0.39-0.02,0.78-0.04,1.17-0.05c0.6-0.02,1.2-0.03,1.8-0.03
			c0.42-0.01,0.84-0.02,1.25-0.02c0.64,0,1.29,0.01,1.93,0.02c0.37,0.01,0.74,0.01,1.12,0.02c0.6,0.02,1.2,0.04,1.79,0.07
			c0.4,0.02,0.79,0.03,1.19,0.05c0.66,0.04,1.32,0.09,1.98,0.13c0.33,0.02,0.67,0.04,1,0.07c0.89,0.07,1.79,0.16,2.67,0.26
			c0.09,0.01,0.19,0.02,0.28,0.03c0.98,0.11,1.96,0.23,2.93,0.37c0.21,0.03,0.42,0.07,0.63,0.1c0.78,0.12,1.56,0.23,2.34,0.37
			c0.36,0.06,0.71,0.13,1.06,0.2c0.62,0.11,1.25,0.23,1.86,0.35c0.34,0.07,0.67,0.15,1.01,0.22c0.68,0.15,1.36,0.3,2.03,0.46
			c0.39,0.09,0.77,0.19,1.15,0.29c0.62,0.16,1.24,0.32,1.85,0.49c0.35,0.1,0.71,0.2,1.06,0.3c0.98,0.29,1.95,0.59,2.91,0.9
			c0.16,0.05,0.33,0.1,0.49,0.16c1.09,0.37,2.17,0.77,3.23,1.18c0.43,0.17,0.86,0.34,1.29,0.52c0.34,0.14,0.68,0.28,1.01,0.42
			c0.48,0.21,0.96,0.42,1.43,0.64c0.31,0.14,0.62,0.04,0.92,0.18c0.52,0.25,1.03,0.5,1.54,0.76c0.25,0.13,0.5,0.24,0.74,0.37
			c0.75,0.39,1.48,0.79,2.2,1.21l0.13-171.53c-0.72-0.42-1.46-0.82-2.2-1.21c-0.24-0.13-0.5-0.25-0.74-0.37
			c-0.51-0.26-1.02-0.52-1.54-0.76c-0.3-0.14-0.61-0.28-0.92-0.42c-0.47-0.22-0.95-0.43-1.43-0.64c-0.33-0.14-0.67-0.28-1.01-0.42
			c-0.32-0.13-0.64-0.27-0.96-0.4c-0.11-0.04-0.22-0.08-0.32-0.12c-1.06-0.41-2.14-0.81-3.23-1.18c-0.16-0.05-0.32-0.1-0.48-0.16
			c-0.96-0.32-1.93-0.62-2.92-0.91c-0.16-0.05-0.32-0.1-0.48-0.15c-0.19-0.05-0.39-0.1-0.58-0.15c-0.61-0.17-1.23-0.33-1.85-0.49
			c-0.38-0.1-0.76-0.2-1.15-0.29c-0.67-0.16-1.35-0.31-2.03-0.46c-0.26-0.06-0.52-0.12-0.78-0.18c-0.08-0.02-0.15-0.03-0.23-0.04
			c-0.62-0.13-1.24-0.24-1.86-0.36c-0.36-0.07-0.71-0.14-1.06-0.2c-0.77-0.13-1.55-0.25-2.33-0.37c-0.2-0.03-0.4-0.07-0.6-0.09
			c-0.01,0-0.03,0-0.04,0c-0.97-0.14-1.95-0.26-2.93-0.37c-0.1-0.01-0.19-0.02-0.29-0.03c-0.89-0.1-1.77-0.18-2.66-0.26
			c-0.02,0-0.03,0-0.05,0c-0.32-0.03-0.63-0.04-0.95-0.06c-0.66-0.05-1.32-0.1-1.98-0.13c-0.4-0.02-0.79-0.03-1.19-0.05
			c-0.6-0.03-1.2-0.05-1.79-0.07c-0.05,0-0.09,0-0.14-0.01c-0.32-0.01-0.65,0-0.97-0.01c-0.65-0.01-1.29-0.02-1.94-0.02
			c-0.41,0-0.83,0.01-1.24,0.02c-0.6,0.01-1.2,0.02-1.81,0.03c-0.11,0-0.22,0-0.33,0.01c-0.28,0.01-0.55,0.03-0.83,0.04
			c-0.69,0.03-1.38,0.06-2.07,0.1c-0.42,0.03-0.83,0.06-1.25,0.09c-0.66,0.05-1.32,0.1-1.98,0.16c-0.23,0.02-0.47,0.04-0.7,0.06
			c-0.16,0.02-0.31,0.04-0.47,0.06c-1.03,0.11-2.07,0.23-3.09,0.37c-0.15,0.02-0.31,0.04-0.46,0.06c-1.17,0.16-2.32,0.35-3.47,0.55
			c-0.11,0.02-0.22,0.03-0.33,0.05c-0.3,0.05-0.6,0.12-0.9,0.18c-0.54,0.1-1.07,0.2-1.6,0.32c-0.43,0.09-0.87,0.19-1.3,0.28
			c-0.52,0.12-1.05,0.24-1.57,0.36c-0.43,0.1-0.86,0.21-1.29,0.32c-0.51,0.13-1.02,0.27-1.53,0.41c-0.43,0.12-0.85,0.24-1.27,0.36
			c-0.5,0.15-1,0.3-1.49,0.45c-0.22,0.07-0.45,0.13-0.67,0.2c-0.15,0.05-0.3,0.11-0.45,0.16c-0.9,0.3-1.8,0.61-2.68,0.94
			c-0.17,0.06-0.35,0.12-0.53,0.19c-1.04,0.39-2.05,0.81-3.05,1.24c-0.26,0.11-0.52,0.23-0.78,0.35c-0.77,0.34-1.52,0.7-2.26,1.07
			c-0.28,0.14-0.56,0.27-0.83,0.42c-0.96,0.49-1.9,0.99-2.81,1.52l-0.13,171.77c0.91-0.53,1.86-1.03,2.81-1.52
			c0.27-0.14,0.55-0.28,0.83-0.42C199.54,214.29,200.3,213.94,201.06,213.59z"/>
		<g>
			<polygon style="fill:#C6C6C6;" points="195.29,44.6 195.16,216.37 13.4,321.6 13.53,149.83 			"/>
		</g>
		<g>
			<polygon style="fill:#C6C6C6;" points="341.42,79.03 342,249.63 281.83,216.6 281.97,44.6 			"/>
		</g>
		
			<line style="fill:#0D352F;stroke:#000000;stroke-width:1.8679;stroke-miterlimit:10;" x1="242.29" y1="111.58" x2="242.29" y2="34.33"/>
		<polyline style="fill:#3C3C3B;" points="457.54,349.67 462.88,355.44 464.09,354.9 495.25,336.86 487.81,332.26 458.15,349.32 		
			"/>
		<polygon style="fill:#C6C6C6;" points="307.09,229.34 307.66,59.58 487.42,163.14 487.42,332.26 		"/>
		<polygon style="fill:#3C3C3B;" points="4.76,317.25 4.75,324.24 26.52,337.56 28.9,332.84 		"/>
		<path style="fill:#3C3C3B;" d="M232.45,114.32c-5.23,3.35-11.25,8.86-14.91,17.63h25.01h24.47c-3.59-8.61-9.27-14.08-14.24-17.44
			C246.68,110.36,238.67,110.34,232.45,114.32z"/>
		<g>
			<polygon style="fill:#706F6F;" points="296.71,75.27 296.71,192.61 341.07,218.32 341.07,100.99 			"/>
			<polygon style="opacity:0.84;fill:#CA9E67;" points="299.6,76.94 299.6,191.38 341.07,215.42 341.07,218.32 296.71,192.61 
				296.71,75.27 			"/>
			<polygon style="fill:#FFF6EB;" points="299.6,191.38 296.71,192.61 341.07,218.32 341.07,215.42 			"/>
		</g>
		<polygon style="fill:#F6F6F6;" points="341.07,213.99 300.73,190.64 300.73,138.56 299.69,137.97 299.6,191.38 341.07,215.42 		
			"/>
		<g>
			<defs>
				<polygon id="SVGID_318_" points="302,218.54 300.74,141.72 366.83,180.17 309.63,221.61 				"/>
			</defs>
			<clipPath id="SVGID_7_">
				<use xlink:href="#SVGID_318_"  style="overflow:visible;"/>
			</clipPath>
		</g>
		<g>
			<defs>
				<polygon id="SVGID_320_" points="302,218.54 300.74,141.72 366.83,180.17 309.63,221.61 				"/>
			</defs>
			<clipPath id="SVGID_9_">
				<use xlink:href="#SVGID_320_"  style="overflow:visible;"/>
			</clipPath>
		</g>
		<g>
			<defs>
				<path id="SVGID_322_" d="M208.4,194.91c0,0,3.3,5.89,9.1,4.2c3.17-0.93,3.58,7.75,3.58,7.75s-2.13,5.23-2.43,5.31
					s-10.25,0.77-10.25,0.77l-6.08-11.23l4.13-6.9L208.4,194.91z"/>
			</defs>
			<clipPath id="SVGID_11_">
				<use xlink:href="#SVGID_322_"  style="overflow:visible;"/>
			</clipPath>
		</g>
		<g>
			<defs>
				<path id="SVGID_324_" d="M194.36,260.78l5.93,6.59c4.33,4.81,9.29,9,14.76,12.47l2.31,1.46l-7.06,35.52l-16.96-8.86l2.07-22.74
					L194.36,260.78z"/>
			</defs>
			<clipPath id="SVGID_13_">
				<use xlink:href="#SVGID_324_"  style="overflow:visible;"/>
			</clipPath>
		</g>
		<g style="opacity:0.5;">
			<defs>
				<path id="SVGID_326_" style="opacity:0.5;" d="M356.09,299.13l-12.16,59.27l26.02-14.15l4.44-17.6c0,0,1.89-22.27,1.89-23.02
					s-4.64-12.82-4.64-12.82l-21.98,2.45l1.88,1.83L356.09,299.13z"/>
			</defs>
			<clipPath id="SVGID_15_">
				<use xlink:href="#SVGID_326_"  style="overflow:visible;"/>
			</clipPath>
		</g>
		<path style="fill:#1D1D1B;" d="M338.51,192.58v-89.88h0.75v89.88c0.55,0.2,0.95,0.82,0.95,1.56c0,0.9-0.6,1.63-1.33,1.63
			s-1.33-0.73-1.33-1.63C337.56,193.4,337.96,192.78,338.51,192.58z"/>
		<g>
			<g>
				<g>
					<g>
						<path style="fill:#3C3C3B;" d="M103.34,153.76c0,2.63,0.48,4.85,1.35,6.61c0.87,1.76,2.12,3.06,3.66,3.84l2.62,1.51
							c-2.81-1.68-4.54-5.21-4.54-10.19c0-10.14,7.16-22.5,16-27.6c4.27-2.47,8.15-2.79,11.02-1.31h0l-2.56-1.47v0
							c-2.91-1.81-7.01-1.61-11.56,1.01C110.51,131.26,103.34,143.62,103.34,153.76z"/>
						<path style="fill:#B2B2B2;" d="M107.87,163.92l2.62,1.51c-2.81-1.68-4.54-5.21-4.54-10.19c0-10.14,7.16-22.5,16-27.6
							c4.19-2.42,8-2.77,10.86-1.39l0.65,0.37h0c-2.87-1.47-6.75-1.15-11.02,1.31c-8.84,5.1-16,17.46-16,27.6
							c0,4.98,1.73,8.51,4.54,10.19l-2.62-1.51c-0.26-0.13-0.51-0.29-0.76-0.45C107.69,163.82,107.78,163.87,107.87,163.92z"/>
						<path style="fill:#FF9D9C;" d="M106.43,155.54c0,4.98,1.73,8.51,4.54,10.19l0.21,0.12l0.03,0.02v0l-0.4-0.88
							c2.47,0.36,5.39-0.29,8.53-2.1c8.84-5.1,16-17.46,16-27.6c0-3.83-1.02-6.8-2.77-8.73l0.88,0.07
							c-2.87-1.47-6.75-1.15-11.02,1.31C113.6,133.04,106.43,145.39,106.43,155.54z"/>
						<path style="fill:#3C3C3B;" d="M106.43,155.54c0,4.98,1.73,8.51,4.54,10.19l0.21,0.12c0.01,0.01,0.02,0.01,0.03,0.01v0
							c2.89,1.59,6.85,1.32,11.22-1.21c8.84-5.1,16-17.46,16-27.6c0-5.24-1.91-8.86-4.98-10.44c-2.87-1.47-6.75-1.15-11.02,1.31
							C113.6,133.04,106.43,145.39,106.43,155.54z"/>
						
							<ellipse transform="matrix(0.5047 -0.8633 0.8633 0.5047 -65.656 178.1604)" style="fill:#F6F6F6;" cx="122.43" cy="146.3" rx="18.49" ry="10.67"/>
						<path style="fill:#575756;" d="M110.76,153.15c0.31-0.18,0.57-0.62,0.57-0.98c0-0.36-0.25-0.51-0.57-0.32
							c-0.31,0.18-0.57,0.62-0.57,0.98C110.19,153.18,110.44,153.33,110.76,153.15z"/>
						<path style="fill:#575756;" d="M121.71,160.85c7.24-4.18,13.11-14.31,13.11-22.62c0-3.7-1.16-6.41-3.09-7.92
							c2.36,1.36,3.82,4.27,3.82,8.41c0,8.31-5.87,18.44-13.11,22.62c-4.02,2.32-7.61,2.32-10.02,0.44
							C114.79,163.15,118.08,162.95,121.71,160.85z"/>
						<g>
							<path style="fill:#B2B2B2;" d="M122.28,161.21c7.24-4.18,13.11-14.31,13.11-22.62c0-3.53-1.06-6.16-2.83-7.7
								c1.86,1.52,2.99,4.2,2.99,7.83c0,8.31-5.87,18.44-13.11,22.62c-4.02,2.32-7.61,2.32-10.02,0.44c0.03,0.02,0.07,0.03,0.1,0.05
								C114.92,163.53,118.4,163.45,122.28,161.21z"/>
							<path style="fill:#FFFFFF;" d="M131.73,130.32c0.01,0.01,0.02,0.01,0.03,0.02c0.07,0.06,0.15,0.13,0.22,0.19
								C131.89,130.46,131.81,130.38,131.73,130.32z"/>
						</g>
					</g>
					<g>
						<path style="fill:#66462D;" d="M121.31,146.4c0,0.49,0.35,0.69,0.78,0.44c0.43-0.25,0.78-0.85,0.78-1.34
							c0-0.49-0.35-0.69-0.78-0.44C121.66,145.31,121.31,145.91,121.31,146.4z"/>
						<path style="fill:#9D9D9C;" d="M121.57,146.58c0,0.49,0.35,0.69,0.78,0.44c0.43-0.25,0.78-0.85,0.78-1.34
							c0-0.49-0.35-0.69-0.78-0.44C121.92,145.48,121.57,146.08,121.57,146.58z"/>
						<path style="fill:#575756;" d="M121.52,133.28c0,0.36,0.25,0.5,0.57,0.32c0.31-0.18,0.57-0.62,0.57-0.98s-0.25-0.5-0.57-0.32
							C121.78,132.48,121.52,132.92,121.52,133.28z"/>
						<path style="fill:#575756;" d="M115.93,138.57c0.16,0.22,0.5,0.13,0.78-0.21c0.27-0.34,0.36-0.79,0.21-1.01
							c-0.16-0.22-0.5-0.13-0.78,0.21C115.87,137.9,115.78,138.35,115.93,138.57z"/>
						<path style="fill:#575756;" d="M111.99,145.84c0.27,0.02,0.62-0.28,0.78-0.69c0.16-0.4,0.06-0.75-0.21-0.77
							c-0.27-0.02-0.62,0.28-0.78,0.69C111.63,145.48,111.72,145.82,111.99,145.84z"/>
						<path style="fill:#575756;" d="M112.56,158.52c0.27-0.34,0.36-0.79,0.21-1.01c-0.16-0.22-0.5-0.13-0.78,0.21
							c-0.27,0.34-0.36,0.79-0.21,1.01C111.94,158.95,112.28,158.86,112.56,158.52z"/>
						<path style="fill:#575756;" d="M116.91,160.53c0.16-0.4,0.06-0.75-0.21-0.77c-0.27-0.02-0.62,0.28-0.78,0.69
							c-0.16,0.4-0.06,0.75,0.21,0.77C116.41,161.24,116.75,160.94,116.91,160.53z"/>
						<path style="fill:#575756;" d="M122.65,158.64c0-0.36-0.25-0.51-0.57-0.32c-0.31,0.18-0.57,0.62-0.57,0.98
							c0,0.36,0.25,0.51,0.57,0.32C122.4,159.44,122.65,159,122.65,158.64z"/>
						<path style="fill:#575756;" d="M128.24,153.35c-0.16-0.22-0.5-0.13-0.78,0.21c-0.27,0.34-0.37,0.79-0.21,1.01
							c0.16,0.22,0.5,0.13,0.78-0.21C128.31,154.02,128.4,153.57,128.24,153.35z"/>
						<path style="fill:#575756;" d="M132.19,146.08c-0.27-0.02-0.62,0.28-0.78,0.69c-0.16,0.4-0.06,0.75,0.21,0.77
							c0.27,0.02,0.62-0.28,0.78-0.69C132.55,146.45,132.46,146.1,132.19,146.08z"/>
						<path style="fill:#575756;" d="M133.43,138.77c-0.31,0.18-0.57,0.62-0.57,0.98c0,0.36,0.25,0.51,0.57,0.32
							c0.31-0.18,0.57-0.62,0.57-0.98C133.99,138.74,133.74,138.59,133.43,138.77z"/>
						<path style="fill:#575756;" d="M131.63,133.39c-0.27,0.34-0.37,0.79-0.21,1.01c0.16,0.22,0.5,0.13,0.78-0.21
							c0.27-0.34,0.37-0.79,0.21-1.01C132.25,132.96,131.9,133.06,131.63,133.39z"/>
						<path style="fill:#575756;" d="M127.28,131.38c-0.16,0.4-0.06,0.75,0.21,0.77c0.27,0.02,0.62-0.28,0.78-0.69
							c0.16-0.4,0.06-0.75-0.21-0.77C127.78,130.67,127.44,130.98,127.28,131.38z"/>
					</g>
					<path style="fill:#DADADA;" d="M134.24,141.31c0-8.31-5.87-11.66-13.11-7.48c-3.71,2.14-7.06,5.84-9.44,10.06
						c2.37-5.26,6.3-10.07,10.75-12.64c7.24-4.18,13.11-0.83,13.11,7.48c0,4.05-1.4,8.54-3.67,12.56
						C133.36,147.99,134.24,144.51,134.24,141.31z"/>
				</g>
			</g>
		</g>
		<polygon style="fill:#575756;" points="299.6,191.38 296.71,192.61 341.07,218.32 341.07,215.42 		"/>
		<g>
			<g>
				<g>
					<g>
						<g style="enable-background:new    ;">
							<path style="fill:#FFBE3D;" d="M165.28,280.94c-0.35,3.87-3.99,6.49-7.27,7.91c-3.58,1.54-7.51,2.16-11.39,2.11
								c-3.96-0.05-8-0.81-11.57-2.57c-3.12-1.53-6.42-4.31-6.41-8.1c-0.01,2.75,0.19,5.03,2.17,7.18c2.56,2.77,6.4,4.26,10.02,5.01
								c7.06,1.46,16.67,0.75,22.04-4.68c2.16-2.19,2.45-4.49,2.46-7.4C165.32,280.59,165.31,280.77,165.28,280.94z"/>
							<g>
								<path style="fill:#FFD88B;" d="M159.91,272.84c7.19,4.15,7.23,10.88,0.09,15.03c-7.14,4.15-18.76,4.15-25.95,0
									c-7.19-4.15-7.22-10.88-0.08-15.03C141.12,268.69,152.72,268.69,159.91,272.84z"/>
							</g>
						</g>
					</g>
					<g>
						<g style="enable-background:new    ;">
							<g>
								<polygon style="fill:#FFBE3D;" points="150.25,264.45 150.21,280.48 147.4,282.12 147.45,266.08 								"/>
							</g>
							<g>
								<polygon style="fill:#B17746;" points="147.45,266.08 147.4,282.12 144.58,280.48 144.62,264.45 								"/>
							</g>
							<g>
								<polygon style="fill:#4DA5DC;" points="150.25,264.45 147.45,266.08 144.62,264.45 147.43,262.82 								"/>
							</g>
						</g>
					</g>
				</g>
				<path style="fill:#878787;" d="M129.2,212.46c0,0-5.75,1.53-7.28,4.98c-1.53,3.45-1.15,29.51,6.9,40.25
					c8.05,10.73,23,12.27,26.45,10.73c3.45-1.53,23.38-11.5,24.92-16.48c1.53-4.98-6.13-8.82-10.35-10.73
					c-4.22-1.92-6.9-4.6-9.2-11.5c-2.3-6.9-3.45-18.78-6.13-20.7C151.82,207.09,145.3,204.02,129.2,212.46z"/>
			</g>
		</g>
		<g>
			<g>
				<g>
					<g style="enable-background:new    ;">
						<path style="fill:#FFBE3D;" d="M233.44,266.96c0.35,3.92,4.04,6.58,7.37,8.01c3.62,1.56,7.61,2.19,11.54,2.14
							c4.01-0.05,8.11-0.82,11.73-2.6c3.16-1.55,6.51-4.37,6.5-8.2c0.01,2.79-0.19,5.1-2.2,7.28c-2.59,2.81-6.49,4.32-10.15,5.07
							c-7.15,1.48-16.89,0.76-22.33-4.74c-2.19-2.22-2.49-4.55-2.49-7.5C233.4,266.6,233.42,266.78,233.44,266.96z"/>
						<g>
							<path style="fill:#FFD88B;" d="M238.88,258.74c-7.28,4.2-7.33,11.02-0.09,15.23c7.23,4.2,19.01,4.2,26.3,0
								c7.28-4.2,7.31-11.02,0.08-15.23C257.93,254.54,246.17,254.54,238.88,258.74z"/>
						</g>
					</g>
				</g>
				<g>
					<g style="enable-background:new    ;">
						<g>
							<polygon style="fill:#FFBE3D;" points="248.67,250.24 248.71,266.49 251.56,268.14 251.51,251.9 							"/>
						</g>
						<g>
							<polygon style="fill:#B17746;" points="251.51,251.9 251.56,268.14 254.42,266.49 254.37,250.24 							"/>
						</g>
						<g>
							<polygon style="fill:#4DA5DC;" points="248.67,250.24 251.51,251.9 254.37,250.24 251.53,248.59 							"/>
						</g>
					</g>
				</g>
			</g>
			<path style="fill:#FFF961;" d="M270,197.56c0,0,5.83,1.55,7.38,5.05c1.55,3.5,1.17,29.91-6.99,40.78
				c-8.16,10.88-23.3,12.43-26.8,10.88s-23.69-11.65-25.25-16.7c-1.55-5.05,6.21-8.93,10.49-10.88c4.27-1.94,6.99-4.66,9.32-11.65
				c2.33-6.99,3.5-19.03,6.21-20.97C247.08,192.12,253.69,189.02,270,197.56z"/>
			<path style="fill:#878787;" d="M270,197.56c0,0,5.83,1.55,7.38,5.05c1.55,3.5,1.17,29.91-6.99,40.78
				c-8.16,10.88-23.3,12.43-26.8,10.88s-23.69-11.65-25.25-16.7c-1.55-5.05,6.21-8.93,10.49-10.88c4.27-1.94,6.99-4.66,9.32-11.65
				c2.33-6.99,3.5-19.03,6.21-20.97C247.08,192.12,253.69,189.02,270,197.56z"/>
		</g>
		<g>
			<g>
				<g>
					<g style="enable-background:new    ;">
						<path style="fill:#FFBE3D;" d="M286.63,294.17c0.35,3.92,4.04,6.58,7.37,8.01c3.62,1.56,7.61,2.19,11.54,2.14
							c4.01-0.05,8.11-0.82,11.73-2.6c3.16-1.55,6.51-4.37,6.5-8.2c0.01,2.79-0.19,5.1-2.2,7.28c-2.59,2.81-6.49,4.32-10.15,5.07
							c-7.15,1.48-16.89,0.76-22.33-4.74c-2.19-2.22-2.49-4.55-2.49-7.5C286.59,293.81,286.61,293.99,286.63,294.17z"/>
						<g>
							<path style="fill:#FFD88B;" d="M292.07,285.96c-7.28,4.2-7.33,11.02-0.09,15.23c7.23,4.2,19.01,4.2,26.3,0
								c7.28-4.2,7.31-11.02,0.08-15.23C311.12,281.76,299.36,281.76,292.07,285.96z"/>
						</g>
					</g>
				</g>
				<g>
					<g style="enable-background:new    ;">
						<g>
							<polygon style="fill:#FFBE3D;" points="301.86,277.46 301.9,293.71 304.75,295.36 304.7,279.11 							"/>
						</g>
						<g>
							<polygon style="fill:#B17746;" points="304.7,279.11 304.75,295.36 307.61,293.71 307.56,277.46 							"/>
						</g>
						<g>
							<polygon style="fill:#4DA5DC;" points="301.86,277.46 304.7,279.11 307.56,277.46 304.72,275.81 							"/>
						</g>
					</g>
				</g>
			</g>
			<path style="fill:#FFF961;" d="M323.19,224.78c0,0,5.83,1.55,7.38,5.05c1.55,3.5,1.17,29.91-6.99,40.78
				c-8.16,10.88-23.3,12.43-26.8,10.88s-23.69-11.65-25.25-16.7c-1.55-5.05,6.21-8.93,10.49-10.88c4.27-1.94,6.99-4.66,9.32-11.65
				c2.33-6.99,3.5-19.03,6.21-20.97C300.27,219.34,306.88,216.23,323.19,224.78z"/>
			<path style="fill:#878787;" d="M323.19,224.78c0,0,5.83,1.55,7.38,5.05c1.55,3.5,1.17,29.91-6.99,40.78
				c-8.16,10.88-23.3,12.43-26.8,10.88s-23.69-11.65-25.25-16.7c-1.55-5.05,6.21-8.93,10.49-10.88c4.27-1.94,6.99-4.66,9.32-11.65
				c2.33-6.99,3.5-19.03,6.21-20.97C300.27,219.34,306.88,216.23,323.19,224.78z"/>
		</g>
		<g>
			<g style="enable-background:new    ;">
				<g>
					<polygon style="fill:#B2B2B2;" points="197.89,290.77 197.78,329.75 190.96,333.71 191.08,294.73 					"/>
				</g>
				<g>
					<polygon style="fill:#B17746;" points="191.08,294.73 190.96,333.71 184.1,329.75 184.21,290.77 					"/>
				</g>
				<g>
					<polygon style="fill:#4DA5DC;" points="197.89,290.77 191.08,294.73 184.21,290.77 191.03,286.8 					"/>
				</g>
			</g>
		</g>
		<path style="fill:#835333;" d="M310.02,264.07c-0.01,0.11-0.02,0.23-0.04,0.34c-0.02,0.09-0.05,0.19-0.07,0.28
			c-0.03,0.11-0.05,0.22-0.09,0.32c-0.03,0.09-0.07,0.18-0.11,0.26c-0.05,0.11-0.1,0.23-0.16,0.34c-0.04,0.08-0.1,0.16-0.15,0.24
			c-0.08,0.13-0.16,0.25-0.25,0.38c-0.09,0.12-0.18,0.24-0.29,0.36c-0.02,0.03-0.05,0.06-0.07,0.08c-0.14,0.15-0.29,0.3-0.46,0.45
			c-0.1,0.09-0.22,0.18-0.33,0.27c-0.1,0.08-0.2,0.16-0.3,0.24c-0.12,0.09-0.26,0.17-0.39,0.26c-0.14,0.09-0.26,0.18-0.41,0.26
			l-87.68,50.95c-0.72,0.42-1.52,0.77-2.37,1.04c-0.66,0.21-1.34,0.38-2.05,0.51c-0.45,0.08-0.91,0.15-1.38,0.19
			c-0.4,0.04-0.8,0.07-1.2,0.08c-0.37,0.01-0.74,0.01-1.11,0.01c-0.36-0.01-0.71-0.03-1.07-0.06l-0.02,6.25
			c0.35,0.03,0.71,0.05,1.07,0.06c0.37,0.01,0.74,0.01,1.11-0.01c0.4-0.01,0.8-0.04,1.2-0.08c0.47-0.05,0.93-0.11,1.38-0.19
			c0.71-0.13,1.39-0.3,2.05-0.51c0.85-0.28,1.65-0.62,2.37-1.04l87.68-50.95c0.04-0.03,0.09-0.05,0.13-0.08
			c0.1-0.06,0.18-0.12,0.28-0.18c0.13-0.09,0.27-0.17,0.39-0.26c0.11-0.08,0.2-0.16,0.3-0.24c0.11-0.09,0.23-0.18,0.33-0.28
			c0.02-0.02,0.05-0.04,0.07-0.06c0.14-0.13,0.27-0.26,0.39-0.39c0.03-0.03,0.05-0.06,0.07-0.08c0.07-0.08,0.15-0.16,0.21-0.25
			c0.03-0.04,0.05-0.07,0.07-0.11c0.09-0.12,0.18-0.25,0.25-0.38c0.03-0.05,0.08-0.1,0.11-0.16c0.02-0.03,0.02-0.05,0.04-0.08
			c0.06-0.11,0.11-0.22,0.16-0.34c0.03-0.07,0.07-0.13,0.09-0.2c0.01-0.02,0.01-0.05,0.02-0.07c0.04-0.11,0.06-0.22,0.09-0.32
			c0.02-0.07,0.05-0.15,0.06-0.22c0-0.02,0-0.04,0.01-0.06c0.02-0.11,0.03-0.23,0.04-0.34c0.01-0.07,0.02-0.15,0.03-0.22
			c0-0.03,0-0.06,0-0.1l0.02-6.25C310.05,263.86,310.03,263.96,310.02,264.07z"/>
		<g>
			<g style="enable-background:new    ;">
				<g>
					<polygon style="fill:#706F6F;" points="232.6,311.45 232.49,350.95 225.58,354.96 225.69,315.47 					"/>
				</g>
				<g>
					<polygon style="fill:#3C3C3B;" points="225.69,315.47 225.58,354.96 218.62,350.95 218.74,311.45 					"/>
				</g>
				<g>
					<polygon style="fill:#4DA5DC;" points="232.6,311.45 225.69,315.47 218.74,311.45 225.65,307.44 					"/>
				</g>
			</g>
		</g>
		<path style="fill:#575756;" d="M346.22,284.4c-0.01,0.11-0.02,0.23-0.04,0.34c-0.02,0.09-0.05,0.19-0.07,0.28
			c-0.03,0.11-0.06,0.22-0.09,0.33c-0.03,0.09-0.07,0.18-0.11,0.27c-0.05,0.11-0.1,0.23-0.16,0.34c-0.04,0.08-0.1,0.16-0.15,0.24
			c-0.08,0.13-0.16,0.26-0.26,0.38c-0.09,0.12-0.18,0.24-0.29,0.36c-0.02,0.03-0.05,0.06-0.07,0.08c-0.14,0.15-0.3,0.3-0.46,0.45
			c-0.11,0.09-0.22,0.19-0.34,0.28c-0.1,0.08-0.2,0.16-0.31,0.24c-0.12,0.09-0.26,0.18-0.4,0.26c-0.14,0.09-0.27,0.18-0.42,0.27
			l-88.84,51.63c-0.73,0.42-1.54,0.78-2.4,1.06c-0.67,0.22-1.36,0.39-2.08,0.52c-0.46,0.08-0.93,0.15-1.4,0.19
			c-0.4,0.04-0.81,0.07-1.22,0.08c-0.37,0.01-0.75,0.01-1.12,0.01c-0.36-0.01-0.72-0.03-1.08-0.06c-0.36-0.03-0.71-0.07-1.07-0.12
			c-0.37-0.05-0.73-0.11-1.09-0.19c-0.39-0.08-0.77-0.17-1.14-0.28c-0.46-0.13-0.9-0.28-1.33-0.45c-0.56-0.22-1.09-0.47-1.58-0.76
			l-28.67-16.55l0.01-2.74c-0.35-0.03-0.7-0.07-1.05-0.12c-0.36-0.05-0.72-0.11-1.07-0.19c-0.38-0.08-0.76-0.17-1.13-0.28
			c-0.45-0.13-0.89-0.28-1.31-0.44c-0.55-0.22-1.07-0.47-1.56-0.75l-57.31-33.09c-0.37-0.65-0.56-1.32-0.56-2l0,1.67l-30.37-17.54
			c-2.13-1.23-3.2-2.85-3.19-4.46l-0.02,6.25c0,1.61,1.06,3.23,3.19,4.46l30.86,17.82c0.51,0.97,1.43,1.88,2.75,2.65l89.42,51.63
			c0.49,0.29,1.02,0.54,1.58,0.76c0.43,0.17,0.87,0.32,1.33,0.45c0.37,0.11,0.76,0.2,1.14,0.28c0.36,0.07,0.72,0.14,1.09,0.19
			c0.35,0.05,0.71,0.09,1.07,0.12c0.36,0.03,0.72,0.05,1.08,0.06c0.37,0.01,0.75,0.01,1.12-0.01c0.41-0.01,0.81-0.04,1.22-0.08
			c0.47-0.05,0.94-0.11,1.4-0.19c0.71-0.13,1.41-0.3,2.08-0.52c0.86-0.28,1.67-0.63,2.4-1.06l88.84-51.63
			c0.05-0.03,0.09-0.05,0.13-0.08c0.1-0.06,0.19-0.13,0.28-0.19c0.13-0.09,0.27-0.17,0.4-0.27c0.11-0.08,0.2-0.16,0.31-0.24
			c0.12-0.09,0.23-0.18,0.34-0.28c0.02-0.02,0.05-0.04,0.07-0.06c0.14-0.13,0.27-0.26,0.39-0.4c0.03-0.03,0.05-0.06,0.07-0.09
			c0.07-0.08,0.15-0.16,0.21-0.25c0.03-0.04,0.05-0.07,0.08-0.11c0.09-0.13,0.18-0.25,0.26-0.38c0.03-0.05,0.08-0.11,0.11-0.16
			c0.02-0.03,0.02-0.06,0.04-0.08c0.06-0.11,0.11-0.23,0.16-0.34c0.03-0.07,0.07-0.13,0.09-0.2c0.01-0.02,0.01-0.05,0.02-0.07
			c0.04-0.11,0.07-0.22,0.09-0.33c0.02-0.07,0.05-0.15,0.06-0.22c0-0.02,0-0.04,0.01-0.06c0.02-0.11,0.03-0.23,0.04-0.35
			c0.01-0.07,0.02-0.15,0.03-0.22c0-0.03,0-0.06,0-0.1l0.02-6.33C346.24,284.18,346.23,284.29,346.22,284.4z"/>
		<path style="fill:#DADADA;" d="M343.01,279.8l-60.45-34.3l-63.95-36.92c-4.24-2.45-11.09-2.45-15.3,0l-87.68,50.95
			c-4.21,2.45-4.19,6.41,0.05,8.86l14.99,8.65c0.46,0.45,1.01,0.87,1.68,1.26l106.37,62.1c4.3,2.48,11.24,2.48,15.5,0l88.84-51.63
			C347.33,286.3,347.3,282.28,343.01,279.8z"/>
		<path style="fill:none;" d="M352.48,309.06l-19.2,61.55l-9.01-2.24l0.47-1.02c8.21-7.74,7.24-21.07,7.67-32.21l0.19-5.03
			l-2.02-8.83c-0.01-0.06-0.05-0.12-0.09-0.17l-4.09-4.05c0,0,3.28-11.65,5.27-11.94c1.99-0.29,12.98-0.75,12.98-0.75L352.48,309.06
			z"/>
		<g>
			<defs>
				<path id="SVGID_4_" d="M211.64,332.85c-0.14-0.75-22.41-10.07-16.24,22.91c1.4,7.5,14.13,11.03,23.43,9.1
					s14.93-15.18,13.87-19.62s-5.83-15.38-7.42-15.15s-7.19-0.36-7.19-0.36L211.64,332.85z"/>
			</defs>
			<clipPath id="SVGID_17_">
				<use xlink:href="#SVGID_4_"  style="overflow:visible;"/>
			</clipPath>
			<path style="opacity:0.39;clip-path:url(#SVGID_17_);fill:#CE7C56;" d="M195.22,318.09c1.18,2.36,4.98,15.52,6.86,22.11
				c0.54,1.91,2.74,2.78,4.44,1.77l11.63-6.86c2.21-1.3,4.94,0.57,4.52,3.1l-1.87,11.2c-0.04,0.26-0.13,0.51-0.24,0.74
				c-0.08,0.26-0.3,0.62-0.45,0.85c-0.22,0.27-0.52,0.55-0.83,0.72l-12.35,7.09c-2.64,1.51-5.39,2.54-8.31,2.97
				c-10.09-7.83-8.98-40.71-5.32-43.46c0.54-0.41,1.02-0.66,1.44-0.8C194.98,317.75,195.14,317.93,195.22,318.09z"/>
		</g>
		<g>
			<g>
				<g>
					<g>
						<g style="enable-background:new    ;">
							<path style="fill:#878787;" d="M157.26,340.84c-0.32,3.54-3.65,5.95-6.66,7.24c-3.27,1.41-6.88,1.98-10.43,1.93
								c-3.63-0.05-7.33-0.74-10.6-2.35c-2.85-1.4-5.88-3.95-5.87-7.41c-0.01,2.52,0.17,4.61,1.99,6.58
								c2.34,2.54,5.86,3.9,9.18,4.58c6.47,1.33,15.27,0.69,20.18-4.29c1.98-2,2.25-4.11,2.25-6.78
								C157.3,340.52,157.28,340.68,157.26,340.84z"/>
							<g>
								<path style="fill:#C6C6C6;" d="M152.34,333.42c6.58,3.8,6.62,9.96,0.09,13.76c-6.54,3.8-17.18,3.8-23.77,0
									c-6.58-3.8-6.61-9.96-0.07-13.76C135.13,329.62,145.76,329.62,152.34,333.42z"/>
							</g>
						</g>
					</g>
					<g>
						<g style="enable-background:new    ;">
							<g>
								<polygon style="fill:#B2B2B2;" points="143.5,325.74 143.46,340.42 140.89,341.91 140.93,327.23 								"/>
							</g>
							<g>
								<polygon style="fill:#878787;" points="140.93,327.23 140.89,341.91 138.3,340.42 138.34,325.74 								"/>
							</g>
							<g>
								<polygon style="fill:#878787;" points="143.5,325.74 140.93,327.23 138.34,325.74 140.91,324.24 								"/>
							</g>
						</g>
					</g>
				</g>
				<g>
					<path style="fill:#878787;" d="M113.53,277.21c0.07-2.04,2.09-3.42,4.02-2.74c8.39,2.94,27.64,9.92,28.87,12.39
						c1.18,2.36,4.98,15.52,6.86,22.11c0.54,1.91,2.74,2.78,4.44,1.77l11.63-6.86c2.21-1.3,4.94,0.57,4.52,3.1l-1.87,11.2
						c-0.15,0.89-0.69,1.67-1.48,2.12l-12.44,7.15c-6.95,3.99-15.45,4.24-22.62,0.65l-9.59-4.8c-8.39-4.19-13.55-12.9-13.21-22.28
						L113.53,277.21z"/>
				</g>
			</g>
			<g>
				<defs>
					<polygon id="SVGID_329_" points="118.62,274.76 133.65,329.27 109.87,311 109.87,274.51 114.65,269.15 					"/>
				</defs>
				<clipPath id="SVGID_19_">
					<use xlink:href="#SVGID_329_"  style="overflow:visible;"/>
				</clipPath>
			</g>
		</g>
		<g>
			<g>
				<g>
					<g>
						<g style="enable-background:new    ;">
							<path style="fill:#878787;" d="M205.79,372.57c-0.32,3.59-3.7,6.03-6.75,7.34c-3.32,1.43-6.97,2.01-10.57,1.96
								c-3.67-0.05-7.43-0.75-10.74-2.38c-2.89-1.42-5.96-4-5.95-7.51c-0.01,2.56,0.17,4.67,2.01,6.66c2.37,2.57,5.94,3.95,9.3,4.65
								c6.55,1.35,15.47,0.7,20.45-4.34c2-2.03,2.28-4.17,2.28-6.87C205.82,372.24,205.81,372.41,205.79,372.57z"/>
							<g>
								<path style="fill:#C6C6C6;" d="M200.8,365.05c6.67,3.85,6.71,10.09,0.09,13.94c-6.63,3.85-17.41,3.85-24.08,0
									c-6.67-3.85-6.7-10.09-0.07-13.94C183.36,361.2,194.13,361.2,200.8,365.05z"/>
							</g>
						</g>
					</g>
					<g>
						<g style="enable-background:new    ;">
							<g>
								<polygon style="fill:#B2B2B2;" points="191.84,357.27 191.8,372.15 189.2,373.66 189.24,358.78 								"/>
							</g>
							<g>
								<polygon style="fill:#878787;" points="189.24,358.78 189.2,373.66 186.58,372.15 186.62,357.27 								"/>
							</g>
							<g>
								<polygon style="fill:#878787;" points="191.84,357.27 189.24,358.78 186.62,357.27 189.22,355.76 								"/>
							</g>
						</g>
					</g>
				</g>
				<g>
					<path style="fill:#878787;" d="M161.48,308.1c0.08-2.06,2.12-3.46,4.07-2.78c8.51,2.98,28,10.05,29.26,12.56
						c1.19,2.39,5.05,15.72,6.95,22.4c0.55,1.93,2.77,2.81,4.5,1.8l11.78-6.95c2.24-1.32,5.01,0.58,4.58,3.14l-1.89,11.35
						c-0.15,0.91-0.7,1.7-1.5,2.15l-12.61,7.24c-7.05,4.05-15.65,4.3-22.92,0.66l-9.72-4.86c-8.5-4.25-13.73-13.07-13.39-22.57
						L161.48,308.1z"/>
				</g>
			</g>
			<g>
				<defs>
					<polygon id="SVGID_331_" points="166.63,305.62 181.86,360.85 157.76,342.34 151.72,306.54 162.61,299.93 					"/>
				</defs>
				<clipPath id="SVGID_21_">
					<use xlink:href="#SVGID_331_"  style="overflow:visible;"/>
				</clipPath>
			</g>
		</g>
		<polygon style="opacity:0.35;fill:#B17F4A;" points="341.37,100.29 346.24,166.82 340.39,164.79 		"/>
		<g>
			<g>
				<polygon style="fill:#706F6F;" points="346.2,101.93 346.2,221.33 390.56,247.05 390.56,127.65 				"/>
				<polygon style="fill:#F6F6F6;" points="349.09,103.6 349.09,220.1 390.56,244.14 390.56,247.05 346.2,221.33 346.2,101.93 				
					"/>
				<polygon style="fill:#FFF6EB;" points="349.09,220.1 346.2,221.33 390.56,247.05 390.56,244.14 				"/>
			</g>
			<polygon style="fill:#F6F6F6;" points="390.56,243.06 350.53,219.61 350.53,168.2 349.33,166.82 349.09,220.1 390.56,244.14 			
				"/>
			<path style="fill:#1D1D1B;" d="M388.19,220.14v-89.88h-0.75v89.88c-0.55,0.2-0.95,0.82-0.95,1.56c0,0.9,0.6,1.63,1.33,1.63
				s1.33-0.73,1.33-1.63C389.15,220.95,388.74,220.34,388.19,220.14z"/>
		</g>
		<g>
			<g>
				<polygon style="fill:#706F6F;" points="396.4,130.51 396.4,249.91 440.76,275.62 440.76,156.23 				"/>
				<polygon style="fill:#F6F6F6;" points="399.29,132.18 399.29,248.68 440.76,272.72 440.76,275.62 396.4,249.91 396.4,130.51 
									"/>
				<polygon style="fill:#FFF6EB;" points="399.29,248.68 396.4,249.91 440.76,275.62 440.76,272.72 				"/>
			</g>
			<polygon style="fill:#F6F6F6;" points="440.76,271.64 400.73,248.19 400.73,196.77 399.53,195.4 399.29,248.68 440.76,272.72 			
				"/>
		</g>
		<polygon style="fill:#575756;" points="349.07,220.1 346.2,221.33 390.56,247.05 390.56,244.14 		"/>
		<polygon style="fill:#575756;" points="399.27,248.68 396.4,249.91 440.76,275.62 440.76,272.72 		"/>
		<path style="fill:#1D1D1B;" d="M284.03,288.07c-0.23,1.47,0.64,2.84,1.94,3.04l4.3,0.66c1.3,0.21,2.56-0.83,2.79-2.29
			c0.23-1.47-0.64-2.84-1.94-3.04l-4.3-0.66C285.52,285.58,284.27,286.61,284.03,288.07z"/>
		<g>
			<path style="fill:#3F3028;" d="M278.92,308.05c-0.99,0-1.79,0.43-1.79,0.95c0,0.53,0.8,0.95,1.79,0.95
				c0.99,0,1.79-0.43,1.79-0.95C280.7,308.48,279.9,308.05,278.92,308.05z"/>
			<path style="fill:#685D5B;" d="M278.92,308.11c-0.61,0-1.11,0.26-1.11,0.59c0,0.33,0.5,0.59,1.11,0.59
				c0.61,0,1.11-0.26,1.11-0.59C280.02,308.38,279.53,308.11,278.92,308.11z"/>
		</g>
		<g>
			<g>
				<path style="fill:#1D1D1B;" d="M72.92,316.33c4.31,0,7.8,1.97,7.8,4.39c0,2.43-3.49,4.39-7.8,4.39c-4.31,0-7.8-1.97-7.8-4.39
					C65.11,318.3,68.61,316.33,72.92,316.33z"/>
				<path style="fill:#878787;" d="M63.12,308.01l9.81,2.83l9.81-2.83c0,0,1.11,4.2,0,8.32c-0.42,1.55-1,2.71-1.71,3.6
					c-1.15,1.86-4.28,3.2-7.98,3.2c-1.34,0-2.6-0.18-3.73-0.49c-0.09,0-0.17,0-0.26-0.03c-2.5-0.76-4.83-2.16-5.94-6.28
					C62.01,312.21,63.12,308.01,63.12,308.01z"/>
				<path style="fill:#706F6F;" d="M72.92,302.49c5.42,0,9.82,2.47,9.82,5.53c0,3.05-4.4,5.53-9.82,5.53
					c-5.42,0-9.82-2.47-9.82-5.53C63.1,304.96,67.49,302.49,72.92,302.49z"/>
				<g>
					<path style="fill:#3C3C3B;" d="M72.92,303.32c4.6,0,8.33,2.1,8.33,4.69c0,0.2-0.03,0.4-0.08,0.6c-0.53-2.3-4.02-4.09-8.25-4.09
						c-4.24,0-7.73,1.78-8.25,4.09c-0.05-0.2-0.08-0.4-0.08-0.6C64.59,305.42,68.32,303.32,72.92,303.32z"/>
					<path style="fill:#575756;" d="M72.92,304.53c4.24,0,7.73,1.78,8.25,4.09c-0.53,2.3-4.02,4.08-8.25,4.08
						c-4.24,0-7.73-1.78-8.25-4.08C65.19,306.31,68.68,304.53,72.92,304.53z"/>
				</g>
			</g>
			<g>
				<path style="fill:#1D1D1B;" d="M67.47,276.41c1.5,0.79,4.02,2.76,4.56,2.58c0.78-0.25,2.95-2.91,3.61-3.95
					c0.66-1.04,2.72-6.47,2.72-6.53s0.94-0.22,0.66,0.72c-0.04,0.13-0.12,0.35-0.24,0.63c-0.12-0.03-0.22-0.04-0.27,0.03
					c-0.51,0.66-2.63,5.45-3.07,6.39c-0.44,0.94-2.52,3.19-3.13,4.51c-0.61,1.31,0.42,3.33,1.07,5.73c0.65,2.39,1.56,4.51,2.73,3.94
					c1.17-0.56,3-3.66,3.71-5.45c0.7-1.78,1.41-3.94,1.83-4.83c0.42-0.89,1.74-2.31,2.25-3.67c0.04-0.1,0.06-0.18,0.08-0.28
					c0,0,0,0,0-0.01c0.01-0.03,0.03-0.08,0.04-0.14c0.06-0.24,0.09-0.46,0.09-0.66c0.09-0.96,0.12-2.44,0.05-2.93
					c-0.09-0.68-0.96-4.89-0.96-4.89s1.33,0.03,1.62,0.91c0.28,0.88,0.66,5.79,0.85,6.01c0.19,0.22,2.07,0.07,2.82,0
					c0.75-0.07,1.97-1.35,1.97-1.35l0.47,0.57c0,0-1.24,1.9-2.44,1.7c-2.51-0.43-5.72,3.53-6.49,5.31c-0.77,1.78-1.5,4.85-2.34,6.66
					c-0.3,0.65-1.41,1.83-2.32,3.52c-0.91,1.69-1.41,2.22-1.54,3.47c-0.08,0.83-0.03,2.95-0.09,3.98c-0.11,1.69-0.73,9.65-0.73,9.65
					c-1.22,1.92-3.4,0.47-3.52,0.14c-0.12-0.33,1.62-8.07,1.9-9.19c0.28-1.12,0.51-3.8,0.47-4.89c-0.04-1.4-0.69-2.98-1.39-3.65
					c-0.95-0.92-3.87-1.75-4.62-1.94c-0.37-0.09-0.7-0.9-0.96-1.77c0.79,0.61,1.62,1.04,2.28,1.34c1.41,0.66,3.75,1.41,3.75,1.41
					l-0.29-0.86c0,0-0.68-1.41-1.21-3.15c-0.34-1.09-0.58-3.66-0.79-4.75c-0.19-1.02-2.22-1.89-4.66-3.49
					c-2.44-1.6-3.34-5.82-3.34-5.82l1.96-0.59C64.59,270.8,65.97,275.62,67.47,276.41z"/>
				<path style="fill:#3F3028;" d="M60.56,278.9c0.98,0.84,2.37,1.94,3.39,3.64c-0.54-0.24-2.95-2.71-5.06-4.52
					c-1.57-1.34-3.07-2.16-3.07-2.16s0.19-0.59,0.39-0.8C57.2,275.99,59.55,278.03,60.56,278.9z"/>
				<path style="fill:#1D1D1B;" d="M56.38,275c2.41,1.24,6.86,6.16,8.73,6.58c1.87,0.42,1.73,4.06,2.48,5.05
					c0.74,0.99,5.04,1.97,5.04,1.97l0.29,0.86c0,0-2.34-0.75-3.75-1.41c-0.66-0.31-1.48-0.74-2.28-1.34
					c-0.26-0.88-0.45-1.82-0.55-2.13c-0.19-0.61-1.6-1.83-2.35-2.02c-0.01,0-0.03-0.02-0.05-0.02c-1.02-1.7-2.41-2.8-3.39-3.64
					c-1.01-0.87-3.36-2.91-4.34-3.83C56.27,275,56.33,274.97,56.38,275z"/>
				<path style="fill:#1D1D1B;" d="M75.45,276.27c0.44-0.94,2.56-5.73,3.07-6.39c0.05-0.06,0.15-0.06,0.27-0.03
					c-0.75,1.81-2.92,6.36-3.51,7.35c-1.2,1.97-2.67,3.85-2.4,5.07c0.39,1.78,1.92,7.26,2.58,7.48c1.02,0.34,2.2-1.82,2.85-2.69
					c0.39-0.53,2.04-4.78,2.42-5.91c0.38-1.12,3.08-4.49,3.28-4.93c-0.03,0.09-0.05,0.18-0.08,0.28c-0.52,1.36-1.83,2.78-2.25,3.67
					c-0.42,0.89-1.13,3.05-1.83,4.83c-0.7,1.78-2.54,4.88-3.71,5.45c-1.17,0.56-2.09-1.55-2.73-3.94c-0.65-2.39-1.68-4.41-1.07-5.73
					C72.93,279.46,75.01,277.21,75.45,276.27z"/>
			</g>
			<path style="fill:#9D9D9C;" d="M81.43,256.47c1.28-0.9,2.63-0.33,3.22,0.74c0.24-0.35,0.6-0.59,1.13-0.58
				c0.75,0.02,1.12,0.66,1.31,1.32c0.43-0.76,1.13-1.52,1.97-1.12c0.68,0.32,0.63,0.98,0.4,1.57c0.73-0.31,1.57-0.44,2.09,0.29
				c0.52,0.74-0.06,1.68-0.61,2.36c1.02,1.91,0.84,5.17-1.04,6.2c-3.01,1.66-5.61-1.84-6.7-4.13c-0.42-0.89-0.79-1.82-1.29-2.67
				c-0.36-0.62-1.18-1.28-1.37-1.96C80.34,257.69,80.79,256.92,81.43,256.47z"/>
			<path style="fill:#9D9D9C;" d="M50.35,258.86c0.44-0.17,1.59,0.26,1.59,0.26s0.1-0.97,0.32-1.21c0.5-0.56,1.12-0.54,1.66-0.25
				c0.18-1.43,1.82-2.27,2.59-1.03c0.41-0.8,1.16-1.5,2.13-1.01c0.77,0.39,0.78,1.18,0.61,1.93c1.25,0.89,1.75,3.23,0.86,4.42
				c-0.81,1.08-2.39,0.66-3.53,0.65c-1.18,0-2.35,0.1-3.51,0.29c-0.43,0.07-1.15,0.35-1.61,0.18
				C50.03,262.55,48.29,259.67,50.35,258.86z"/>
			<path style="fill:#706F6F;" d="M63.74,267.96c2.36-1.58,5.85-2.91,8.57-1.42c1.69,0.92,2.66,2.91,2.19,4.71
				c0.02,0.01,0.04,0.01,0.06,0.02c2.57,2.54-1.07,5.94-3.64,4.01c-0.11,1.05-0.44,2.18-1.55,2.49c-0.63,0.17-1.26,0.01-1.65-0.42
				c-0.5,0.94-1.19,1.85-2.34,1.83c-0.8-0.02-1.43-0.47-1.65-1.15c-2.07,0.76-4.06-0.62-4.44-2.87
				C58.81,272.17,61.49,269.46,63.74,267.96z"/>
			<g>
				<path style="fill:#575756;" d="M45.59,266.03c0.36-1.02,2.25-0.93,3.45-0.87c-0.7-1.12-1.29-2.67-0.07-3.61
					c0.83-0.65,2.2-0.38,3.48,0.1c-0.09-0.86,0.21-1.87,0.83-2.15c0.5-0.23,1.07,0.25,1.37,0.62c0.25,0.3,0.41,0.66,0.45,1.03
					c1.03-0.41,2.09-0.44,3.16-0.18c-0.33-1.13-0.53-2.52,0.29-3.42c1.28-1.41,3.94-2.31,5.94-1.27c0.59-1.51,2.12-2.39,2.78-2.59
					c1.04-0.33,2.01,0.11,2.67,0.87c1.17-1.86,3.56-3.75,5.72-3.49c0.92,0.11,1.88,0.66,2.3,1.78c1.84-0.53,3.48-0.76,4.97,0.59
					c0.97,0.88,1.12,3.18,0.36,4.37c0.56,0.14,1.25,0.34,1.91,0.83c0.93,0.68,0.79,2.11,0.24,3.04c0.48,0.03,0.95,0.21,1.29,0.54
					c0.26,0.25,0.42,0.64,0.33,1c0.39,0.07,0.77,0.14,1.15,0.24c0.01-1.35,0.6-2.76,2.08-3.06c1.11-0.22,2.11,0.36,2.55,1.28
					c0.64-0.9,1.52-1.71,2.67-1.34c0.48,0.15,0.85,0.47,1.06,0.85c-0.06,0.66-0.27,1.84-1.03,2.52c0.56,0.53,1.53,1.61,1.84,2.1
					c1.13,1.78-0.52,4.91-3.42,4.42c0.1,1.87-1.08,2.84-2.54,2.8c-1.06,0.25-2.65-0.88-2.8-1.84c-0.89,0.91-2.97,0.91-3.5-0.9
					c-1.87,0.78-3.77-0.18-4.15-2.3c-1.39,0.92-3.81,0.8-4.7-0.87c-2.15,0.87-3.13-0.57-3.51-1.98c-1.15,0.73-3.7,0.47-4.57-0.44
					c0,1.72-2.02,3.09-4.24,2.27c0.33,1.07-1.7,2.61-3.39,1.66c-0.32,1.87-2.85,1.87-3.46,1.2c-0.72,1.09-2.82,1.2-3.58,0
					c-0.2,0.67-1.36,0.73-1.7,0.2c-3,3.7-6.6,1.35-7.39-2.07c0.27-0.29,0.73-0.53,1.47-0.65C45.69,266.93,45.43,266.49,45.59,266.03
					z"/>
				<path style="fill:#9D9D9C;" d="M44.49,270.23c-0.19-0.3-0.81-1.47-0.08-2.26c0.79,3.42,4.4,5.76,7.39,2.07
					c0.35,0.53,1.5,0.47,1.7-0.2c0.76,1.2,2.87,1.09,3.58,0c0.61,0.67,3.14,0.67,3.46-1.2c1.69,0.95,3.72-0.58,3.39-1.66
					c2.22,0.82,4.24-0.54,4.24-2.27c0.87,0.91,3.42,1.17,4.57,0.44c0.39,1.4,1.36,2.84,3.51,1.98c0.89,1.67,3.3,1.79,4.7,0.87
					c0.39,2.12,2.29,3.08,4.15,2.3c0.53,1.81,2.61,1.81,3.5,0.9c0.15,0.97,1.73,2.09,2.8,1.84c1.46,0.04,2.64-0.93,2.54-2.8
					c2.9,0.49,4.56-2.64,3.42-4.42c-0.31-0.48-1.27-1.56-1.84-2.1c0.76-0.68,0.97-1.85,1.03-2.52c0.07,0.13,0.13,0.28,0.16,0.42
					c0.92-0.34,1.99,0,2.59,0.91c0.77,1.16,0.53,2.46,0.01,3.69c0.65,0,1.52,0.06,1.86,0.74c0.43,0.85-1.48,1.27-2.27,1.64
					c1.63,0.67,1.04,3.13-0.61,3.14c0.7,0.88,1.2,1.99,0.52,3.04c-0.62,0.94-1.5,0.86-2.31,0.45c0.33,1.87-1.7,3.44-3.55,2.25
					c-1.58,1.86-3.62-0.02-4.65-1.7c-1.31,2.08-4.09,2.26-5.67,0.25c-1.05,0.57-2.65,1.16-3.31-0.11c-0.65-1.25-0.28-2.33,0.43-3.03
					c-0.98,0.18-1.2-0.5-1.52-1.57c-0.06-0.19-0.08-0.37-0.08-0.55c-0.36,0.19-0.75,0.32-1.19,0.37c-1.17,0.13-2.36-0.16-2.67-1.22
					c-0.85,0.06-2.07,0.11-2.76-0.9c-0.5-0.73-0.49-1.55-0.2-2.31c-0.93,0.04-1.76-0.21-2.55-0.82c0.75,1.53-0.21,3.23-1.78,3.74
					c0.61,0.88,0.31,2.46-0.54,3.28c-0.74,0.71-3.43,2.33-4.34,1.23c-0.2,0.5-0.6,0.88-1.15,0.84c-0.34-0.03-0.67-0.23-0.93-0.52
					c-0.42,0.55-2.03,0.72-2.99,0.34c0.15,0.98-0.18,2-0.91,2.82c-0.5,0.56-1.33,0.8-1.91,0.88c0.71,1.47,0.75,2.75,0.3,3.6
					c-0.45,0.84-1.47,1.29-2.39,1.21c-1.51-0.13-3.85-2.07-3.46-3.76c-2.25-0.03-4.87-0.97-5.35-3.43c-0.18-0.91,0.2-1.97,0.73-2.75
					C42.76,273.04,41.86,270.85,44.49,270.23z"/>
			</g>
			<path style="fill:#9D9D9C;" d="M56.89,283.97c0.55-1.05,1.76-0.96,2.89-1.08c-0.23-0.27-0.34-1.15-0.02-1.48
				c0.72-0.75,2.07-0.19,2.74,0.27c-0.07-0.84,1.13-1.39,2.08-0.75c0.49-1.41,2.85-0.7,2.31,1.1c1.11,0.07,1.37,1.33,0.74,1.84
				c0.9,0.53,1.11,1.57,0.21,2.43c0.54,0.35,1,1.16,0.69,1.94c-0.5,1.28-1.78,1.33-2.99,1.27c-0.01,0.92-1.08,2.26-2.49,2.24
				c-1.74-0.02-3.07-1.07-2.74-2.3c-1.2,0.37-2.6,0.11-3.31-1.07c-0.53-0.88-0.26-1.86,0.43-2.37
				C56.81,285.7,56.41,284.87,56.89,283.97z"/>
			<path style="fill:#9D9D9C;" d="M97.78,262.86c0.72-0.12,0.95,1.27,0.34,1.55c-0.08,0.04-0.21,0-0.21-0.12
				c0.02-0.25,0.13-0.46,0.09-0.72c-0.04-0.24-0.2-0.42-0.26-0.65C97.74,262.89,97.76,262.86,97.78,262.86z"/>
			<path style="fill:#9D9D9C;" d="M79.41,254.47c0.72-0.12,0.95,1.27,0.34,1.55c-0.08,0.04-0.21,0-0.21-0.12
				c0.02-0.25,0.13-0.46,0.09-0.72c-0.04-0.24-0.2-0.42-0.26-0.65C79.37,254.51,79.38,254.47,79.41,254.47z"/>
			<path style="fill:#9D9D9C;" d="M94.6,264.95c0.07-0.04,0.16,0.03,0.14,0.11c-0.06,0.24-0.16,0.45-0.19,0.7
				c-0.02,0.21,0,0.32-0.1,0.5c-0.04,0.08-0.16,0.09-0.22,0.03C93.87,265.9,94.19,265.18,94.6,264.95z"/>
			<path style="fill:#575756;" d="M57.9,271.43c0.07-0.04,0.16,0.03,0.14,0.11c-0.06,0.24-0.16,0.45-0.19,0.7
				c-0.02,0.21,0,0.32-0.1,0.5c-0.04,0.08-0.16,0.09-0.22,0.03C57.17,272.38,57.49,271.66,57.9,271.43z"/>
			<path style="fill:#575756;" d="M65.66,269.15c0.07-0.04,0.16,0.03,0.14,0.11c-0.06,0.24-0.16,0.45-0.19,0.7
				c-0.02,0.21,0,0.32-0.1,0.5c-0.04,0.08-0.16,0.09-0.22,0.03C64.93,270.1,65.25,269.38,65.66,269.15z"/>
			<path style="fill:#9D9D9C;" d="M74.75,254.78c0.07-0.04,0.16,0.03,0.14,0.11c-0.06,0.24-0.16,0.45-0.19,0.7
				c-0.02,0.21,0,0.32-0.1,0.5c-0.04,0.08-0.16,0.09-0.22,0.03C74.03,255.73,74.34,255,74.75,254.78z"/>
			<path style="fill:#9D9D9C;" d="M95.66,266.94c0.58,0.01,0.67,0.74,0.25,1.04c-0.07,0.05-0.16-0.02-0.17-0.1
				c-0.02-0.28-0.12-0.54-0.19-0.81C95.54,267.01,95.59,266.94,95.66,266.94z"/>
			<path style="fill:#9D9D9C;" d="M67.68,263.36c0.58,0.01,0.67,0.75,0.25,1.04c-0.07,0.05-0.16-0.02-0.17-0.1
				c-0.02-0.28-0.12-0.54-0.19-0.81C67.56,263.43,67.61,263.36,67.68,263.36z"/>
			<path style="fill:#9D9D9C;" d="M90.53,269.63c0.14,0.23,0.18,0.7,0.04,0.93c-0.04,0.07-0.12,0.1-0.2,0.08
				c-0.03-0.01-0.06-0.01-0.08-0.02c-0.1-0.02-0.18-0.11-0.21-0.21c-0.05-0.24-0.05-0.62,0.19-0.77
				C90.32,269.61,90.47,269.54,90.53,269.63z"/>
			<path style="fill:#575756;" d="M96.2,272.05c0.33,0.16,0.58,0.5,0.43,0.87c-0.04,0.09-0.16,0.15-0.24,0.06
				c-0.2-0.23-0.25-0.53-0.32-0.83C96.05,272.07,96.13,272.02,96.2,272.05z"/>
			<path style="fill:#575756;" d="M51.34,279.26c0.33,0.16,0.58,0.5,0.43,0.87c-0.04,0.09-0.16,0.15-0.24,0.06
				c-0.2-0.23-0.25-0.53-0.32-0.83C51.19,279.28,51.27,279.22,51.34,279.26z"/>
			<path style="fill:#575756;" d="M64.42,282.83c0.33,0.16,0.58,0.5,0.43,0.87c-0.04,0.09-0.16,0.15-0.24,0.06
				c-0.2-0.23-0.25-0.53-0.32-0.83C64.27,282.85,64.35,282.8,64.42,282.83z"/>
			<path style="fill:#9D9D9C;" d="M89.96,265.88c0.11,0.02,0.14,0.15,0.09,0.23c-0.16,0.31-0.39,0.44-0.72,0.34
				c-0.07-0.02-0.14-0.11-0.11-0.19C89.36,265.92,89.61,265.82,89.96,265.88z"/>
			<path style="fill:#9D9D9C;" d="M84.22,266.7c0.28,0.22,0.41,0.53,0.22,0.84c-0.05,0.08-0.16,0.07-0.21,0
				c-0.16-0.21-0.18-0.46-0.22-0.71C83.98,266.7,84.11,266.62,84.22,266.7z"/>
			<path style="fill:#575756;" d="M61.96,288.33c0.28,0.22,0.41,0.53,0.22,0.84c-0.05,0.08-0.16,0.07-0.21,0
				c-0.16-0.21-0.18-0.46-0.22-0.71C61.72,288.32,61.85,288.25,61.96,288.33z"/>
			<path style="fill:#9D9D9C;" d="M55.51,263.98c0.28,0.22,0.41,0.53,0.22,0.84c-0.05,0.08-0.16,0.07-0.21,0
				c-0.16-0.21-0.18-0.46-0.22-0.71C55.28,263.98,55.41,263.9,55.51,263.98z"/>
			<path style="fill:#575756;" d="M85.94,273.47c0.05,0.01,0.06,0.06,0.04,0.1c-0.14,0.32-0.43,0.7-0.8,0.7
				c-0.1,0-0.16-0.08-0.17-0.17C84.96,273.63,85.55,273.38,85.94,273.47z"/>
			<path style="fill:#9D9D9C;" d="M53.02,265.76c0.07-0.04,0.16,0.03,0.14,0.11c-0.06,0.24-0.16,0.45-0.19,0.7
				c-0.02,0.21,0,0.32-0.1,0.5c-0.04,0.08-0.16,0.09-0.22,0.03C52.29,266.71,52.61,265.98,53.02,265.76z"/>
			<path style="fill:#575756;" d="M61.57,283.32c0.07-0.04,0.16,0.03,0.14,0.11c-0.06,0.24-0.16,0.45-0.19,0.7
				c-0.02,0.21,0,0.32-0.1,0.5c-0.04,0.08-0.16,0.09-0.22,0.03C60.84,284.27,61.16,283.55,61.57,283.32z"/>
			<path style="fill:#9D9D9C;" d="M54.08,267.74c0.58,0.01,0.67,0.75,0.25,1.04c-0.07,0.05-0.16-0.02-0.17-0.1
				c-0.02-0.28-0.12-0.54-0.19-0.81C53.95,267.82,54.01,267.74,54.08,267.74z"/>
			<path style="fill:#9D9D9C;" d="M48.94,270.43c0.14,0.23,0.18,0.7,0.04,0.93c-0.04,0.07-0.12,0.1-0.2,0.08
				c-0.03-0.01-0.06-0.01-0.08-0.02c-0.1-0.02-0.18-0.11-0.21-0.21c-0.05-0.24-0.05-0.62,0.19-0.77
				C48.74,270.42,48.89,270.35,48.94,270.43z"/>
			<path style="fill:#575756;" d="M53.8,274.51c0.33,0.16,0.58,0.5,0.43,0.87c-0.04,0.09-0.16,0.15-0.24,0.06
				c-0.2-0.23-0.25-0.53-0.32-0.83C53.65,274.53,53.73,274.48,53.8,274.51z"/>
			<path style="fill:#9D9D9C;" d="M48.37,266.68c0.11,0.02,0.14,0.15,0.09,0.23c-0.16,0.31-0.39,0.44-0.72,0.34
				c-0.07-0.02-0.14-0.11-0.11-0.19C47.77,266.73,48.02,266.63,48.37,266.68z"/>
			<path style="fill:#575756;" d="M48.28,273.86c0.05,0.01,0.06,0.06,0.04,0.1c-0.14,0.32-0.43,0.7-0.8,0.7
				c-0.1,0-0.16-0.08-0.17-0.17C47.3,274.03,47.89,273.77,48.28,273.86z"/>
			<path style="fill:#9D9D9C;" d="M64.39,262.22c0.05,0.01,0.06,0.06,0.04,0.1c-0.14,0.32-0.43,0.7-0.8,0.7
				c-0.1,0-0.16-0.08-0.17-0.17C63.41,262.38,64,262.13,64.39,262.22z"/>
			<path style="fill:#575756;" d="M64.73,285.56c0.05,0.01,0.06,0.06,0.04,0.1c-0.14,0.32-0.43,0.7-0.8,0.7
				c-0.1,0-0.16-0.08-0.17-0.17C63.75,285.72,64.33,285.47,64.73,285.56z"/>
			<path style="fill:#575756;" d="M82.78,271.07c0.24,0.21,0.31,0.37,0.25,0.67c-0.02,0.08-0.14,0.14-0.21,0.08
				c-0.25-0.19-0.3-0.34-0.26-0.67C82.57,271.05,82.69,270.99,82.78,271.07z"/>
			<path style="fill:#575756;" d="M93.8,273.89c0.24,0.21,0.31,0.37,0.25,0.67c-0.02,0.08-0.14,0.14-0.21,0.08
				c-0.25-0.19-0.3-0.34-0.26-0.67C93.6,273.87,93.71,273.81,93.8,273.89z"/>
			<path style="fill:#9D9D9C;" d="M81.71,259.01c0.05,0.04,0.07,0.12,0,0.15c-0.3,0.13-0.64,0.24-0.96,0.29
				c-0.18,0.03-0.33-0.17-0.19-0.32C80.86,258.81,81.35,258.74,81.71,259.01z"/>
			<path style="fill:#9D9D9C;" d="M75.14,265.52c0.05,0.04,0.07,0.12,0,0.15c-0.3,0.13-0.64,0.24-0.96,0.29
				c-0.18,0.03-0.33-0.17-0.19-0.32C74.29,265.32,74.78,265.26,75.14,265.52z"/>
			<path style="fill:#575756;" d="M62.58,270.37c0.05,0.04,0.07,0.12,0,0.15c-0.3,0.13-0.64,0.24-0.96,0.29
				c-0.18,0.03-0.33-0.17-0.19-0.32C61.74,270.17,62.23,270.1,62.58,270.37z"/>
			<path style="fill:#575756;" d="M61.36,286.53c0.05,0.04,0.07,0.12,0,0.15c-0.3,0.13-0.64,0.24-0.96,0.29
				c-0.18,0.03-0.33-0.17-0.19-0.32C60.51,286.32,61,286.26,61.36,286.53z"/>
			<path style="fill:#9D9D9C;" d="M77.47,261.83c0.54,0.13,1.01,0.88,0.56,1.34c-0.08,0.08-0.23,0.06-0.29-0.04
				c-0.2-0.34-0.21-0.77-0.4-1.14C77.29,261.91,77.37,261.8,77.47,261.83z"/>
			<path style="fill:#9D9D9C;" d="M60.26,266.24c0.54,0.13,1.01,0.88,0.56,1.34c-0.08,0.08-0.23,0.06-0.29-0.04
				c-0.2-0.34-0.21-0.77-0.4-1.14C60.08,266.32,60.16,266.22,60.26,266.24z"/>
			<path style="fill:#9D9D9C;" d="M68.34,259.87c0.54,0.13,1.01,0.88,0.56,1.34c-0.08,0.08-0.23,0.06-0.29-0.04
				c-0.2-0.34-0.2-0.77-0.4-1.14C68.16,259.95,68.24,259.84,68.34,259.87z"/>
			<path style="fill:#9D9D9C;" d="M82.05,261.58c0.13,0.05,0.17,0.22,0.04,0.3c-0.32,0.2-0.61,0.31-0.98,0.34
				c-0.12,0.01-0.17-0.13-0.13-0.22C81.17,261.58,81.61,261.42,82.05,261.58z"/>
			<path style="fill:#9D9D9C;" d="M61.86,263.6c0.13,0.05,0.17,0.22,0.04,0.3c-0.32,0.2-0.61,0.31-0.98,0.34
				c-0.12,0.01-0.17-0.13-0.13-0.22C60.98,263.59,61.42,263.43,61.86,263.6z"/>
			<path style="fill:#9D9D9C;" d="M78.56,266.7c0.24,0.27,0.36,0.63,0.07,0.9c-0.08,0.08-0.19,0.05-0.25-0.03
				c-0.18-0.25-0.11-0.52-0.05-0.8C78.36,266.66,78.49,266.62,78.56,266.7z"/>
			<path style="fill:#9D9D9C;" d="M63.71,258.39c0.24,0.27,0.36,0.63,0.07,0.9c-0.08,0.08-0.19,0.05-0.25-0.03
				c-0.18-0.25-0.11-0.52-0.05-0.8C63.5,258.36,63.64,258.32,63.71,258.39z"/>
			<path style="fill:#9D9D9C;" d="M73.99,259.41c0.24,0.27,0.36,0.63,0.07,0.9c-0.08,0.08-0.19,0.05-0.25-0.03
				c-0.18-0.25-0.11-0.52-0.05-0.8C73.78,259.38,73.92,259.34,73.99,259.41z"/>
		</g>
		<g>
			<g>
				<path style="fill:#3F3028;" d="M207.12,304.15c-0.99,0-1.79,0.43-1.79,0.95c0,0.53,0.8,0.95,1.79,0.95
					c0.99,0,1.79-0.43,1.79-0.95C208.91,304.58,208.11,304.15,207.12,304.15z"/>
				<path style="fill:#685D5B;" d="M207.12,304.21c-0.61,0-1.11,0.26-1.11,0.59c0,0.33,0.5,0.59,1.11,0.59
					c0.61,0,1.11-0.26,1.11-0.59C208.23,304.47,207.73,304.21,207.12,304.21z"/>
			</g>
			<g>
				<path style="fill:#3F3028;" d="M205.13,289.17c-1.42-0.82-4.91-2.34-5.06-2.4l-0.31,0.72c0.04,0.02,3.6,1.56,4.98,2.36
					c1.77,1.02,2.01,2.89,2.01,4.76v10.14c0,0,0,0,0,0c0,0.11,0.17,0.21,0.39,0.21c0.22,0,0.39-0.09,0.39-0.21V294.6
					C207.53,292.6,207.25,290.38,205.13,289.17z"/>
				<path style="fill:#1D1D1B;" d="M192.87,284.09c-0.56,1.38,0.1,2.96,1.48,3.52l4.55,1.83c1.38,0.56,2.96-0.1,3.52-1.48
					c0.56-1.38-0.1-2.96-1.48-3.52l-4.55-1.83C195.02,282.05,193.43,282.72,192.87,284.09z"/>
			</g>
		</g>
		<g>
			<g>
				<path style="fill:#3F3028;" d="M173.19,284.63c-0.99,0-1.79,0.43-1.79,0.95c0,0.53,0.8,0.95,1.79,0.95
					c0.99,0,1.79-0.43,1.79-0.95C174.98,285.06,174.18,284.63,173.19,284.63z"/>
				<path style="fill:#685D5B;" d="M173.19,284.69c-0.61,0-1.11,0.26-1.11,0.59c0,0.33,0.5,0.59,1.11,0.59
					c0.61,0,1.11-0.26,1.11-0.59C174.3,284.96,173.8,284.69,173.19,284.69z"/>
			</g>
			<g>
				<path style="fill:#3F3028;" d="M171.2,269.65c-1.42-0.82-4.91-2.34-5.06-2.4l-0.31,0.72c0.04,0.02,3.6,1.56,4.98,2.36
					c1.77,1.02,2.01,2.89,2.01,4.76v10.14c0,0,0,0,0,0c0,0.11,0.17,0.21,0.39,0.21c0.22,0,0.39-0.09,0.39-0.21v-10.14
					C173.6,273.08,173.32,270.87,171.2,269.65z"/>
				<path style="fill:#1D1D1B;" d="M158.94,264.58c-0.56,1.38,0.1,2.96,1.48,3.52l4.55,1.83c1.38,0.56,2.96-0.1,3.52-1.48
					c0.56-1.38-0.1-2.96-1.48-3.52l-4.55-1.83C161.08,262.54,159.5,263.2,158.94,264.58z"/>
			</g>
		</g>
		<g>
			<g>
				<g>
					<g>
						<g>
							<g>
								<g style="enable-background:new    ;">
									<path style="fill:#878787;" d="M322.57,360.7c-0.35,3.92-4.04,6.58-7.37,8.01c-3.62,1.56-7.61,2.19-11.54,2.14
										c-4.01-0.05-8.11-0.82-11.73-2.6c-3.16-1.55-6.51-4.37-6.5-8.2c-0.01,2.79,0.19,5.1,2.2,7.28
										c2.59,2.81,6.49,4.32,10.15,5.07c7.15,1.48,16.89,0.76,22.33-4.74c2.19-2.22,2.49-4.55,2.49-7.5
										C322.61,360.33,322.59,360.51,322.57,360.7z"/>
									<g>
										<path style="fill:#C6C6C6;" d="M317.12,352.48c7.28,4.2,7.33,11.02,0.09,15.23c-7.23,4.2-19.01,4.2-26.3,0
											c-7.28-4.2-7.31-11.02-0.08-15.23C298.08,348.28,309.84,348.28,317.12,352.48z"/>
									</g>
								</g>
							</g>
							<g>
								<g style="enable-background:new    ;">
									<g>
										<polygon style="fill:#B2B2B2;" points="307.34,343.98 307.29,360.23 304.45,361.88 304.49,345.63 										"/>
									</g>
									<g>
										<polygon style="fill:#878787;" points="304.49,345.63 304.45,361.88 301.59,360.23 301.63,343.98 										"/>
									</g>
									<g>
										<polygon style="fill:#4DA5DC;" points="307.34,343.98 304.49,345.63 301.63,343.98 304.48,342.33 										"/>
									</g>
								</g>
							</g>
						</g>
						<path style="fill:#878787;" d="M340.48,288.5c-0.08-2.25-2.32-3.78-4.44-3.04c-9.29,3.26-30.58,10.97-31.95,13.71
							c-1.3,2.61-5.51,17.17-7.59,24.46c-0.6,2.11-3.03,3.07-4.92,1.96l-12.87-7.59c-2.45-1.44-5.47,0.63-5,3.43l2.07,12.4
							c0.16,0.99,0.76,1.85,1.63,2.35l13.77,7.91c7.69,4.42,17.09,4.69,25.03,0.72l10.61-5.31c9.28-4.64,15-14.28,14.62-24.65
							L340.48,288.5z"/>
					</g>
				</g>
			</g>
		</g>
		<g>
			<g>
				<path style="fill:#3F3028;" d="M235.77,240.14c0.99,0,1.79,0.43,1.79,0.95c0,0.53-0.8,0.95-1.79,0.95
					c-0.99,0-1.79-0.43-1.79-0.95C233.98,240.57,234.78,240.14,235.77,240.14z"/>
				<path style="fill:#685D5B;" d="M235.77,240.2c0.61,0,1.11,0.26,1.11,0.59c0,0.33-0.5,0.59-1.11,0.59
					c-0.61,0-1.11-0.26-1.11-0.59C234.66,240.47,235.16,240.2,235.77,240.2z"/>
			</g>
			<path style="fill:none;stroke:#3C3C3B;stroke-width:0.75;stroke-miterlimit:10;" d="M239.72,221.29l-2.42,2.3
				c-0.96,0.91-1.5,2.18-1.5,3.51v14"/>
			<path style="fill:#1D1D1B;" d="M247.51,218.28c0.56,1.38-0.1,2.96-1.48,3.52l-4.55,1.83c-1.38,0.56-2.96-0.1-3.52-1.48
				c-0.56-1.38,0.1-2.96,1.48-3.52l4.55-1.83C245.36,216.24,246.95,216.9,247.51,218.28z"/>
		</g>
		<g>
			<g>
				<path style="fill:#3F3028;" d="M278.84,266.04c-0.99,0-1.79,0.43-1.79,0.95c0,0.53,0.8,0.95,1.79,0.95
					c0.99,0,1.79-0.43,1.79-0.95C280.63,266.47,279.83,266.04,278.84,266.04z"/>
				<path style="fill:#685D5B;" d="M278.84,266.1c-0.61,0-1.11,0.26-1.11,0.59c0,0.33,0.5,0.59,1.11,0.59
					c0.61,0,1.11-0.26,1.11-0.59C279.95,266.37,279.45,266.1,278.84,266.1z"/>
			</g>
			<path style="fill:none;stroke:#3C3C3B;stroke-width:0.75;stroke-linecap:round;stroke-miterlimit:10;" d="M278.84,266.5v-12.76
				c0-2.21,1.09-4.28,2.91-5.53l4.14-2.84"/>
			<path style="fill:#1D1D1B;" d="M282.51,247.57c0.63,1.34,2.25,1.92,3.59,1.29l4.43-2.11c1.34-0.63,1.92-2.25,1.29-3.59
				c-0.63-1.34-2.25-1.92-3.59-1.29l-4.43,2.11C282.46,244.61,281.88,246.23,282.51,247.57z"/>
		</g>
		<g>
			<g>
				<path style="fill:#3F3028;" d="M173.91,244.51c0.99,0,1.79,0.43,1.79,0.95c0,0.53-0.8,0.95-1.79,0.95
					c-0.99,0-1.79-0.43-1.79-0.95C172.12,244.94,172.92,244.51,173.91,244.51z"/>
				<path style="fill:#685D5B;" d="M173.91,244.57c0.61,0,1.11,0.26,1.11,0.59c0,0.33-0.5,0.59-1.11,0.59
					c-0.61,0-1.11-0.26-1.11-0.59C172.8,244.84,173.3,244.57,173.91,244.57z"/>
			</g>
			<path style="fill:none;stroke:#3C3C3B;stroke-width:0.75;stroke-linecap:round;stroke-miterlimit:10;" d="M173.91,244.97V232.2
				c0-2.21-1.09-4.28-2.91-5.53l-4.14-2.84"/>
			<path style="fill:#1D1D1B;" d="M170.24,226.04c-0.63,1.34-2.25,1.92-3.59,1.29l-4.43-2.11c-1.34-0.63-1.92-2.25-1.29-3.59
				c0.63-1.34,2.25-1.92,3.59-1.29l4.43,2.11C170.3,223.08,170.88,224.69,170.24,226.04z"/>
		</g>
		<path style="fill:none;stroke:#3C3C3B;stroke-width:0.75;stroke-linecap:round;stroke-miterlimit:10;" d="M278.84,308.7v-14.63
			c0-3.19,2.65-5.74,5.84-5.61l3.01,0.12"/>
		<g>
			<g>
				<polygon style="fill:#F6F6F6;" points="337.08,213.19 291.74,187.23 296.03,184.75 341.37,210.71 				"/>
				<polygon style="fill:#B2B2B2;" points="341.37,212.11 341.37,210.71 337.08,213.19 337.08,214.59 				"/>
				<polygon style="fill:#9D9D9C;" points="291.74,187.23 291.74,188.63 337.08,214.59 337.08,213.19 				"/>
			</g>
			<g>
				<polygon style="fill:#F6F6F6;" points="337.08,208.59 291.74,182.62 296.03,180.15 341.37,206.11 				"/>
				<polygon style="fill:#B2B2B2;" points="341.37,207.51 341.37,206.11 337.08,208.59 337.08,209.99 				"/>
				<polygon style="fill:#9D9D9C;" points="291.74,182.62 291.74,184.03 337.08,209.99 337.08,208.59 				"/>
			</g>
			<g>
				<polygon style="fill:#F6F6F6;" points="337.08,203.98 291.74,178.02 296.03,175.55 341.37,201.51 				"/>
				<polygon style="fill:#B2B2B2;" points="341.37,202.91 341.37,201.51 337.08,203.98 337.08,205.39 				"/>
				<polygon style="fill:#9D9D9C;" points="291.74,178.02 291.74,179.43 337.08,205.39 337.08,203.98 				"/>
			</g>
			<g>
				<polygon style="fill:#F6F6F6;" points="337.08,199.38 291.74,173.42 296.03,170.95 341.37,196.91 				"/>
				<polygon style="fill:#B2B2B2;" points="341.37,198.31 341.37,196.91 337.08,199.38 337.08,200.79 				"/>
				<polygon style="fill:#9D9D9C;" points="291.74,173.42 291.74,174.82 337.08,200.79 337.08,199.38 				"/>
			</g>
			<g>
				<polygon style="fill:#F6F6F6;" points="337.08,194.78 291.74,168.82 296.03,166.35 341.37,192.31 				"/>
				<polygon style="fill:#B2B2B2;" points="341.37,193.71 341.37,192.31 337.08,194.78 337.08,196.18 				"/>
				<polygon style="fill:#9D9D9C;" points="291.74,168.82 291.74,170.22 337.08,196.18 337.08,194.78 				"/>
			</g>
			<g>
				<polygon style="fill:#F6F6F6;" points="337.08,190.18 291.74,164.22 296.03,161.75 341.37,187.71 				"/>
				<polygon style="fill:#B2B2B2;" points="341.37,189.11 341.37,187.71 337.08,190.18 337.08,191.58 				"/>
				<polygon style="fill:#9D9D9C;" points="291.74,164.22 291.74,165.62 337.08,191.58 337.08,190.18 				"/>
			</g>
			<g>
				<polygon style="fill:#F6F6F6;" points="337.08,185.58 291.74,159.62 296.03,157.15 341.37,183.11 				"/>
				<polygon style="fill:#B2B2B2;" points="341.37,184.51 341.37,183.11 337.08,185.58 337.08,186.98 				"/>
				<polygon style="fill:#9D9D9C;" points="291.74,159.62 291.74,161.02 337.08,186.98 337.08,185.58 				"/>
			</g>
			<g>
				<polygon style="fill:#F6F6F6;" points="337.08,180.98 291.74,155.02 296.03,152.54 341.37,178.51 				"/>
				<polygon style="fill:#B2B2B2;" points="341.37,179.91 341.37,178.51 337.08,180.98 337.08,182.38 				"/>
				<polygon style="fill:#9D9D9C;" points="291.74,155.02 291.74,156.42 337.08,182.38 337.08,180.98 				"/>
			</g>
			<g>
				<polygon style="fill:#F6F6F6;" points="337.08,176.38 291.74,150.42 296.03,147.94 341.37,173.9 				"/>
				<polygon style="fill:#B2B2B2;" points="341.37,175.31 341.37,173.9 337.08,176.38 337.08,177.78 				"/>
				<polygon style="fill:#9D9D9C;" points="291.74,150.42 291.74,151.82 337.08,177.78 337.08,176.38 				"/>
			</g>
			<g>
				<g>
					<polygon style="fill:#F6F6F6;" points="337.08,171.78 291.74,145.82 296.03,143.34 341.37,169.3 					"/>
					<polygon style="fill:#B2B2B2;" points="341.37,170.7 341.37,169.3 337.08,171.78 337.08,173.18 					"/>
					<polygon style="fill:#9D9D9C;" points="291.74,145.82 291.74,147.22 337.08,173.18 337.08,171.78 					"/>
				</g>
				<polygon style="fill:#F6F6F6;" points="337.08,167.18 291.74,141.22 296.03,138.74 341.37,164.7 				"/>
				<polygon style="fill:#B2B2B2;" points="341.37,166.1 341.37,164.7 337.08,167.18 337.08,168.58 				"/>
				<polygon style="fill:#9D9D9C;" points="291.74,141.22 291.74,142.62 337.08,168.58 337.08,167.18 				"/>
			</g>
			<g>
				<polygon style="fill:#F6F6F6;" points="337.08,162.58 291.74,136.62 296.03,134.14 341.37,160.1 				"/>
				<polygon style="fill:#B2B2B2;" points="341.37,161.5 341.37,160.1 337.08,162.58 337.08,163.98 				"/>
				<polygon style="fill:#9D9D9C;" points="291.74,136.62 291.74,138.02 337.08,163.98 337.08,162.58 				"/>
			</g>
			<g>
				<polygon style="fill:#FFF9F2;" points="337.08,157.98 291.74,132.01 296.03,129.54 341.37,155.5 				"/>
				<polygon style="fill:#EFE7DC;" points="341.37,156.9 341.37,155.5 337.08,157.98 337.08,159.38 				"/>
				<polygon style="fill:#CDBBA3;" points="291.74,132.01 291.74,133.42 337.08,159.38 337.08,157.98 				"/>
			</g>
		</g>
		<g>
			<g>
				<polygon style="fill:#F6F6F6;" points="337.08,157.98 291.74,132.01 296.03,129.54 341.37,155.5 				"/>
				<polygon style="fill:#B2B2B2;" points="341.37,156.9 341.37,155.5 337.08,157.98 337.08,159.38 				"/>
				<polygon style="fill:#9D9D9C;" points="291.74,132.01 291.74,133.42 337.08,159.38 337.08,157.98 				"/>
			</g>
			<g>
				<polygon style="fill:#F6F6F6;" points="337.08,153.37 291.74,127.41 296.03,124.94 341.37,150.9 				"/>
				<polygon style="fill:#B2B2B2;" points="341.37,152.3 341.37,150.9 337.08,153.37 337.08,154.78 				"/>
				<polygon style="fill:#9D9D9C;" points="291.74,127.41 291.74,128.82 337.08,154.78 337.08,153.37 				"/>
			</g>
			<g>
				<polygon style="fill:#F6F6F6;" points="337.08,148.77 291.74,122.81 296.03,120.34 341.37,146.3 				"/>
				<polygon style="fill:#B2B2B2;" points="341.37,147.7 341.37,146.3 337.08,148.77 337.08,150.18 				"/>
				<polygon style="fill:#9D9D9C;" points="291.74,122.81 291.74,124.21 337.08,150.18 337.08,148.77 				"/>
			</g>
			<g>
				<polygon style="fill:#F6F6F6;" points="337.08,144.17 291.74,118.21 296.03,115.74 341.37,141.7 				"/>
				<polygon style="fill:#B2B2B2;" points="341.37,143.1 341.37,141.7 337.08,144.17 337.08,145.57 				"/>
				<polygon style="fill:#9D9D9C;" points="291.74,118.21 291.74,119.61 337.08,145.57 337.08,144.17 				"/>
			</g>
			<g>
				<polygon style="fill:#F6F6F6;" points="337.08,139.57 291.74,113.61 296.03,111.14 341.37,137.1 				"/>
				<polygon style="fill:#B2B2B2;" points="341.37,138.5 341.37,137.1 337.08,139.57 337.08,140.97 				"/>
				<polygon style="fill:#9D9D9C;" points="291.74,113.61 291.74,115.01 337.08,140.97 337.08,139.57 				"/>
			</g>
			<g>
				<polygon style="fill:#F6F6F6;" points="337.08,134.97 291.74,109.01 296.03,106.54 341.37,132.5 				"/>
				<polygon style="fill:#B2B2B2;" points="341.37,133.9 341.37,132.5 337.08,134.97 337.08,136.37 				"/>
				<polygon style="fill:#9D9D9C;" points="291.74,109.01 291.74,110.41 337.08,136.37 337.08,134.97 				"/>
			</g>
			<g>
				<polygon style="fill:#F6F6F6;" points="337.08,130.37 291.74,104.41 296.03,101.93 341.37,127.9 				"/>
				<polygon style="fill:#B2B2B2;" points="341.37,129.3 341.37,127.9 337.08,130.37 337.08,131.77 				"/>
				<polygon style="fill:#9D9D9C;" points="291.74,104.41 291.74,105.81 337.08,131.77 337.08,130.37 				"/>
			</g>
			<g>
				<polygon style="fill:#F6F6F6;" points="337.08,125.77 291.74,99.81 296.03,97.33 341.37,123.29 				"/>
				<polygon style="fill:#B2B2B2;" points="341.37,124.7 341.37,123.29 337.08,125.77 337.08,127.17 				"/>
				<polygon style="fill:#9D9D9C;" points="291.74,99.81 291.74,101.21 337.08,127.17 337.08,125.77 				"/>
			</g>
			<g>
				<polygon style="fill:#F6F6F6;" points="337.08,121.17 291.74,95.21 296.03,92.73 341.37,118.69 				"/>
				<polygon style="fill:#B2B2B2;" points="341.37,120.1 341.37,118.69 337.08,121.17 337.08,122.57 				"/>
				<polygon style="fill:#9D9D9C;" points="291.74,95.21 291.74,96.61 337.08,122.57 337.08,121.17 				"/>
			</g>
			<g>
				<g>
					<polygon style="fill:#F6F6F6;" points="337.08,116.57 291.74,90.61 296.03,88.13 341.37,114.09 					"/>
					<polygon style="fill:#B2B2B2;" points="341.37,115.49 341.37,114.09 337.08,116.57 337.08,117.97 					"/>
					<polygon style="fill:#9D9D9C;" points="291.74,90.61 291.74,92.01 337.08,117.97 337.08,116.57 					"/>
				</g>
				<polygon style="fill:#F6F6F6;" points="337.08,111.97 291.74,86.01 296.03,83.53 341.37,109.49 				"/>
				<polygon style="fill:#B2B2B2;" points="341.37,110.89 341.37,109.49 337.08,111.97 337.08,113.37 				"/>
				<polygon style="fill:#9D9D9C;" points="291.74,86.01 291.74,87.41 337.08,113.37 337.08,111.97 				"/>
			</g>
			<g>
				<polygon style="fill:#F6F6F6;" points="337.08,107.37 291.74,81.41 296.03,78.93 341.37,104.89 				"/>
				<polygon style="fill:#B2B2B2;" points="341.37,106.29 341.37,104.89 337.08,107.37 337.08,108.77 				"/>
				<polygon style="fill:#9D9D9C;" points="291.74,81.41 291.74,82.81 337.08,108.77 337.08,107.37 				"/>
			</g>
			<g>
				<polygon style="fill:#F6F6F6;" points="337.08,102.77 291.74,76.8 296.03,74.33 341.37,100.29 				"/>
				<polygon style="fill:#B2B2B2;" points="341.37,101.69 341.37,100.29 337.08,102.77 337.08,104.17 				"/>
				<polygon style="fill:#9D9D9C;" points="291.74,76.8 291.74,78.21 337.08,104.17 337.08,102.77 				"/>
			</g>
		</g>
	</g>
	<g>
		<g>
			<g>
				<polygon style="fill:#F6F6F6;" points="386.9,240.51 341.56,214.55 345.85,212.07 391.19,238.03 				"/>
				<polygon style="fill:#B2B2B2;" points="391.19,239.43 391.19,238.03 386.9,240.51 386.9,241.91 				"/>
				<polygon style="fill:#9D9D9C;" points="341.56,214.55 341.56,215.95 386.9,241.91 386.9,240.51 				"/>
			</g>
			<g>
				<polygon style="fill:#F6F6F6;" points="386.9,235.91 341.56,209.94 345.85,207.47 391.19,233.43 				"/>
				<polygon style="fill:#B2B2B2;" points="391.19,234.83 391.19,233.43 386.9,235.91 386.9,237.31 				"/>
				<polygon style="fill:#9D9D9C;" points="341.56,209.94 341.56,211.35 386.9,237.31 386.9,235.91 				"/>
			</g>
			<g>
				<polygon style="fill:#F6F6F6;" points="386.9,231.3 341.56,205.34 345.85,202.87 391.19,228.83 				"/>
				<polygon style="fill:#B2B2B2;" points="391.19,230.23 391.19,228.83 386.9,231.3 386.9,232.71 				"/>
				<polygon style="fill:#9D9D9C;" points="341.56,205.34 341.56,206.75 386.9,232.71 386.9,231.3 				"/>
			</g>
			<g>
				<polygon style="fill:#F6F6F6;" points="386.9,226.7 341.56,200.74 345.85,198.27 391.19,224.23 				"/>
				<polygon style="fill:#B2B2B2;" points="391.19,225.63 391.19,224.23 386.9,226.7 386.9,228.1 				"/>
				<polygon style="fill:#9D9D9C;" points="341.56,200.74 341.56,202.14 386.9,228.1 386.9,226.7 				"/>
			</g>
			<g>
				<polygon style="fill:#F6F6F6;" points="386.9,222.1 341.56,196.14 345.85,193.67 391.19,219.63 				"/>
				<polygon style="fill:#B2B2B2;" points="391.19,221.03 391.19,219.63 386.9,222.1 386.9,223.5 				"/>
				<polygon style="fill:#9D9D9C;" points="341.56,196.14 341.56,197.54 386.9,223.5 386.9,222.1 				"/>
			</g>
			<g>
				<polygon style="fill:#F6F6F6;" points="386.9,217.5 341.56,191.54 345.85,189.07 391.19,215.03 				"/>
				<polygon style="fill:#B2B2B2;" points="391.19,216.43 391.19,215.03 386.9,217.5 386.9,218.9 				"/>
				<polygon style="fill:#9D9D9C;" points="341.56,191.54 341.56,192.94 386.9,218.9 386.9,217.5 				"/>
			</g>
			<g>
				<polygon style="fill:#F6F6F6;" points="386.9,212.9 341.56,186.94 345.85,184.47 391.19,210.43 				"/>
				<polygon style="fill:#B2B2B2;" points="391.19,211.83 391.19,210.43 386.9,212.9 386.9,214.3 				"/>
				<polygon style="fill:#9D9D9C;" points="341.56,186.94 341.56,188.34 386.9,214.3 386.9,212.9 				"/>
			</g>
			<g>
				<polygon style="fill:#F6F6F6;" points="386.9,208.3 341.56,182.34 345.85,179.86 391.19,205.83 				"/>
				<polygon style="fill:#B2B2B2;" points="391.19,207.23 391.19,205.83 386.9,208.3 386.9,209.7 				"/>
				<polygon style="fill:#9D9D9C;" points="341.56,182.34 341.56,183.74 386.9,209.7 386.9,208.3 				"/>
			</g>
			<g>
				<polygon style="fill:#F6F6F6;" points="386.9,203.7 341.56,177.74 345.85,175.26 391.19,201.22 				"/>
				<polygon style="fill:#B2B2B2;" points="391.19,202.63 391.19,201.22 386.9,203.7 386.9,205.1 				"/>
				<polygon style="fill:#9D9D9C;" points="341.56,177.74 341.56,179.14 386.9,205.1 386.9,203.7 				"/>
			</g>
			<g>
				<g>
					<polygon style="fill:#F6F6F6;" points="386.9,199.1 341.56,173.14 345.85,170.66 391.19,196.62 					"/>
					<polygon style="fill:#B2B2B2;" points="391.19,198.02 391.19,196.62 386.9,199.1 386.9,200.5 					"/>
					<polygon style="fill:#9D9D9C;" points="341.56,173.14 341.56,174.54 386.9,200.5 386.9,199.1 					"/>
				</g>
				<polygon style="fill:#F6F6F6;" points="386.9,194.5 341.56,168.54 345.85,166.06 391.19,192.02 				"/>
				<polygon style="fill:#B2B2B2;" points="391.19,193.42 391.19,192.02 386.9,194.5 386.9,195.9 				"/>
				<polygon style="fill:#9D9D9C;" points="341.56,168.54 341.56,169.94 386.9,195.9 386.9,194.5 				"/>
			</g>
			<g>
				<polygon style="fill:#F6F6F6;" points="386.9,189.9 341.56,163.94 345.85,161.46 391.19,187.42 				"/>
				<polygon style="fill:#B2B2B2;" points="391.19,188.82 391.19,187.42 386.9,189.9 386.9,191.3 				"/>
				<polygon style="fill:#9D9D9C;" points="341.56,163.94 341.56,165.34 386.9,191.3 386.9,189.9 				"/>
			</g>
			<g>
				<polygon style="fill:#FFF9F2;" points="386.9,185.3 341.56,159.33 345.85,156.86 391.19,182.82 				"/>
				<polygon style="fill:#EFE7DC;" points="391.19,184.22 391.19,182.82 386.9,185.3 386.9,186.7 				"/>
				<polygon style="fill:#CDBBA3;" points="341.56,159.33 341.56,160.74 386.9,186.7 386.9,185.3 				"/>
			</g>
		</g>
		<g>
			<g>
				<polygon style="fill:#F6F6F6;" points="386.9,185.3 341.56,159.33 345.85,156.86 391.19,182.82 				"/>
				<polygon style="fill:#B2B2B2;" points="391.19,184.22 391.19,182.82 386.9,185.3 386.9,186.7 				"/>
				<polygon style="fill:#9D9D9C;" points="341.56,159.33 341.56,160.74 386.9,186.7 386.9,185.3 				"/>
			</g>
			<g>
				<polygon style="fill:#F6F6F6;" points="386.9,180.69 341.56,154.73 345.85,152.26 391.19,178.22 				"/>
				<polygon style="fill:#B2B2B2;" points="391.19,179.62 391.19,178.22 386.9,180.69 386.9,182.1 				"/>
				<polygon style="fill:#9D9D9C;" points="341.56,154.73 341.56,156.14 386.9,182.1 386.9,180.69 				"/>
			</g>
			<g>
				<polygon style="fill:#F6F6F6;" points="386.9,176.09 341.56,150.13 345.85,147.66 391.19,173.62 				"/>
				<polygon style="fill:#B2B2B2;" points="391.19,175.02 391.19,173.62 386.9,176.09 386.9,177.5 				"/>
				<polygon style="fill:#9D9D9C;" points="341.56,150.13 341.56,151.53 386.9,177.5 386.9,176.09 				"/>
			</g>
			<g>
				<polygon style="fill:#F6F6F6;" points="386.9,171.49 341.56,145.53 345.85,143.06 391.19,169.02 				"/>
				<polygon style="fill:#B2B2B2;" points="391.19,170.42 391.19,169.02 386.9,171.49 386.9,172.89 				"/>
				<polygon style="fill:#9D9D9C;" points="341.56,145.53 341.56,146.93 386.9,172.89 386.9,171.49 				"/>
			</g>
			<g>
				<polygon style="fill:#F6F6F6;" points="386.9,166.89 341.56,140.93 345.85,138.46 391.19,164.42 				"/>
				<polygon style="fill:#B2B2B2;" points="391.19,165.82 391.19,164.42 386.9,166.89 386.9,168.29 				"/>
				<polygon style="fill:#9D9D9C;" points="341.56,140.93 341.56,142.33 386.9,168.29 386.9,166.89 				"/>
			</g>
			<g>
				<polygon style="fill:#F6F6F6;" points="386.9,162.29 341.56,136.33 345.85,133.86 391.19,159.82 				"/>
				<polygon style="fill:#B2B2B2;" points="391.19,161.22 391.19,159.82 386.9,162.29 386.9,163.69 				"/>
				<polygon style="fill:#9D9D9C;" points="341.56,136.33 341.56,137.73 386.9,163.69 386.9,162.29 				"/>
			</g>
			<g>
				<polygon style="fill:#F6F6F6;" points="386.9,157.69 341.56,131.73 345.85,129.25 391.19,155.22 				"/>
				<polygon style="fill:#B2B2B2;" points="391.19,156.62 391.19,155.22 386.9,157.69 386.9,159.09 				"/>
				<polygon style="fill:#9D9D9C;" points="341.56,131.73 341.56,133.13 386.9,159.09 386.9,157.69 				"/>
			</g>
			<g>
				<polygon style="fill:#F6F6F6;" points="386.9,153.09 341.56,127.13 345.85,124.65 391.19,150.61 				"/>
				<polygon style="fill:#B2B2B2;" points="391.19,152.02 391.19,150.61 386.9,153.09 386.9,154.49 				"/>
				<polygon style="fill:#9D9D9C;" points="341.56,127.13 341.56,128.53 386.9,154.49 386.9,153.09 				"/>
			</g>
			<g>
				<polygon style="fill:#F6F6F6;" points="386.9,148.49 341.56,122.53 345.85,120.05 391.19,146.01 				"/>
				<polygon style="fill:#B2B2B2;" points="391.19,147.42 391.19,146.01 386.9,148.49 386.9,149.89 				"/>
				<polygon style="fill:#9D9D9C;" points="341.56,122.53 341.56,123.93 386.9,149.89 386.9,148.49 				"/>
			</g>
			<g>
				<g>
					<polygon style="fill:#F6F6F6;" points="386.9,143.89 341.56,117.93 345.85,115.45 391.19,141.41 					"/>
					<polygon style="fill:#B2B2B2;" points="391.19,142.81 391.19,141.41 386.9,143.89 386.9,145.29 					"/>
					<polygon style="fill:#9D9D9C;" points="341.56,117.93 341.56,119.33 386.9,145.29 386.9,143.89 					"/>
				</g>
				<polygon style="fill:#F6F6F6;" points="386.9,139.29 341.56,113.33 345.85,110.85 391.19,136.81 				"/>
				<polygon style="fill:#B2B2B2;" points="391.19,138.21 391.19,136.81 386.9,139.29 386.9,140.69 				"/>
				<polygon style="fill:#9D9D9C;" points="341.56,113.33 341.56,114.73 386.9,140.69 386.9,139.29 				"/>
			</g>
			<g>
				<polygon style="fill:#F6F6F6;" points="386.9,134.69 341.56,108.73 345.85,106.25 391.19,132.21 				"/>
				<polygon style="fill:#B2B2B2;" points="391.19,133.61 391.19,132.21 386.9,134.69 386.9,136.09 				"/>
				<polygon style="fill:#9D9D9C;" points="341.56,108.73 341.56,110.13 386.9,136.09 386.9,134.69 				"/>
			</g>
			<g>
				<polygon style="fill:#F6F6F6;" points="386.9,130.09 341.56,104.12 345.85,101.65 391.19,127.61 				"/>
				<polygon style="fill:#B2B2B2;" points="391.19,129.01 391.19,127.61 386.9,130.09 386.9,131.49 				"/>
				<polygon style="fill:#9D9D9C;" points="341.56,104.12 341.56,105.53 386.9,131.49 386.9,130.09 				"/>
			</g>
		</g>
	</g>
	<g>
		<g>
			<g>
				<polygon style="fill:#F6F6F6;" points="437.1,269.94 391.76,243.98 396.05,241.51 441.39,267.47 				"/>
				<polygon style="fill:#B2B2B2;" points="441.39,268.87 441.39,267.47 437.1,269.94 437.1,271.34 				"/>
				<polygon style="fill:#9D9D9C;" points="391.76,243.98 391.76,245.38 437.1,271.34 437.1,269.94 				"/>
			</g>
			<g>
				<polygon style="fill:#F6F6F6;" points="437.1,265.34 391.76,239.38 396.05,236.91 441.39,262.87 				"/>
				<polygon style="fill:#B2B2B2;" points="441.39,264.27 441.39,262.87 437.1,265.34 437.1,266.74 				"/>
				<polygon style="fill:#9D9D9C;" points="391.76,239.38 391.76,240.78 437.1,266.74 437.1,265.34 				"/>
			</g>
			<g>
				<polygon style="fill:#F6F6F6;" points="437.1,260.74 391.76,234.78 396.05,232.3 441.39,258.27 				"/>
				<polygon style="fill:#B2B2B2;" points="441.39,259.67 441.39,258.27 437.1,260.74 437.1,262.14 				"/>
				<polygon style="fill:#9D9D9C;" points="391.76,234.78 391.76,236.18 437.1,262.14 437.1,260.74 				"/>
			</g>
			<g>
				<polygon style="fill:#F6F6F6;" points="437.1,256.14 391.76,230.18 396.05,227.7 441.39,253.66 				"/>
				<polygon style="fill:#B2B2B2;" points="441.39,255.07 441.39,253.66 437.1,256.14 437.1,257.54 				"/>
				<polygon style="fill:#9D9D9C;" points="391.76,230.18 391.76,231.58 437.1,257.54 437.1,256.14 				"/>
			</g>
			<g>
				<polygon style="fill:#F6F6F6;" points="437.1,251.54 391.76,225.58 396.05,223.1 441.39,249.06 				"/>
				<polygon style="fill:#B2B2B2;" points="441.39,250.47 441.39,249.06 437.1,251.54 437.1,252.94 				"/>
				<polygon style="fill:#9D9D9C;" points="391.76,225.58 391.76,226.98 437.1,252.94 437.1,251.54 				"/>
			</g>
			<g>
				<polygon style="fill:#F6F6F6;" points="437.1,246.94 391.76,220.98 396.05,218.5 441.39,244.46 				"/>
				<polygon style="fill:#B2B2B2;" points="441.39,245.86 441.39,244.46 437.1,246.94 437.1,248.34 				"/>
				<polygon style="fill:#9D9D9C;" points="391.76,220.98 391.76,222.38 437.1,248.34 437.1,246.94 				"/>
			</g>
			<g>
				<polygon style="fill:#F6F6F6;" points="437.1,242.34 391.76,216.38 396.05,213.9 441.39,239.86 				"/>
				<polygon style="fill:#B2B2B2;" points="441.39,241.26 441.39,239.86 437.1,242.34 437.1,243.74 				"/>
				<polygon style="fill:#9D9D9C;" points="391.76,216.38 391.76,217.78 437.1,243.74 437.1,242.34 				"/>
			</g>
			<g>
				<polygon style="fill:#F6F6F6;" points="437.1,237.74 391.76,211.78 396.05,209.3 441.39,235.26 				"/>
				<polygon style="fill:#B2B2B2;" points="441.39,236.66 441.39,235.26 437.1,237.74 437.1,239.14 				"/>
				<polygon style="fill:#9D9D9C;" points="391.76,211.78 391.76,213.18 437.1,239.14 437.1,237.74 				"/>
			</g>
			<g>
				<polygon style="fill:#F6F6F6;" points="437.1,233.14 391.76,207.17 396.05,204.7 441.39,230.66 				"/>
				<polygon style="fill:#B2B2B2;" points="441.39,232.06 441.39,230.66 437.1,233.14 437.1,234.54 				"/>
				<polygon style="fill:#9D9D9C;" points="391.76,207.17 391.76,208.58 437.1,234.54 437.1,233.14 				"/>
			</g>
			<g>
				<g>
					<polygon style="fill:#F6F6F6;" points="437.1,228.53 391.76,202.57 396.05,200.1 441.39,226.06 					"/>
					<polygon style="fill:#B2B2B2;" points="441.39,227.46 441.39,226.06 437.1,228.53 437.1,229.94 					"/>
					<polygon style="fill:#9D9D9C;" points="391.76,202.57 391.76,203.97 437.1,229.94 437.1,228.53 					"/>
				</g>
				<polygon style="fill:#F6F6F6;" points="437.1,223.93 391.76,197.97 396.05,195.5 441.39,221.46 				"/>
				<polygon style="fill:#B2B2B2;" points="441.39,222.86 441.39,221.46 437.1,223.93 437.1,225.33 				"/>
				<polygon style="fill:#9D9D9C;" points="391.76,197.97 391.76,199.37 437.1,225.33 437.1,223.93 				"/>
			</g>
			<g>
				<polygon style="fill:#F6F6F6;" points="437.1,219.33 391.76,193.37 396.05,190.9 441.39,216.86 				"/>
				<polygon style="fill:#B2B2B2;" points="441.39,218.26 441.39,216.86 437.1,219.33 437.1,220.73 				"/>
				<polygon style="fill:#9D9D9C;" points="391.76,193.37 391.76,194.77 437.1,220.73 437.1,219.33 				"/>
			</g>
			<g>
				<polygon style="fill:#FFF9F2;" points="437.1,214.73 391.76,188.77 396.05,186.3 441.39,212.26 				"/>
				<polygon style="fill:#EFE7DC;" points="441.39,213.66 441.39,212.26 437.1,214.73 437.1,216.13 				"/>
				<polygon style="fill:#CDBBA3;" points="391.76,188.77 391.76,190.17 437.1,216.13 437.1,214.73 				"/>
			</g>
		</g>
		<g>
			<g>
				<polygon style="fill:#F6F6F6;" points="437.1,214.73 391.76,188.77 396.05,186.3 441.39,212.26 				"/>
				<polygon style="fill:#B2B2B2;" points="441.39,213.66 441.39,212.26 437.1,214.73 437.1,216.13 				"/>
				<polygon style="fill:#9D9D9C;" points="391.76,188.77 391.76,190.17 437.1,216.13 437.1,214.73 				"/>
			</g>
			<g>
				<polygon style="fill:#F6F6F6;" points="437.1,210.13 391.76,184.17 396.05,181.69 441.39,207.66 				"/>
				<polygon style="fill:#B2B2B2;" points="441.39,209.06 441.39,207.66 437.1,210.13 437.1,211.53 				"/>
				<polygon style="fill:#9D9D9C;" points="391.76,184.17 391.76,185.57 437.1,211.53 437.1,210.13 				"/>
			</g>
			<g>
				<polygon style="fill:#F6F6F6;" points="437.1,205.53 391.76,179.57 396.05,177.09 441.39,203.05 				"/>
				<polygon style="fill:#B2B2B2;" points="441.39,204.46 441.39,203.05 437.1,205.53 437.1,206.93 				"/>
				<polygon style="fill:#9D9D9C;" points="391.76,179.57 391.76,180.97 437.1,206.93 437.1,205.53 				"/>
			</g>
			<g>
				<polygon style="fill:#F6F6F6;" points="437.1,200.93 391.76,174.97 396.05,172.49 441.39,198.45 				"/>
				<polygon style="fill:#B2B2B2;" points="441.39,199.86 441.39,198.45 437.1,200.93 437.1,202.33 				"/>
				<polygon style="fill:#9D9D9C;" points="391.76,174.97 391.76,176.37 437.1,202.33 437.1,200.93 				"/>
			</g>
			<g>
				<polygon style="fill:#F6F6F6;" points="437.1,196.33 391.76,170.37 396.05,167.89 441.39,193.85 				"/>
				<polygon style="fill:#B2B2B2;" points="441.39,195.25 441.39,193.85 437.1,196.33 437.1,197.73 				"/>
				<polygon style="fill:#9D9D9C;" points="391.76,170.37 391.76,171.77 437.1,197.73 437.1,196.33 				"/>
			</g>
			<g>
				<polygon style="fill:#F6F6F6;" points="437.1,191.73 391.76,165.77 396.05,163.29 441.39,189.25 				"/>
				<polygon style="fill:#B2B2B2;" points="441.39,190.65 441.39,189.25 437.1,191.73 437.1,193.13 				"/>
				<polygon style="fill:#9D9D9C;" points="391.76,165.77 391.76,167.17 437.1,193.13 437.1,191.73 				"/>
			</g>
			<g>
				<polygon style="fill:#F6F6F6;" points="437.1,187.13 391.76,161.17 396.05,158.69 441.39,184.65 				"/>
				<polygon style="fill:#B2B2B2;" points="441.39,186.05 441.39,184.65 437.1,187.13 437.1,188.53 				"/>
				<polygon style="fill:#9D9D9C;" points="391.76,161.17 391.76,162.57 437.1,188.53 437.1,187.13 				"/>
			</g>
			<g>
				<polygon style="fill:#F6F6F6;" points="437.1,182.53 391.76,156.56 396.05,154.09 441.39,180.05 				"/>
				<polygon style="fill:#B2B2B2;" points="441.39,181.45 441.39,180.05 437.1,182.53 437.1,183.93 				"/>
				<polygon style="fill:#9D9D9C;" points="391.76,156.56 391.76,157.97 437.1,183.93 437.1,182.53 				"/>
			</g>
			<g>
				<polygon style="fill:#F6F6F6;" points="437.1,177.92 391.76,151.96 396.05,149.49 441.39,175.45 				"/>
				<polygon style="fill:#B2B2B2;" points="441.39,176.85 441.39,175.45 437.1,177.92 437.1,179.33 				"/>
				<polygon style="fill:#9D9D9C;" points="391.76,151.96 391.76,153.37 437.1,179.33 437.1,177.92 				"/>
			</g>
			<g>
				<g>
					<polygon style="fill:#F6F6F6;" points="437.1,173.32 391.76,147.36 396.05,144.89 441.39,170.85 					"/>
					<polygon style="fill:#B2B2B2;" points="441.39,172.25 441.39,170.85 437.1,173.32 437.1,174.73 					"/>
					<polygon style="fill:#9D9D9C;" points="391.76,147.36 391.76,148.76 437.1,174.73 437.1,173.32 					"/>
				</g>
				<polygon style="fill:#F6F6F6;" points="437.1,168.72 391.76,142.76 396.05,140.29 441.39,166.25 				"/>
				<polygon style="fill:#B2B2B2;" points="441.39,167.65 441.39,166.25 437.1,168.72 437.1,170.12 				"/>
				<polygon style="fill:#9D9D9C;" points="391.76,142.76 391.76,144.16 437.1,170.12 437.1,168.72 				"/>
			</g>
			<g>
				<polygon style="fill:#F6F6F6;" points="437.1,164.12 391.76,138.16 396.05,135.69 441.39,161.65 				"/>
				<polygon style="fill:#B2B2B2;" points="441.39,163.05 441.39,161.65 437.1,164.12 437.1,165.52 				"/>
				<polygon style="fill:#9D9D9C;" points="391.76,138.16 391.76,139.56 437.1,165.52 437.1,164.12 				"/>
			</g>
			<g>
				<polygon style="fill:#F6F6F6;" points="437.1,159.52 391.76,133.56 396.05,131.09 441.39,157.05 				"/>
				<polygon style="fill:#B2B2B2;" points="441.39,158.45 441.39,157.05 437.1,159.52 437.1,160.92 				"/>
				<polygon style="fill:#9D9D9C;" points="391.76,133.56 391.76,134.96 437.1,160.92 437.1,159.52 				"/>
			</g>
		</g>
	</g>
	<g>
		
			<linearGradient id="SVGID_23_" gradientUnits="userSpaceOnUse" x1="1471.7446" y1="362.9089" x2="1689.2778" y2="255.3129" gradientTransform="matrix(-1 0 0 1 1720.8422 0)">
			<stop  offset="0.1514" style="stop-color:#EDEDED"/>
			<stop  offset="0.3541" style="stop-color:#FFFFFF"/>
			<stop  offset="0.4665" style="stop-color:#F3F3F3"/>
			<stop  offset="0.5838" style="stop-color:#EDEDED"/>
			<stop  offset="0.8297" style="stop-color:#FFFFFF"/>
		</linearGradient>
		<polyline style="opacity:0.43;fill:url(#SVGID_23_);" points="259.42,294.91 259.42,464.23 13.4,322.53 13.92,150.37 
			259.42,294.91 		"/>
		<polyline style="opacity:0.43;fill:#EDEDED;" points="259.42,463.53 259.42,294.21 381.64,222.21 381.64,393.02 		"/>
		
			<linearGradient id="SVGID_25_" gradientUnits="userSpaceOnUse" x1="1338.4525" y1="270.9547" x2="1707.1709" y2="270.9547" gradientTransform="matrix(-1 0 0 1 1720.8422 0)">
			<stop  offset="0.1378" style="stop-color:#DEDEDE"/>
			<stop  offset="0.2865" style="stop-color:#C6C6C6"/>
			<stop  offset="0.4838" style="stop-color:#FFFFFF"/>
			<stop  offset="0.5246" style="stop-color:#E8E8E8"/>
			<stop  offset="0.5877" style="stop-color:#CACACA"/>
			<stop  offset="0.6421" style="stop-color:#B8B8B8"/>
			<stop  offset="0.6811" style="stop-color:#B2B2B2"/>
			<stop  offset="0.8811" style="stop-color:#FFFFFF"/>
		</linearGradient>
		<polyline style="fill:none;stroke:url(#SVGID_25_);stroke-width:1.5;stroke-miterlimit:10;" points="14.05,149.54 259.42,294.21 
			381.64,222.21 381.64,393.02 		"/>
		
			<linearGradient id="SVGID_27_" gradientUnits="userSpaceOnUse" x1="1461.4232" y1="463.5301" x2="1461.4232" y2="294.2085" gradientTransform="matrix(-1 0 0 1 1720.8422 0)">
			<stop  offset="0.1378" style="stop-color:#DEDEDE"/>
			<stop  offset="0.2865" style="stop-color:#C6C6C6"/>
			<stop  offset="0.4838" style="stop-color:#FFFFFF"/>
			<stop  offset="0.5246" style="stop-color:#E8E8E8"/>
			<stop  offset="0.5877" style="stop-color:#CACACA"/>
			<stop  offset="0.6421" style="stop-color:#B8B8B8"/>
			<stop  offset="0.6811" style="stop-color:#B2B2B2"/>
			<stop  offset="0.8811" style="stop-color:#FFFFFF"/>
		</linearGradient>
		
			<line style="fill:none;stroke:url(#SVGID_27_);stroke-width:1.5;stroke-miterlimit:10;" x1="259.42" y1="463.53" x2="259.42" y2="294.21"/>
		<polygon style="opacity:0.62;fill:#EDEDED;" points="430.82,196.6 429.83,365.45 381.64,393.02 381.64,222.21 		"/>
		<polyline style="opacity:0.43;fill:#EDEDED;" points="428.93,365.97 429.83,365.45 429.83,197.99 487.94,162.84 487.48,332.27 		
			"/>
		
			<linearGradient id="SVGID_28_" gradientUnits="userSpaceOnUse" x1="1811.1138" y1="365.4703" x2="1811.1138" y2="194.6372" gradientTransform="matrix(-1 0 0 1 2241.4905 0)">
			<stop  offset="0.1378" style="stop-color:#DEDEDE"/>
			<stop  offset="0.2865" style="stop-color:#C6C6C6"/>
			<stop  offset="0.4838" style="stop-color:#FFFFFF"/>
			<stop  offset="0.5246" style="stop-color:#E8E8E8"/>
			<stop  offset="0.5877" style="stop-color:#CACACA"/>
			<stop  offset="0.6421" style="stop-color:#B8B8B8"/>
			<stop  offset="0.6811" style="stop-color:#B2B2B2"/>
			<stop  offset="0.8811" style="stop-color:#FFFFFF"/>
		</linearGradient>
		
			<line style="fill:none;stroke:url(#SVGID_28_);stroke-width:1.5;stroke-miterlimit:10;" x1="430.92" y1="194.64" x2="429.83" y2="365.47"/>
		
			<linearGradient id="SVGID_29_" gradientUnits="userSpaceOnUse" x1="1753.1819" y1="192.5888" x2="1860.2159" y2="192.5888" gradientTransform="matrix(-1 0 0 1 2241.4905 0)">
			<stop  offset="0.1378" style="stop-color:#DEDEDE"/>
			<stop  offset="0.2865" style="stop-color:#C6C6C6"/>
			<stop  offset="0.4838" style="stop-color:#FFFFFF"/>
			<stop  offset="0.5604" style="stop-color:#E8E8E8"/>
			<stop  offset="0.6788" style="stop-color:#CACACA"/>
			<stop  offset="0.7808" style="stop-color:#B8B8B8"/>
			<stop  offset="0.8541" style="stop-color:#B2B2B2"/>
			<stop  offset="1" style="stop-color:#FFFFFF"/>
		</linearGradient>
		
			<line style="fill:none;stroke:url(#SVGID_29_);stroke-width:1.5;stroke-miterlimit:10;" x1="487.94" y1="162.97" x2="381.64" y2="222.21"/>
	</g>
	<g>
		
			<ellipse transform="matrix(0.0821 -0.9966 0.9966 0.0821 48.1296 672.1688)" style="fill:#575756;" cx="388.96" cy="309.96" rx="3.86" ry="2.19"/>
		<ellipse style="fill:#575756;" cx="386.9" cy="310.11" rx="0.69" ry="1.41"/>
	</g>
</g>
</svg>
